<?xml version="1.0" standalone="no"?>
<!DOCTYPE svg PUBLIC "-//W3C//DTD SVG 1.1//EN" "http://www.w3.org/Graphics/SVG/1.1/DTD/svg11.dtd" >
<svg>
<metadata>
Created by FontForge 20090914 at Wed Oct 16 10:21:24 2013
 By www-data
Converted by ALLTYPE
</metadata>
<defs>
<font id="Eurostile-Roman-DTC" horiz-adv-x="278" >
  <font-face 
    font-family="Eurostile-Roman-DTC"
    font-weight="5"
    font-stretch="normal"
    units-per-em="1000"
    panose-1="0 0 0 0 0 0 0 0 0 0"
    ascent="800"
    descent="-200"
    x-height="467"
    cap-height="667"
    bbox="-59 -210.999 1130 856"
    underline-thickness="50"
    underline-position="-55"
    unicode-range="U+0020-U+F002"
  />
<missing-glyph 
 />
    <glyph glyph-name=".notdef" 
 />
    <glyph glyph-name="space" unicode=" " 
 />
    <glyph glyph-name="space" unicode="&#xa0;" 
 />
    <glyph glyph-name="exclam" unicode="!" horiz-adv-x="240" 
d="M161 91v-91h-79v91h79v0zM160 667l-10 -483h-64l-8 483h82v0z" />
    <glyph glyph-name="quotedbl" unicode="&#x22;" horiz-adv-x="329" 
d="M119 400h-58l-12 267h83l-13 -267v0zM268 400h-59l-12 267h83l-12 -267v0z" />
    <glyph glyph-name="numbersign" unicode="#" horiz-adv-x="605" 
d="M387 232l-28 -199h-41l28 199h-118l-28 -199h-42l28 199h-124l6 40h124l16 112h-125l6 41h124l26 183h42l-26 -183h118l25 183h42l-26 -183h128l-6 -41h-127l-16 -112h127l-5 -40h-128v0zM367 384h-118l-15 -112h117l16 112v0z" />
    <glyph glyph-name="dollar" unicode="$" horiz-adv-x="613" 
d="M336 602v-230.999c74.667 -0.666992 135 -9.5 181 -26.5s69 -69.5 69 -157.5c0 -81.333 -19.667 -132.5 -59 -153.5s-96 -32.167 -170 -33.5h-5.5h-4.5h-5.5h-5.5v-75h-56v75c-76 0 -136.833 7.5 -182.5 22.5s-69.167 68.833 -70.5 161.5v24h74
c0 -68 9.83301 -109.333 29.5 -124s61.5 -22.667 125.5 -24l24 1v246c-65.333 -0.666992 -122.833 7.16602 -172.5 23.499s-74.5 64.833 -74.5 145.5c0 82 20 134.167 60 156.5s95.333 33.5 166 33.5l21 1v62h56v-62c75.333 -0.666992 133.333 -10.167 174 -28.5
s61 -71.5 61 -159.5l-73 1c0 46.667 -5.66699 78.5 -17 95.5s-42.333 25.5 -93 25.5l-52 1v0zM336 61.001c4 -1.33301 8.16895 -2.00195 12.502 -2.00195h13.5c47.333 0 84.166 6.83301 110.499 20.5s39.5 46.5 39.5 98.5c0 60.667 -12.833 96.834 -38.5 108.501
s-65.834 17.834 -120.501 18.501l-17 1v-245v0zM280.002 602.999h-33c-42.667 -0.666992 -76.5 -5.66699 -101.5 -15s-37.5 -40.333 -37.5 -93c0 -56.667 11.5 -91.667 34.5 -105s58.167 -20 105.5 -20l32 1v232v0z" />
    <glyph glyph-name="percent" unicode="%" horiz-adv-x="786" 
d="M486 171c0 50.667 6.33203 90.6709 18.999 120.004s48 44 106 44c55.333 0 96.666 -6.16699 123.999 -18.5s41 -49.5 41 -111.5v-20.5c0 -7 0.333008 -13.833 1 -20.5v-20.5v-20.5v-4.5v-4.5c-0.666992 -14.667 -2.16699 -28.834 -4.5 -42.501
s-7.16602 -25.834 -14.499 -36.501c-9.33301 -14.667 -21.666 -24.334 -36.999 -29.001s-31 -7.33398 -47 -8.00098c-6 -0.666992 -12 -1 -18 -1h-17c-54 0 -93 7.33301 -117 22s-36 53.667 -36 117v35v0zM529.999 169.004l0.000976562 -61.999c2 -36 10.5 -57 25.5 -63
s35.5 -9 61.5 -9h7.5h7.5c32.667 0 57.5 3.5 74.5 10.5s25.5 28.833 25.5 65.5v111c0 36 -6.66699 57.667 -20 65s-32.666 11 -57.999 11l-49 1c-2 -0.666992 -4 -1 -6 -1h-7c-8.66699 -0.666992 -17.334 -2 -26.001 -4s-15.334 -5.66699 -20.001 -11
c-6 -6.66699 -10.167 -15.834 -12.5 -27.501s-3.83301 -23.5 -4.5 -35.5v-5.5v-5.5v-11.5c0 -3.66699 0.333008 -7.16699 1 -10.5v-10v-9v1zM650 667.005l-452 -667h-46l450 667h48v0zM27 504.005c0 50.667 6.16699 90.665 18.5 119.998s47.833 44 106.5 44l51 1
c43.333 -0.666992 73.166 -10.5 89.499 -29.5s24.5 -51.167 24.5 -96.5v-11v-11c-0.666992 -3.33301 -1 -6.66602 -1 -9.99902v-10v-10.5c0 -3.66699 0.333008 -7.5 1 -11.5v-11v-12c0 -47.333 -9.16699 -80.166 -27.5 -98.499s-53.166 -27.5 -104.499 -27.5
c-56.667 0 -97.167 8 -121.5 24s-36.5 54.333 -36.5 115v35v0zM70 502.003l0.999023 -62c0.666992 -35.333 8.83398 -56 24.501 -62s37.834 -9.33301 66.501 -10h5h6c32.667 0 57.5 3.5 74.5 10.5s25.5 28.833 25.5 65.5v111c0 36 -6.66699 57.667 -20 65s-33 11 -59 11
l-49 1c-1.33301 -0.666992 -2.83301 -1 -4.5 -1h-5.5c-9.33301 -0.666992 -18.333 -2 -27 -4s-15.667 -5.66699 -21 -11c-6 -6.66699 -10.333 -15.334 -13 -26.001s-4.33398 -21.667 -5.00098 -33v-8.5v-8.5v-11c0 -3.33301 0.333008 -6.66602 1 -9.99902v-9.5v-8.5v1z" />
    <glyph glyph-name="ampersand" unicode="&#x26;" horiz-adv-x="700" 
d="M515 294l73.998 -0.00488281v-15.5c0 -5 0.333008 -9.83301 1 -14.5v-14.5v-14.5c0 -7.33301 -0.166992 -14.666 -0.5 -21.999s-0.833008 -14.666 -1.5 -21.999s-1.5 -14.666 -2.5 -21.999s-2.16699 -14.666 -3.5 -21.999l117 -95l-42 -52l-98 81
c-17.333 -37.333 -42.666 -60.833 -75.999 -70.5s-68 -15.167 -104 -16.5h-19.5h-18.5c-89.333 0 -159 9.16699 -209 27.5s-75 81.5 -75 189.5v18.5c0 6.33301 0.333008 12.5 1 18.5c1.33301 16.667 4.33301 32.834 9 48.501s12.334 29.834 23.001 42.501
c10 12 21.833 20.333 35.5 25s27.5 8.66699 41.5 12h1.5h0.5c4 1.33301 8 2.33301 12 3s8 1.66699 12 3c-7.33301 6 -14 11.833 -20 17.5s-11 11.167 -15 16.5c-10 11.333 -16.667 23.666 -20 36.999s-5 31 -5 53c0 69.333 18.5 112.166 55.5 128.499s84.5 24.5 142.5 24.5
c64.667 0 113.167 -9.16699 145.5 -27.5s48.5 -63.166 48.5 -134.499v-18c0 -6 -0.333008 -12 -1 -18l-73 1c-0.666992 3.33301 -1 7 -1 11v12c-0.666992 54 -9.16699 85.667 -25.5 95s-50.833 14 -103.5 14c-30 0 -56.333 -3.33301 -79 -10s-34 -28.667 -34 -66
c0 -18.667 2.16699 -34 6.5 -46s11.5 -23.333 21.5 -34c3.33301 -4 7.33301 -8.16699 12 -12.5s10 -8.83301 16 -13.5l250 -208c0.666992 6.66699 1.16699 14 1.5 22s0.5 16 0.5 24v10.5v11.5c-0.666992 3.33301 -1 6.83301 -1 10.5v10.5v1zM239.998 341.995
c-6 -2 -11.999 -3.83301 -17.999 -5.5l-16 -4.5c-28 -7.33301 -47.333 -18 -58 -32s-16 -43.333 -16 -88c0 -62.667 8.16699 -104.167 24.5 -124.5s56.833 -30.5 121.5 -30.5l65 1c8 -0.666992 16.5 -1 25.5 -1s17.833 0.666992 26.5 2c23.333 2 45.166 7.5 65.499 16.5
s33.5 25.833 39.5 50.5l-260 216v0z" />
    <glyph glyph-name="quotesingle" unicode="'" horiz-adv-x="183" 
d="M121 400h-60l-12 267h85l-13 -267v0z" />
    <glyph glyph-name="parenleft" unicode="(" horiz-adv-x="277" 
d="M229 673l-0.00195312 -63c-48.667 -0.666992 -77.167 -12.5 -85.5 -35.5s-12.833 -52.833 -13.5 -89.5v-5.5v-5.5v-10.5v-11.5v-96l2 -271v-7v-7c0.666992 -30.667 4.66699 -57.5 12 -80.5s31 -34.5 71 -34.5l14 1v-63h-5.5c-1.66699 0 -3.16699 -0.333008 -4.5 -1h-5.5
h-5.5c-70.667 0 -113.667 21.667 -129 65s-23.666 94.333 -24.999 153c-0.666992 12 -1.16699 24.167 -1.5 36.5s-0.5 24.5 -0.5 36.5v36.5v36.5v167c0 72.667 8.33301 132.167 25 178.5s67.334 69.5 152.001 69.5v1z" />
    <glyph glyph-name="parenright" unicode=")" horiz-adv-x="277" 
d="M50 -107l0.00195312 62.998c30.667 0 53.5 5 68.5 15s23.833 30.667 26.5 62c0.666992 6.66699 1.16699 13.334 1.5 20.001s0.833008 13.334 1.5 20.001v19v20c0.666992 16 1 32 1 48v49l-3 272c0 34 -3.5 63.833 -10.5 89.5s-31.167 38.5 -72.5 38.5h-13v63
c2 -0.666992 3.83301 -1 5.5 -1s3.5 0.333008 5.5 1h4.5h5.5c70.667 0 113.167 -21 127.5 -63s23.166 -92.333 26.499 -151v-2.5v-2.5c0.666992 -20.667 1.16699 -41.167 1.5 -61.5s0.5 -40.5 0.5 -60.5v-61.5v-61.5v-66v-2.5v-1.5c0 -61.333 -6.83301 -117.5 -20.5 -168.5
s-59.834 -76.5 -138.501 -76.5h-18v0z" />
    <glyph glyph-name="asterisk" unicode="*" horiz-adv-x="613" 
d="M485 523l-137 -49l82 -117l-39 -29l-83 121l-89 -121l-39 29l85 117l-136 52l17 47l137 -50v144h49v-144l136 51l17 -51v0z" />
    <glyph glyph-name="plus" unicode="+" horiz-adv-x="500" 
d="M23 361h205v193h43v-193h206v-41h-206v-193h-43v193h-205v41v0z" />
    <glyph glyph-name="comma" unicode="," horiz-adv-x="202" 
d="M142 91l-0.000976562 -98c0 -27.333 -4.16699 -49.333 -12.5 -66s-27.166 -25 -56.499 -25h-5.5h-4.5c-1.33301 0.666992 -2.83301 1 -4.5 1h-5.5v37c17.333 0.666992 29 4.5 35 11.5s9 19.167 9 36.5v6c0 2 -0.333008 4 -1 6h-33v91h79v0z" />
    <glyph glyph-name="hyphen" unicode="-" horiz-adv-x="232" 
d="M20 276h192v-65h-192v65v0z" />
    <glyph glyph-name="period" unicode="." horiz-adv-x="199" 
d="M139 91v-91h-79v91h79v0z" />
    <glyph glyph-name="slash" unicode="/" horiz-adv-x="646" 
d="M577 667l-516 -765h-54l514 765h56v0z" />
    <glyph glyph-name="zero" unicode="0" horiz-adv-x="613" 
d="M23 342c0 24.667 0.166016 49.3301 0.499023 73.9971s1.16602 49.334 2.49902 74.001c2.66699 35.333 12.834 67.833 30.501 97.5s42.834 51.5 75.501 65.5c15.333 6.66699 31.166 10.834 47.499 12.501s32.833 2.83398 49.5 3.50098c6.66699 0 13.167 0.166992 19.5 0.5
s12.833 0.5 19.5 0.5h18.5h19.5c100.667 0 172.167 -12 214.5 -36s65.5 -91.667 69.5 -203v-23.5c0 -7.66699 0.333008 -15.5 1 -23.5v-24v-24c0 -22.667 -0.166992 -45.334 -0.5 -68.001s-0.833008 -45.667 -1.5 -69c-2 -62.667 -17.667 -111.167 -47 -145.5
s-76.666 -53.166 -141.999 -56.499c-12.667 -1.33301 -25.5 -2 -38.5 -2h-39.5h-53c-64.667 0 -119.667 10.5 -165 31.5s-71 69.167 -77 144.5c-2 20 -3.16699 40 -3.5 60s-0.5 40.333 -0.5 61v50v0zM98.999 336.996l1 -125c1.33301 -39.333 8.83301 -73.5 22.5 -102.5
s43.167 -44.5 88.5 -46.5c9.33301 0 18.833 -0.166992 28.5 -0.5s19.167 -0.833008 28.5 -1.5h7.5h7.5c11.333 -0.666992 23 -1.16699 35 -1.5s24 -0.5 36 -0.5c53.333 0 93.333 9.16699 120 27.5s40 62.833 40 133.5v117v108c0 67.333 -11.5 111.166 -34.5 131.499
s-68.167 30.5 -135.5 30.5l-74 1c-48 -0.666992 -87.667 -7.16699 -119 -19.5s-48 -50.166 -50 -113.499c-0.666992 -11.333 -1.16699 -22.833 -1.5 -34.5s-0.5 -23.167 -0.5 -34.5v-35.5v-34.5v1z" />
    <glyph glyph-name="one" unicode="1" horiz-adv-x="613" 
d="M393 667v-667h-70v610l-171 -188l-47 44l184 201h104v0z" />
    <glyph glyph-name="two" unicode="2" horiz-adv-x="613" 
d="M534 62l-0.000976562 -62.0029h-480v124c0 80.667 20 130.334 60 149.001s93 31.334 159 38.001c2.66699 0 5.16699 0.166992 7.5 0.5s4.83301 0.5 7.5 0.5c7.33301 0.666992 14.166 1.33398 20.499 2.00098l18.5 2c48.667 4.66699 83.167 14.334 103.5 29.001
s30.5 53 30.5 115c0 66.667 -10.667 107.667 -32 123s-64 23 -128 23h-26.5c-9 0 -17.833 -0.333008 -26.5 -1l-27.5 -2c-9 -0.666992 -17.833 -2 -26.5 -4c-32 -6.66699 -51.333 -22 -58 -46s-10 -49.667 -10 -77v-4.5v-5.5l1 -28h-73c0 60.667 6.5 111.334 19.5 152.001
s54.5 65.334 124.5 74.001c17.333 2 34.5 3.5 51.5 4.5s34.167 1.5 51.5 1.5c82 0 141.667 -12.333 179 -37s56 -82.334 56 -173.001v-23c0 -8 -0.333008 -16 -1 -24c-1.33301 -21.333 -5.16602 -42.333 -11.499 -63s-18.166 -38.667 -35.499 -54
c-20 -16.667 -42.667 -28 -68 -34s-51.333 -10 -78 -12c-6 -0.666992 -12.167 -1.16699 -18.5 -1.5s-12.5 -0.5 -18.5 -0.5c-47.333 -2.66699 -88.833 -10.167 -124.5 -22.5s-53.5 -48.833 -53.5 -109.5v-14c0 -4.66699 0.333008 -9 1 -13
c0 -4.66699 0.166992 -9.33398 0.5 -14.001s0.5 -9.33398 0.5 -14.001l405 1v0z" />
    <glyph glyph-name="three" unicode="3" horiz-adv-x="613" 
d="M244 309v64c7.33301 -0.666992 14.5 -1 21.5 -1s14.167 0.333008 21.5 1h21.5h21.5c54.667 0.666992 89.834 7.66699 105.501 21s23.5 47 23.5 101c0 37.333 -5.16699 64.833 -15.5 82.5s-35.166 27.5 -74.499 29.5c-9.33301 0 -18.5 0.166992 -27.5 0.5
s-18.167 0.5 -27.5 0.5h-27.5h-27.5h-13.5c-4.33301 0 -8.83301 -0.333008 -13.5 -1c-15.333 -0.666992 -30 -2.83398 -44 -6.50098s-25.333 -9.83398 -34 -18.501c-6.66699 -8 -11.334 -17.167 -14.001 -27.5s-4.33398 -20.833 -5.00098 -31.5v-6.5v-7.5v-12v-12
c-0.666992 -4 -1 -8 -1 -12v-12l-70 1c0 78.667 13.333 133.334 40 164.001s79.667 46 159 46l32 1c70 -0.666992 127.833 -8.16699 173.5 -22.5s68.5 -63.5 68.5 -147.5v-22c0 -7.33301 -0.333008 -15 -1 -23c-1.33301 -14 -3.83301 -27.833 -7.5 -41.5
s-9.83398 -26.167 -18.501 -37.5c-10 -12.667 -21.833 -21.334 -35.5 -26.001s-28.167 -8.33398 -43.5 -11.001c-0.666992 0 -1.66699 -0.166992 -3 -0.5s-2.66602 -0.5 -3.99902 -0.5c49.333 -6.66699 82.5 -20.667 99.5 -42s25.5 -56.666 25.5 -105.999
c0 -44.667 -6.16699 -86 -18.5 -124s-46.166 -60.667 -101.499 -68c-22 -2.66699 -44 -4.5 -66 -5.5s-44 -1.5 -66 -1.5c-71.333 0 -130.166 8.66699 -176.499 26s-69.5 69.333 -69.5 156v20c0 6.66699 0.333008 13.334 1 20.001l73 1v-39
c0 -39.333 5.66699 -68.666 17 -87.999s38.666 -29.666 81.999 -30.999c9.33301 0 18.333 -0.166992 27 -0.5s17.667 -0.5 27 -0.5c8.66699 0 17.5 -0.166992 26.5 -0.5s17.833 -0.5 26.5 -0.5c59.333 0 97.666 8 114.999 24s26 52.667 26 110
c0 53.333 -10.333 86.166 -31 98.499s-55.667 18.5 -105 18.5l-92 1v0z" />
    <glyph glyph-name="four" unicode="4" horiz-adv-x="613" 
d="M474 667v-450h100v-63h-100v-154h-71v154h-377v88l336 425h112v0zM403 217v401l-314 -401h314v0z" />
    <glyph glyph-name="five" unicode="5" horiz-adv-x="613" 
d="M525 667v-64.999h-378v-201c14.667 18.667 32.834 31.667 54.501 39s44.167 12 67.5 14c9.33301 0.666992 18.333 1 27 1h26c79.333 0 137.666 -14.333 174.999 -43s56 -85 56 -169c0 -102 -14.333 -169.333 -43 -202s-95.334 -49 -200.001 -49
c-79.333 0 -140.5 9.83301 -183.5 29.5s-64.5 75.834 -64.5 168.501l74 1c0 -56.667 9.16699 -93.167 27.5 -109.5s54.5 -24.5 108.5 -24.5l30 1c62.667 -0.666992 107.334 6.16602 134.001 20.499s40 55.166 40 122.499c0 66 -6.5 113.833 -19.5 143.5
s-57.833 44.5 -134.5 44.5l-37 1c-7.33301 -0.666992 -14.833 -1 -22.5 -1s-15.5 -0.333008 -23.5 -1c-10.667 -1.33301 -21 -3 -31 -5s-19.667 -5.33301 -29 -10c-8.66699 -4.66699 -15.667 -11 -21 -19s-9 -16.667 -11 -26l-71 1v338h449v0z" />
    <glyph glyph-name="six" unicode="6" horiz-adv-x="613" 
d="M532 499l-73.0029 -0.000976562c0 24.667 -3.33301 47.5 -10 68.5s-25 33.5 -55 37.5c-14.667 2 -29.167 3.16699 -43.5 3.5s-28.5 0.5 -42.5 0.5l-24 1c-7.33301 -0.666992 -14.833 -1.16699 -22.5 -1.5s-15.5 -0.833008 -23.5 -1.5
c-19.333 -1.33301 -37.666 -4.66602 -54.999 -9.99902s-30 -14.666 -38 -27.999c-4 -7.33301 -7 -15.333 -9 -24s-3.33301 -17.334 -4 -26.001c-0.666992 -6 -1 -11.667 -1 -17v-16v-135c7.33301 10 15.333 18.833 24 26.5s19.334 13.5 32.001 17.5
c14.667 4.66699 29.667 8 45 10s31 3 47 3c7.33301 0.666992 15 1 23 1h23c80.667 0 138.334 -11.833 173.001 -35.5s52 -79.167 52 -166.5v-11.5v-11.5c-1.33301 -44 -9.83301 -84.667 -25.5 -122s-50.834 -58 -105.501 -62c-18.667 -2.66699 -37.667 -4.16699 -57 -4.5
s-38.666 -0.5 -57.999 -0.5c-90.667 0 -155.334 14.5 -194.001 43.5s-58 91.833 -58 188.5l2 122v35.5v37.5c-0.666992 12.667 -1 25.167 -1 37.5v36.5c0 41.333 9.33301 77.333 28 108s50 50 94 58c11.333 2 22.5 3.66699 33.5 5s22.167 2.33301 33.5 3
c10.667 0 21.667 0.166992 33 0.5s22.333 0.5 33 0.5c56.667 0 108.334 -6.83301 155.001 -20.5s70 -57.167 70 -130.5v-5.5v-5.5c0 -2 -0.166992 -3.83301 -0.5 -5.5s-0.5 -3.5 -0.5 -5.5v1zM130.997 230.999c0 -69.333 8.16602 -115.667 24.499 -139s60.833 -35 133.5 -35
l33 1c55.333 -0.666992 94.666 5.33301 117.999 18s35 48.334 35 107.001c0 67.333 -7 111.166 -21 131.499s-58.333 30.5 -133 30.5l-25 1c-8 -0.666992 -16.667 -1.16699 -26 -1.5s-18.666 -0.833008 -27.999 -1.5c-16.667 -1.33301 -32.667 -3.83301 -48 -7.5
s-28 -9.5 -38 -17.5c-9.33301 -7.33301 -15.666 -16.5 -18.999 -27.5s-5.33301 -22.167 -6 -33.5v-10v-10v-6v0z" />
    <glyph glyph-name="seven" unicode="7" horiz-adv-x="613" 
d="M534 667v-95l-323 -572h-89l350 604h-424v63h486v0z" />
    <glyph glyph-name="eight" unicode="8" horiz-adv-x="613" 
d="M434 347c49.333 -10.667 80.667 -27.166 94 -49.499s20 -58.166 20 -107.499c0 -44.667 -5.16699 -84 -15.5 -118s-41.166 -57 -92.499 -69c-11.333 -2 -23 -3.66699 -35 -5s-24 -2.33301 -36 -3s-24 -1 -36 -1h-35c-88.667 0 -152 9.66699 -190 29s-57 76.333 -57 171
c0 49.333 7.16699 84.666 21.5 105.999s45.5 36.666 93.5 45.999c-46.667 9.33301 -76.167 25.166 -88.5 47.499s-18.5 55.5 -18.5 99.5c0 79.333 16.667 129 50 149s86.666 30 159.999 30l60 1c70.667 -0.666992 123.667 -10.667 159 -30s53 -68.666 53 -147.999
c0 -44.667 -6 -78.167 -18 -100.5s-41.667 -38.5 -89 -48.5v1zM126.001 189.001c0 -44.667 5.5 -77 16.5 -97s41.167 -30.333 90.5 -31c8 0 16.167 -0.166992 24.5 -0.5s16.833 -0.5 25.5 -0.5c8.66699 -0.666992 17.167 -1 25.5 -1h24.5c53.333 0 90.333 7.33301 111 22
s31 49.334 31 104.001c0 36 -5.16699 64.667 -15.5 86s-36.166 34 -77.499 38c-14 1.33301 -28.167 2 -42.5 2h-43.5l-38 1c-40.667 -0.666992 -72.834 -6.33398 -96.501 -17.001s-35.5 -40.667 -35.5 -90v-16v0zM135.001 500.001v-20.998v-12c0 -4 0.333008 -7.66699 1 -11
c0.666992 -13.333 3.16699 -25.833 7.5 -37.5s11.833 -20.5 22.5 -26.5c9.33301 -4.66699 20 -8.16699 32 -10.5s24.333 -4.16602 37 -5.49902c8.66699 -0.666992 17.167 -1 25.5 -1h23.5l47 1c43.333 -0.666992 76.5 4.66602 99.5 15.999s34.5 40.666 34.5 87.999v28v13
c0 4.66699 -0.333008 9.66699 -1 15c-0.666992 10.667 -2.66699 20.834 -6 30.501s-9 17.5 -17 23.5c-7.33301 5.33301 -18 9.33301 -32 12s-28.667 4.66699 -44 6c-9.33301 0.666992 -18.5 1 -27.5 1h-24.5l-29 1c-8 -0.666992 -16.833 -1.16699 -26.5 -1.5
s-19.5 -0.833008 -29.5 -1.5c-14 -0.666992 -27.667 -2.5 -41 -5.5s-24 -7.5 -32 -13.5c-8 -6.66699 -13.333 -14.834 -16 -24.501s-4 -19.834 -4 -30.501v-3.5v-3.5v-26v0z" />
    <glyph glyph-name="nine" unicode="9" horiz-adv-x="613" 
d="M51 170h70.998v-5v-4c-0.666992 -1.33301 -1 -2.66602 -1 -3.99902v-4c0 -34.667 7.5 -58.834 22.5 -72.501s39.5 -21.167 73.5 -22.5c8.66699 0 17.167 -0.166992 25.5 -0.5s16.833 -0.5 25.5 -0.5h24.5h25.5c58.667 0 99 7.33301 121 22s33 52.334 33 113.001v126
c-4.66699 -9.33301 -10.167 -17.5 -16.5 -24.5s-14.166 -12.167 -23.499 -15.5c-13.333 -5.33301 -27 -9.5 -41 -12.5s-28.333 -4.83301 -43 -5.5c-10 -0.666992 -20 -1.16699 -30 -1.5s-20 -0.5 -30 -0.5c-80 0 -138.833 10.667 -176.5 32s-56.5 76.666 -56.5 165.999
c0 91.333 17.5 150.333 52.5 177s94.833 40 179.5 40c88.667 0 153.834 -12.333 195.501 -37s63.167 -86.667 64.5 -186l2 -118v-129c0 -85.333 -17 -141.833 -51 -169.5s-93.667 -41.5 -179 -41.5h-44c-60 0 -112.5 7 -157.5 21s-67.5 59.333 -67.5 136v5.5
c0 1.66699 0.333008 3.16699 1 4.5v4.5v5.5v1zM128.998 467c0 -59.333 8.33105 -98.167 24.998 -116.5s56 -27.5 118 -27.5l23 1c9.33301 -0.666992 19 -1 29 -1s20 0.333008 30 1c9.33301 0.666992 19 1.66699 29 3s19.667 3 29 5c29.333 7.33301 46.833 20.333 52.5 39
s8.5 40.334 8.5 65.001c0 66.667 -8.16699 112 -24.5 136s-60.166 36 -131.499 36l-26 1c-63.333 -0.666992 -106.166 -7.83398 -128.499 -21.501s-33.5 -54.167 -33.5 -121.5v1z" />
    <glyph glyph-name="colon" unicode=":" horiz-adv-x="199" 
d="M139 91v-91h-79v91h79v0zM139 467v-91h-79v91h79v0z" />
    <glyph glyph-name="semicolon" unicode=";" horiz-adv-x="182" 
d="M122 91l-0.000976562 -98c0 -27.333 -4.16699 -49.333 -12.5 -66s-27.166 -25 -56.499 -25h-5.5h-4.5c-1.33301 0.666992 -2.83301 1 -4.5 1h-5.5v37c17.333 0.666992 29 4.5 35 11.5s9 19.167 9 36.5v6c0 2 -0.333008 4 -1 6h-33v91h79v0zM116.999 467v-91h-79v91h79v0z
" />
    <glyph glyph-name="less" unicode="&#x3c;" horiz-adv-x="500" 
d="M466 573v-78l-350 -160l350 -161v-77l-433 204v68l433 204v0z" />
    <glyph glyph-name="equal" unicode="=" horiz-adv-x="500" 
d="M23 291h454v-41h-454v41v0zM23 432h454v-41h-454v41v0z" />
    <glyph glyph-name="greater" unicode="&#x3e;" horiz-adv-x="500" 
d="M34 97v77l350 161l-350 161v77l433 -205v-67l-433 -204v0z" />
    <glyph glyph-name="question" unicode="?" horiz-adv-x="520" 
d="M269 91v-91h-79v91h79v0zM268 192l-72.9971 -0.00195312c0 42.667 4.5 74 13.5 94s29.833 37.667 62.5 53c4 1.33301 8.33301 3 13 5l14 6c8 2.66699 15.333 5.33398 22 8.00098s12.667 5.33398 18 8.00098c25.333 11.333 42.166 24.833 50.499 40.5
s12.5 41.167 12.5 76.5c0 60.667 -9.83301 96.667 -29.5 108s-57.834 17 -114.501 17c-6.66699 0 -13.834 -0.166992 -21.501 -0.5s-15.167 -0.833008 -22.5 -1.5c-12.667 -0.666992 -24.834 -2.66699 -36.501 -6s-21.167 -8.33301 -28.5 -15
c-8.66699 -8 -14.5 -17.833 -17.5 -29.5s-4.83301 -23.834 -5.5 -36.501v-8.5v-8.5v-44h-70c0 82.667 12.333 139 37 169s79 45 163 45c70.667 0 124.334 -9.83301 161.001 -29.5s55 -70.167 55 -151.5c0 -78 -11.667 -127.167 -35 -147.5s-49.333 -34.5 -78 -42.5
c-0.666992 -0.666992 -1.5 -1.16699 -2.5 -1.5s-1.83301 -0.5 -2.5 -0.5c-12.667 -3.33301 -25 -7.66602 -37 -12.999s-23 -13 -33 -23c-5.33301 -5.33301 -9 -11.333 -11 -18s-3.33301 -13.667 -4 -21v-8v-8v-16v0z" />
    <glyph glyph-name="at" unicode="@" horiz-adv-x="629" 
d="M411 471l48.002 -0.00488281v-228v-3.5v-3.5c0 -2.66699 0.166992 -5.33398 0.5 -8.00098s0.5 -5.33398 0.5 -8.00098c0.666992 -12 3.33398 -23.167 8.00098 -33.5s14.667 -15.5 30 -15.5s25.5 3.66699 30.5 11s8.83301 17.666 11.5 30.999
c2 10.667 3.5 21.334 4.5 32.001s1.83301 21.334 2.5 32.001s1.16699 21.334 1.5 32.001s0.5 21.334 0.5 32.001c0 80 -8.16699 134.167 -24.5 162.5s-68.5 42.5 -156.5 42.5l-64 1c-7.33301 -0.666992 -14.666 -1 -21.999 -1s-14.666 -0.333008 -21.999 -1
c-14.667 0 -29.334 -0.666992 -44.001 -2s-29.334 -3.33301 -44.001 -6c-24.667 -4.66699 -42.334 -13.5 -53.001 -26.5s-18.334 -31.167 -23.001 -54.5c-2.66699 -14.667 -5 -29.334 -7 -44.001s-3.33301 -29.667 -4 -45c0 -9.33301 -0.166992 -19 -0.5 -29
s-0.5 -20 -0.5 -30c0 -12 0.166992 -26.333 0.5 -43s1.16602 -33.667 2.49902 -51c1.33301 -20 3.83301 -39.5 7.5 -58.5s8.83398 -34.5 15.501 -46.5c8.66699 -15.333 20.334 -26.666 35.001 -33.999s30 -12.666 46 -15.999c1.33301 0 2.5 -0.166992 3.5 -0.5
s1.83301 -0.5 2.5 -0.5c9.33301 -1.33301 18.666 -2.5 27.999 -3.5s18.666 -1.83301 27.999 -2.5c9.33301 0 18.666 -0.166992 27.999 -0.5s18.666 -0.5 27.999 -0.5l46 1c5.33301 -0.666992 10.666 -1 15.999 -1h17c14.667 0.666992 29 1.83398 43 3.50098
s26.333 4.16699 37 7.5c6 1.33301 11.167 4.16602 15.5 8.49902s7.83301 8.83301 10.5 13.5l34 -23c-5.33301 -10 -12.333 -18.5 -21 -25.5s-18.667 -12.167 -30 -15.5c-13.333 -4 -27.333 -6.66699 -42 -8s-29.667 -2.33301 -45 -3h-10.5h-11.5c-121.333 0 -206 13 -254 39
s-72 106.333 -72 241v15c0 12 0.166992 25.167 0.5 39.5s0.833008 28.833 1.5 43.5c1.33301 17.333 3.33301 34.5 6 51.5s6.33398 32.833 11.001 47.5c8.66699 28 21.834 49 39.501 63s40.5 23.667 68.5 29c14.667 2.66699 29.667 4.83398 45 6.50098s31 2.83398 47 3.50098
c11.333 0.666992 22.833 1 34.5 1h34.5h36c12.667 0 25.334 -0.333008 38.001 -1c16 -1.33301 31.833 -3 47.5 -5s30.167 -5 43.5 -9c25.333 -8 44.333 -20 57 -36s22 -36.667 28 -62c4.66699 -22 7.5 -44 8.5 -66s1.5 -44 1.5 -66c0 -21.333 -0.833008 -42.833 -2.5 -64.5
s-4.16699 -43.167 -7.5 -64.5c-4 -26 -11.5 -46.167 -22.5 -60.5s-29.833 -21.5 -56.5 -21.5h-3.5h-3.5c-16.667 0.666992 -32.334 5.33398 -47.001 14.001s-23.667 22 -27 40c-8.66699 -20 -22.167 -34 -40.5 -42s-37.5 -12.667 -57.5 -14
c-4 -0.666992 -7.83301 -1 -11.5 -1h-10.5c-58.667 0 -94.667 16.667 -108 50s-20 74.666 -20 123.999c0 52.667 7.83301 93.834 23.5 123.501s52.834 44.5 111.501 44.5c20.667 0 40.5 -2.83301 59.5 -8.5s33.833 -18.167 44.5 -37.5v45v0zM410.002 330.995
c0 34.667 -6.33203 60.165 -18.999 76.498s-37.334 24.5 -74.001 24.5h-12c-4 0 -8 -0.333008 -12 -1c-11.333 -0.666992 -22.333 -3 -33 -7s-18.667 -11.667 -24 -23c-4 -8 -6.83301 -17 -8.5 -27s-2.83398 -20 -3.50098 -30v-13v-12v-22
c0 -7.33301 0.166992 -15.166 0.5 -23.499s0.833008 -16.833 1.5 -25.5c1.33301 -10.667 3.5 -21.167 6.5 -31.5s7.16699 -19.166 12.5 -26.499c6 -7.33301 13.333 -12 22 -14s17.667 -3.33301 27 -4h5.5h5.5c47.333 0 76.333 9 87 27s16.334 47.333 17.001 88l1 44v0z" />
    <glyph glyph-name="A" unicode="A" horiz-adv-x="609" 
d="M473 141h-337l-51 -141h-80l243 667h107l249 -667h-79l-52 141v0zM451 202l-148 410l-147 -410h295v0z" />
    <glyph glyph-name="B" unicode="B" horiz-adv-x="616" 
d="M63 0v666.999h321c59.333 -0.666992 102.833 -12.667 130.5 -36s41.5 -66.666 41.5 -129.999c0 -38 -4.83301 -69.5 -14.5 -94.5s-33.5 -44.167 -71.5 -57.5c44 -12 72.667 -30.5 86 -55.5s20 -59.167 20 -102.5c0 -60 -12 -106.833 -36 -140.5s-69.667 -50.5 -137 -50.5
h-340v0zM138 63.999l206 0.000976562c57.333 -0.666992 97.333 5.16602 120 17.499s34 47.5 34 105.5c0 34.667 -5.5 63.5 -16.5 86.5s-37.5 34.5 -79.5 34.5l-24 1h-240v-245v0zM138 376l211 -0.000976562c49.333 -0.666992 83.333 7 102 23s28 48 28 96
c0 40.667 -7.16699 68.334 -21.5 83.001s-41.5 22 -81.5 22l-238 1v-225v0z" />
    <glyph glyph-name="C" unicode="C" horiz-adv-x="591" 
d="M494 226l74.0029 -0.000976562c0 -5.33301 0.166992 -10.666 0.5 -15.999s0.5 -10.333 0.5 -15c0 -5.33301 0.166992 -10.5 0.5 -15.5s0.5 -10.167 0.5 -15.5c0 -48.667 -11.5 -87.334 -34.5 -116.001s-60.5 -45 -112.5 -49c-18 -1.33301 -36 -2.16602 -54 -2.49902
s-36 -0.5 -54 -0.5h-93c-91.333 5.33301 -145 38.166 -161 98.499s-24.333 125.833 -25 196.5v7.5v7.5v13.5v13.5v105c0 62.667 11.167 113.834 33.5 153.501s67.833 63.167 136.5 70.5c10.667 1.33301 21.5 2.5 32.5 3.5s21.833 1.83301 32.5 2.5s21.5 1 32.5 1h32.5
c89.333 0 148 -12.5 176 -37.5s44.333 -83.167 49 -174.5l-74 1c0 49.333 -6 85.666 -18 108.999s-45.667 35 -101 35c-23.333 0 -46.833 -0.333008 -70.5 -1s-47.167 -2 -70.5 -4c-49.333 -3.33301 -80.5 -18.166 -93.5 -44.499s-19.5 -63.166 -19.5 -110.499v-11l1 -107
v-35c0 -11.333 0.166992 -22.833 0.5 -34.5s0.833008 -23.5 1.5 -35.5c1.33301 -22 3.66602 -43 6.99902 -63s9 -37.333 17 -52c8 -14 20.333 -24 37 -30s34.334 -9.66699 53.001 -11c7.33301 -0.666992 14.666 -1.16699 21.999 -1.5s14.333 -0.5 21 -0.5
c21.333 0 42.5 0.166992 63.5 0.5s41.833 1.5 62.5 3.5c29.333 2.66699 52.166 9.66699 68.499 21s25.166 32.666 26.499 63.999v18.5v19.5c-0.666992 6 -1 12.167 -1 18.5v18.5v1z" />
    <glyph glyph-name="D" unicode="D" horiz-adv-x="652" 
d="M63 0l0.000976562 666.998h308c100 -0.666992 165.667 -25.167 197 -73.5s47 -119.166 47 -212.499v-63c0 -83.333 -11.333 -157.166 -34 -221.499s-86.334 -96.5 -191.001 -96.5h-327v0zM137.001 64.998l218 0.00195312c8 -0.666992 16.5 -1 25.5 -1
s18.167 0.666992 27.5 2c18 1.33301 35.5 4.83301 52.5 10.5s30.833 15.5 41.5 29.5c12 15.333 20.667 33.666 26 54.999s8.66602 43.666 9.99902 66.999c0.666992 10.667 1.16699 21.167 1.5 31.5s0.5 20.5 0.5 30.5v34c0 26 -0.333008 52.167 -1 78.5
s-2.66699 52.5 -6 78.5c-6.66699 51.333 -24.667 83.833 -54 97.5s-65.666 20.5 -108.999 20.5l-233 1v-535v0z" />
    <glyph glyph-name="E" unicode="E" horiz-adv-x="498" 
d="M110 600v-226h340v-63h-340v-247h355v-64h-428v667h428v-67h-355v0z" />
    <glyph glyph-name="F" unicode="F" horiz-adv-x="488" 
d="M139 600v-232h324v-63h-324v-305h-76v667h408v-67h-332v0z" />
    <glyph glyph-name="G" unicode="G" horiz-adv-x="619" 
d="M306 331l286.004 0.00195312c1.33301 -12.667 2 -25 2 -37v-36v-47c0 -51.333 -7.33301 -97.833 -22 -139.5s-53.334 -65.5 -116.001 -71.5c-22.667 -2.66699 -45.334 -4.33398 -68.001 -5.00098s-45.667 -1 -69 -1c-106.667 0 -179.5 15.833 -218.5 47.5
s-58.5 98.834 -58.5 201.501v46c0 15.333 0.333008 30.666 1 45.999v45v46c0 87.333 16.5 150 49.5 188s93.833 57 182.5 57h40c13.333 0 26.666 -0.333008 39.999 -1c13.333 0 26.666 -0.166992 39.999 -0.5s26.666 -0.5 39.999 -0.5c57.333 -2 97.833 -17.667 121.5 -47
s35.5 -71.333 35.5 -126v-24h-74c0 39.333 -5.16699 70.333 -15.5 93s-38.166 35 -83.499 37c-22.667 1.33301 -45.5 2.16602 -68.5 2.49902s-46.167 0.5 -69.5 0.5c-70.667 0 -114.834 -10.833 -132.501 -32.5s-27.167 -71.834 -28.5 -150.501l-1 -86l1 -95
c0 -40.667 4.33301 -78.167 13 -112.5s37.334 -55.166 86.001 -62.499c8.66699 -1.33301 17.5 -2.33301 26.5 -3s17.833 -1 26.5 -1c8.66699 -0.666992 17.5 -1 26.5 -1h26.5l39 1c64 -0.666992 105.667 7.5 125 24.5s29 56.833 29 119.5v60h-212v65v0z" />
    <glyph glyph-name="H" unicode="H" horiz-adv-x="667" 
d="M604 667v-667h-76v308h-390v-308h-74v667h74v-295h390v295h76v0z" />
    <glyph glyph-name="I" unicode="I" horiz-adv-x="203" 
d="M139 667v-667h-76v667h76v0z" />
    <glyph glyph-name="J" unicode="J" horiz-adv-x="502" 
d="M438 667v-484.002c0 -68 -14.167 -116.333 -42.5 -145s-77.833 -43 -148.5 -43c-66.667 0 -120.167 8.33301 -160.5 25s-60.5 64.334 -60.5 143.001v39.5c0 13 0.333008 26.167 1 39.5l74 1v-57c0 -47.333 6 -80.166 18 -98.499s43 -27.5 93 -27.5
c57.333 0 97 7.5 119 22.5s33 52.167 33 111.5v473h74v0z" />
    <glyph glyph-name="K" unicode="K" horiz-adv-x="603" 
d="M139 667v-291h66l272 291h99l-305 -323l341 -344h-102l-305 309h-66v-309h-76v667h76v0z" />
    <glyph glyph-name="L" unicode="L" horiz-adv-x="485" 
d="M143 667v-598h339v-69h-418v667h79v0z" />
    <glyph glyph-name="M" unicode="M" horiz-adv-x="858" 
d="M795 667v-667h-76v613l-252 -613h-76l-254 607v-607h-73v667h129l235 -571l236 571h131v0z" />
    <glyph glyph-name="N" unicode="N" horiz-adv-x="696" 
d="M633 667v-667h-122l-375 603v-603h-73v667h122l375 -609v609h73v0z" />
    <glyph glyph-name="O" unicode="O" horiz-adv-x="596" 
d="M37 322v39.001c0 90 9.16699 164.5 27.5 223.5s81.5 88.5 189.5 88.5l33 1c90 -0.666992 158 -12.334 204 -35.001s69 -86.334 69 -191.001v-118.5c0 -39.667 -0.666992 -79.167 -2 -118.5c-2 -81.333 -18.833 -138.166 -50.5 -170.499s-89.5 -48.5 -173.5 -48.5h-7.5
h-7.5h-7.5h-7.5c-5.33301 0.666992 -10.333 1 -15 1h-14c-75.333 0 -132.5 11.667 -171.5 35s-60.833 77.333 -65.5 162c-0.666992 22 -1 44 -1 66v65v1zM113 325.001l1 -107.001c1.33301 -65.333 11.5 -108.666 30.5 -129.999s62.167 -32 129.5 -32
c75.333 0 128.666 7.83301 159.999 23.5s48 64.167 50 145.5c0 18 0.166992 36.167 0.5 54.5s0.5 36.833 0.5 55.5v55.5v54.5c0 82 -14.5 130 -43.5 144s-79.167 21 -150.5 21l-25 1c-58.667 -0.666992 -98.167 -10 -118.5 -28s-31.166 -63.333 -32.499 -136l-2 -122v0z" />
    <glyph glyph-name="P" unicode="P" horiz-adv-x="588" 
d="M63 0l-0.00195312 666.996h277h34c6.66699 -0.666992 13.334 -1 20.001 -1s13.667 -0.333008 21 -1c16.667 -1.33301 32.834 -4.16602 48.501 -8.49902s29.834 -12.166 42.501 -23.499c19.333 -17.333 32.666 -37.666 39.999 -60.999s12 -47.666 14 -72.999
c0 -6.66699 0.166992 -13.5 0.5 -20.5s0.5 -13.833 0.5 -20.5c0 -8 -0.166992 -16.167 -0.5 -24.5s-0.833008 -16.833 -1.5 -25.5c-2 -18.667 -6 -36.834 -12 -54.501s-15.667 -33.167 -29 -46.5c-21.333 -21.333 -45.5 -34.166 -72.5 -38.499s-54.5 -6.83301 -82.5 -7.5
h-1.5h-1.5c-5.33301 0 -10.5 -0.166992 -15.5 -0.5s-10.167 -0.5 -15.5 -0.5l-193 1v-261h-73v0zM135.998 325.996l178 0.00292969c59.333 -0.666992 102.333 5.66602 129 18.999s40 51.666 40 114.999c0 47.333 -6 82.666 -18 105.999s-43 35 -93 35h-8.5h-8.5
c-2.66699 -0.666992 -5.5 -1 -8.5 -1h-8.5l-202 1v-275v0z" />
    <glyph glyph-name="Q" unicode="Q" horiz-adv-x="655" 
d="M647 81l-30.9971 -51.0029l-50 34c-22 -27.333 -48.5 -45.166 -79.5 -53.499s-63.167 -13.166 -96.5 -14.499c-7.33301 -0.666992 -15 -1 -23 -1h-24c-88.667 0 -160 9.5 -214 28.5s-83.667 81.833 -89 188.5c-0.666992 21.333 -1.16699 42.5 -1.5 63.5
s-0.5 42.167 -0.5 63.5c0 131.333 15.167 219.333 45.5 264s113.166 67 248.499 67l17 1c8.66699 -0.666992 17.667 -1 27 -1s18.666 -0.333008 27.999 -1c16 -0.666992 31.833 -2.16699 47.5 -4.5s30.167 -5.83301 43.5 -10.5c35.333 -12 60.833 -33.5 76.5 -64.5
s25.5 -63.833 29.5 -98.5c1.33301 -8.66699 2.16602 -17.167 2.49902 -25.5s0.5 -16.5 0.5 -24.5v-106l1 -94v-16.5v-15.5c-0.666992 -15.333 -2 -30.666 -4 -45.999s-5.33301 -30.333 -10 -45l56 -37v0zM332.003 289.997l191.999 -126.999l2 12.5
c0.666992 4.33301 1 8.83301 1 13.5c0.666992 4 1 8.16699 1 12.5v13.5v43.5c0 14.333 0.333008 28.833 1 43.5v43.5v43.5c0 16 -0.166992 32 -0.5 48s-1.16602 31.667 -2.49902 47c-6 56 -21.667 90.167 -47 102.5s-58.666 18.5 -99.999 18.5l-75 1
c-66 -0.666992 -114.333 -8.33398 -145 -23.001s-46 -62.667 -46 -144v-50.5c0 -17 0.333008 -33.833 1 -50.5l1 -105c0.666992 -83.333 15.5 -133.166 44.5 -149.499s81.167 -24.5 156.5 -24.5h12.5h13.5c4.66699 -0.666992 9.16699 -1 13.5 -1h13.5
c6.66699 0 13.667 0.166992 21 0.5s14.666 0.833008 21.999 1.5c17.333 1.33301 34.333 5.16602 51 11.499s30.667 16.5 42 30.5l-208 136l35 52v0z" />
    <glyph glyph-name="R" unicode="R" horiz-adv-x="623" 
d="M63 0l-0.00195312 667.001h316c69.333 -0.666992 119.5 -15.334 150.5 -44.001s46.5 -78.667 46.5 -150c0 -44.667 -5 -82.5 -15 -113.5s-44 -51.833 -102 -62.5c38.667 -2.66699 66.334 -15.5 83.001 -38.5s25 -52.833 25 -89.5v-169h-77v153
c0 43.333 -10.167 73.333 -30.5 90s-52.166 25 -95.499 25l-227 1v-269h-74v0zM136.998 331.001l216.999 0.000976562c50.667 -0.666992 87.334 7.16602 110.001 23.499s34 49.833 34 100.5c0 48 -6 84.167 -18 108.5s-45.333 36.5 -100 36.5l-243 1v-270v0z" />
    <glyph glyph-name="S" unicode="S" horiz-adv-x="560" 
d="M520 484l-72.9971 -0.00976562c-2.66699 48.667 -12 81.167 -28 97.5s-49.667 24.5 -101 24.5l-36 1c-8.66699 -0.666992 -18.5 -1.16699 -29.5 -1.5s-22.5 -0.833008 -34.5 -1.5c-14 -1.33301 -27.667 -3.33301 -41 -6s-24.333 -6.66699 -33 -12
c-10.667 -6.66699 -18.5 -15.667 -23.5 -27s-8.16699 -23 -9.5 -35c-0.666992 -5.33301 -1.16699 -10.666 -1.5 -15.999s-0.5 -10.333 -0.5 -15c0 -36.667 5.83301 -64.5 17.5 -83.5s38.834 -29.833 81.501 -32.5c14.667 -1.33301 29 -2.16602 43 -2.49902s28 -0.5 42 -0.5
c66 -1.33301 122.5 -9.83301 169.5 -25.5s70.5 -67.167 70.5 -154.5c0 -50.667 -7.5 -94.167 -22.5 -130.5s-52.833 -57.5 -113.5 -63.5c-10.667 -0.666992 -21.334 -1.16699 -32.001 -1.5s-21 -0.833008 -31 -1.5c-10.667 -0.666992 -21.334 -1 -32.001 -1h-32
c-69.333 0 -126.666 8.83301 -171.999 26.5s-68 68.5 -68 152.5v8c0 2.66699 0.333008 5.33398 1 8.00098c0 2.66699 0.166992 5.33398 0.5 8.00098s0.5 5.33398 0.5 8.00098l72 1c0 -61.333 8.5 -101.333 25.5 -120s56.167 -28 117.5 -28l63 1
c55.333 -0.666992 93.666 5.83301 114.999 19.5s32 48.834 32 105.501c0 44.667 -6.5 74.334 -19.5 89.001s-41.167 23 -84.5 25c-10 0.666992 -20 1.16699 -30 1.5s-20 0.5 -30 0.5c-70 2.66699 -130.667 12.334 -182 29.001s-77 69.334 -77 158.001
c0 80.667 20.667 131 62 151s96.666 30 165.999 30l18 1c69.333 -0.666992 126.666 -9.16699 171.999 -25.5s68 -67.166 68 -152.499v-9v0z" />
    <glyph glyph-name="T" unicode="T" horiz-adv-x="515" 
d="M297 596v-596h-77v596h-217v71h508v-71h-214v0z" />
    <glyph glyph-name="U" unicode="U" horiz-adv-x="655" 
d="M517 667h75.001v-467c0 -69.333 -13 -119.833 -39 -151.5s-76.333 -48.834 -151 -51.501c-12.667 -0.666992 -25.167 -1.16699 -37.5 -1.5s-24.833 -0.5 -37.5 -0.5c-81.333 0 -145.5 9.83301 -192.5 29.5s-70.5 77.834 -70.5 174.501v468h76v-467
c0 -58 10.167 -95.833 30.5 -113.5s58.5 -26.5 114.5 -26.5l73 1c59.333 -0.666992 100.666 7 123.999 23s35 54.333 35 115v468v0z" />
    <glyph glyph-name="V" unicode="V" horiz-adv-x="572" 
d="M496 667h81l-236 -667h-108l-238 667h80l213 -607l208 607v0z" />
    <glyph glyph-name="W" unicode="W" horiz-adv-x="998" 
d="M996 667l-210 -667h-114l-175 600l-179 -600h-112l-205 667h77l183 -609l180 609h111l179 -609l187 609h78v0z" />
    <glyph glyph-name="X" unicode="X" horiz-adv-x="581" 
d="M569 667l-212 -322l229 -345h-89l-203 306l-207 -306h-92l238 345l-219 322h91l189 -285l187 285h88v0z" />
    <glyph glyph-name="Y" unicode="Y" horiz-adv-x="562" 
d="M567 667l-252 -388v-279h-75v279l-245 388h87l198 -312l198 312h89v0z" />
    <glyph glyph-name="Z" unicode="Z" horiz-adv-x="567" 
d="M535 667v-71l-420 -530h429v-66h-520v66l418 530h-406v71h499v0z" />
    <glyph glyph-name="bracketleft" unicode="[" horiz-adv-x="277" 
d="M55 667h170v-57h-96v-653h96v-57h-170v767v0z" />
    <glyph glyph-name="backslash" unicode="\" horiz-adv-x="646" 
d="M70 667h56l514 -765h-54l-516 765v0z" />
    <glyph glyph-name="bracketright" unicode="]" horiz-adv-x="277" 
d="M222 -100h-170v57h96v652h-96v58h170v-767v0z" />
    <glyph glyph-name="asciicircum" unicode="^" horiz-adv-x="500" 
d="M105 374h-73l174 294h89l174 -294h-74l-145 241l-145 -241v0z" />
    <glyph glyph-name="underscore" unicode="_" horiz-adv-x="500" 
d="M0 -72h500v-51h-500v51v0z" />
    <glyph glyph-name="grave" unicode="`" horiz-adv-x="500" 
d="M202 660l132 -100l-23 -36l-144 88l35 48v0z" />
    <glyph glyph-name="a" unicode="a" horiz-adv-x="507" 
d="M131 332l-71.999 0.00292969c0 64 17.667 102.5 53 115.5s79.333 19.5 132 19.5c64.667 0 114.5 -9 149.5 -27s52.5 -63.667 52.5 -137v-303h-65l3 48c-20 -26 -43.5 -41.833 -70.5 -47.5s-55.833 -8.5 -86.5 -8.5c-57.333 0 -102.333 8.5 -135 25.5s-49 57.5 -49 121.5
c0 62 17.167 101 51.5 117s77.833 24 130.5 24c7.33301 0 15 -0.166992 23 -0.5s16 -0.833008 24 -1.5c12 -0.666992 23.833 -2.16699 35.5 -4.5s22.834 -5.5 33.501 -9.5c7.33301 -2.66699 13.666 -6.83398 18.999 -12.501s10 -12.167 14 -19.5v57c0 56.667 -8 92 -24 106
s-52.667 21 -110 21c-5.33301 0 -11.666 -0.166992 -18.999 -0.5s-14.333 -0.833008 -21 -1.5c-10 -0.666992 -19.333 -2.33398 -28 -5.00098s-16 -6.33398 -22 -11.001c-6.66699 -4.66699 -11.334 -10.5 -14.001 -17.5s-4.33398 -14.5 -5.00098 -22.5
c-0.666992 -2 -1 -4.16699 -1 -6.5v-6.5v-6.5c0 -2.33301 0.333008 -4.83301 1 -7.5v1zM115.001 148.003c0 -41.333 8.33203 -68.501 24.999 -81.501s44.334 -19.5 83.001 -19.5h21c7.33301 0 14.666 0.333008 21.999 1c28 1.33301 53.667 7.5 77 18.5s35 33.833 35 68.5
c0 42 -12.667 67.667 -38 77s-55.666 14 -90.999 14l-17 1c-6 -0.666992 -12.333 -1 -19 -1s-13.334 -0.333008 -20.001 -1c-11.333 -1.33301 -22.5 -3.5 -33.5 -6.5s-20.167 -7.83301 -27.5 -14.5c-5.33301 -4 -9.16602 -9.33301 -11.499 -16s-3.83301 -13.667 -4.5 -21
c-0.666992 -3.33301 -1 -6.66602 -1 -9.99902v-10v1z" />
    <glyph glyph-name="b" unicode="b" horiz-adv-x="511" 
d="M60 0v667h69v-259c11.333 22.667 27.833 38.5 49.5 47.5s44.5 14.5 68.5 16.5c4 0.666992 8 1 12 1h12c83.333 0 136.333 -19.833 159 -59.5s34 -97.167 34 -172.5c0 -72 -9.66699 -130.833 -29 -176.5s-73 -68.5 -161 -68.5h-3.5h-3.5
c-27.333 0.666992 -53.833 5.16699 -79.5 13.5s-46.5 24.5 -62.5 48.5l4 -58h-69v0zM131 247v-26.001c0 -57.333 6.83301 -99.833 20.5 -127.5s52.5 -41.5 116.5 -41.5c38 0 66 6.33301 84 19s29.333 38.667 34 78c2 15.333 3.33301 30.5 4 45.5s1 30.167 1 45.5
c0 56.667 -5.5 100.334 -16.5 131.001s-49.5 46 -115.5 46c-60 0 -96.333 -15 -109 -45s-19 -72 -19 -126v1z" />
    <glyph glyph-name="c" unicode="c" horiz-adv-x="485" 
d="M384 169l69.002 0.00195312c0 -72.667 -15 -119.834 -45 -141.501s-80.333 -32.5 -151 -32.5c-98.667 0 -157.834 20.167 -177.501 60.5s-29.5 104.166 -29.5 191.499c0 79.333 13.667 136.5 41 171.5s82.333 52.5 165 52.5c51.333 0 95.666 -8.16699 132.999 -24.5
s56 -55.5 56 -117.5v-4v-3c-0.666992 -1.33301 -1 -2.66602 -1 -3.99902v-4l-68 1c0 41.333 -8.5 68.333 -25.5 81s-45.833 19 -86.5 19c-62 0 -101 -9.83301 -117 -29.5s-24 -62.834 -24 -129.501v-46c0 -53.333 6 -93.166 18 -119.499s48.333 -39.5 109 -39.5
c52 0 87.333 6.16699 106 18.5s28 45.166 28 98.499v1z" />
    <glyph glyph-name="d" unicode="d" horiz-adv-x="510" 
d="M450 667l-0.000976562 -667.001h-69l4 60c-17.333 -28 -39.166 -46.167 -65.499 -54.5s-55.166 -12.5 -86.499 -12.5c-84.667 0 -136.834 22.5 -156.501 67.5s-29.5 104.5 -29.5 178.5c0 67.333 10.167 122.833 30.5 166.5s68.833 65.5 145.5 65.5h22
c7.33301 0 15 -0.333008 23 -1c22.667 -2 44.667 -7.16699 66 -15.5s37 -24.166 47 -47.499v260h69v0zM118.999 240.999v-26.499c0 -8.33301 0.333008 -16.833 1 -25.5c0.666992 -12 1.66699 -23.667 3 -35s3.33301 -22.333 6 -33
c7.33301 -30.667 21.666 -50.334 42.999 -59.001s46 -13 74 -13c64.667 0 103.334 15.167 116.001 45.5s19 73.5 19 129.5s-5.66699 101.833 -17 137.5s-51.333 53.5 -120 53.5c-62.667 0 -99.167 -15.5 -109.5 -46.5s-15.5 -73.833 -15.5 -128.5v1z" />
    <glyph glyph-name="e" unicode="e" horiz-adv-x="502" 
d="M384 142l71.9971 -0.00195312c0 -69.333 -18.333 -111.333 -55 -126s-84.667 -22 -144 -22c-87.333 0 -144 16.667 -170 50s-39 92.333 -39 177c0 81.333 10 143.666 30 186.999s76.333 65 169 65c87.333 0 143.833 -14.667 169.5 -44s38.834 -87.333 39.501 -174v-34
h-336c0 -52.667 5.5 -94.667 16.5 -126s47.833 -47 110.5 -47l19 1c6.66699 -0.666992 13.834 -1 21.501 -1s15.834 0.666992 24.501 2c10 0.666992 19.667 2.33398 29 5.00098s17.333 6.33398 24 11.001s11.167 10.834 13.5 18.501s3.83301 15.5 4.5 23.5
c0.666992 2.66699 1 5.66699 1 9v9v16v0zM385.997 274.998c0 57.333 -6.83301 95.667 -20.5 115s-51.167 29 -112.5 29c-54 0 -89.5 -10 -106.5 -30s-25.5 -58.333 -25.5 -115l265 1v0z" />
    <glyph glyph-name="f" unicode="f" horiz-adv-x="269" 
d="M272 467l-0.00195312 -57h-123v-410h-71v410h-71v57h71v69c0 53.333 12.333 89.666 37 108.999s62.334 29 113.001 29c4 0 7.83301 -0.166992 11.5 -0.5s7.16699 -0.5 10.5 -0.5s6.83301 -0.166992 10.5 -0.5s7.5 -0.5 11.5 -0.5v-57
c-8.66699 0.666992 -17.167 1 -25.5 1h-25.5c-27.333 0 -46.166 -6.16699 -56.499 -18.5s-15.5 -31.166 -15.5 -56.499v-74h123v0z" />
    <glyph glyph-name="g" unicode="g" horiz-adv-x="509" 
d="M452 466l0.00195312 -495.999c0 -72.667 -16.833 -120.5 -50.5 -143.5s-84.834 -34.5 -153.501 -34.5c-60 0 -105.5 8.66699 -136.5 26s-46.5 59.666 -46.5 126.999h65c2 -42.667 11 -69.334 27 -80.001s43.667 -16 83 -16c46 0 81.667 6 107 18s38 44.333 38 97v93
c-12.667 -25.333 -30.834 -42 -54.501 -50s-48.167 -12.333 -73.5 -13c-4 -0.666992 -8.33301 -1 -13 -1h-13c-75.333 0 -124.5 20 -147.5 60s-34.5 93.333 -34.5 160c0 74 9.16699 135.5 27.5 184.5s71.833 73.5 160.5 73.5c31.333 0 60 -4.16699 86 -12.5
s47.667 -26.166 65 -53.499l-3 61h67v0zM122.002 234.001l-0.00195312 -17c0 -53.333 5.66699 -94.5 17 -123.5s48.333 -43.5 111 -43.5c36.667 0 66.334 7.16699 89.001 21.5s35.667 41.166 39 80.499c1.33301 13.333 2.33301 26.833 3 40.5s1 27.167 1 40.5
c0 54.667 -5.66699 98.334 -17 131.001s-49.666 49 -114.999 49c-52 0 -86.333 -9.83301 -103 -29.5s-25 -57.167 -25 -112.5v-37v0z" />
    <glyph glyph-name="h" unicode="h" horiz-adv-x="513" 
d="M129 667v-253.001c15.333 28 36.333 45.167 63 51.5s55 9.5 85 9.5c65.333 0 111 -12 137 -36s39 -69.667 39 -137v-302h-71v303v2.5v3.5c0 0.666992 0.166992 1.66699 0.5 3s0.5 2.33301 0.5 3c0 43.333 -8.5 71.5 -25.5 84.5s-45.833 19.5 -86.5 19.5
c-58.667 0 -97 -11.667 -115 -35s-27 -62.666 -27 -117.999v-266h-69v667h69v0z" />
    <glyph glyph-name="i" unicode="i" horiz-adv-x="191" 
d="M131 467v-467h-71v467h71v0zM131 667v-77h-71v77h71v0z" />
    <glyph glyph-name="j" unicode="j" horiz-adv-x="186" 
d="M124 467l-0.00292969 -510c0 -36 -6 -68 -18 -96s-39.667 -42 -83 -42c-5.33301 0 -10.666 0.333008 -15.999 1s-10.666 1.66699 -15.999 3l-1 50h3h2c0.666992 0 1.33398 -0.166992 2.00098 -0.5s1.33398 -0.5 2.00098 -0.5c27.333 0 43.666 8.33301 48.999 25
s8 36.667 8 60v510h68v0zM125.997 667v-77h-71v77h71v0z" />
    <glyph glyph-name="k" unicode="k" horiz-adv-x="433" 
d="M131 667v-388h28l168 188h86l-199 -215l235 -252h-92l-198 225h-28v-225h-71v667h71v0z" />
    <glyph glyph-name="l" unicode="l" horiz-adv-x="191" 
d="M131 667v-667h-71v667h71v0z" />
    <glyph glyph-name="m" unicode="m" horiz-adv-x="817" 
d="M60 467l67.002 0.00292969v-70c15.333 28.667 37 48.5 65 59.5s57.333 16.5 88 16.5c5.33301 0 10.5 -0.166992 15.5 -0.5s10.167 -0.5 15.5 -0.5c25.333 -2.66699 49.166 -9.5 71.499 -20.5s37.833 -29.5 46.5 -55.5c17.333 29.333 40 49.666 68 60.999s58.333 17 91 17
c61.333 0 104.833 -12.667 130.5 -38s38.5 -68.333 38.5 -129v-307h-73v314c0 39.333 -7.16699 66.166 -21.5 80.499s-41.833 21.5 -82.5 21.5c-6.66699 0 -13.834 -0.333008 -21.501 -1s-15.5 -1.66699 -23.5 -3c-16.667 -2.66699 -32.667 -7.83398 -48 -15.501
s-26.333 -19.167 -33 -34.5c-4 -8.66699 -6.66699 -18 -8 -28s-2.33301 -19.667 -3 -29v-10v-10v-12v-273h-71v308c-2 42.667 -9.33301 71.167 -22 85.5s-41.667 21.5 -87 21.5c-52 0 -87.667 -12.667 -107 -38s-29 -62 -29 -110v-267h-67v467v0z" />
    <glyph glyph-name="n" unicode="n" horiz-adv-x="515" 
d="M60 467l65.001 -0.000976562v-60c18 28 41 46.5 69 55.5s58 13.5 90 13.5c63.333 0 107.666 -12.167 132.999 -36.5s38 -68.166 38 -131.499v-308h-71v303c0 46 -7.33301 76.667 -22 92s-45.667 23 -93 23c-44.667 0 -79 -10.333 -103 -31s-36 -54.667 -36 -102v-285h-70
v467v0z" />
    <glyph glyph-name="o" unicode="o" horiz-adv-x="507" 
d="M54 246c0 78.667 11.833 136.333 35.5 173s78.167 55 163.5 55c89.333 0 147.333 -15.5 174 -46.5s40 -90.5 40 -178.5c0 -76.667 -8.16699 -138.667 -24.5 -186s-72.5 -71 -168.5 -71c-83.333 0 -140.833 13 -172.5 39s-47.5 82.667 -47.5 170v45v0zM126 246.999
l-0.00195312 -38.998v-22.5c0 -7.66699 0.333008 -15.167 1 -22.5c1.33301 -19.333 4 -37.666 8 -54.999s10.333 -30.666 19 -39.999c7.33301 -6.66699 16.333 -11.334 27 -14.001s22 -4.33398 34 -5.00098h7.5h7.5l32 1c40.667 -0.666992 71.834 4.66602 93.501 15.999
s33.834 39 36.501 83c0.666992 9.33301 1.16699 18.333 1.5 27s0.5 17.667 0.5 27c0.666992 8.66699 1 17.5 1 26.5v26.5c0 57.333 -5.33301 98.333 -16 123s-44.667 37 -102 37l-15 1c-60.667 -0.666992 -98.5 -10.334 -113.5 -29.001s-22.5 -61 -22.5 -127v-14v0z" />
    <glyph glyph-name="p" unicode="p" horiz-adv-x="510" 
d="M60 466l69 -0.00292969l-3 -59c18 26 39.667 43.333 65 52s53.333 13 84 13c84 0 136.333 -21.167 157 -63.5s31 -100.166 31 -173.499c0 -71.333 -9.5 -129.5 -28.5 -174.5s-69.5 -67.5 -151.5 -67.5h-6h-6c-28 0.666992 -54.667 4.83398 -80 12.501
s-46 23.834 -62 48.501v-255h-69v667v0zM131 248.997v-35c0 -50 6.83301 -89.833 20.5 -119.5s49.5 -44.5 107.5 -44.5c63.333 0 101 14.167 113 42.5s18 69.5 18 123.5v29c0 54.667 -5.5 96.5 -16.5 125.5s-48.167 43.5 -111.5 43.5c-61.333 0 -98.5 -13.167 -111.5 -39.5
s-19.5 -68.5 -19.5 -126.5v1z" />
    <glyph glyph-name="q" unicode="q" horiz-adv-x="511" 
d="M454 466l0.000976562 -666h-70v253c-10.667 -21.333 -26.167 -36 -46.5 -44s-41.5 -13 -63.5 -15c-6 -0.666992 -12 -1.16699 -18 -1.5s-12 -0.5 -18 -0.5c-84 0 -136.5 21.5 -157.5 64.5s-31.5 101.167 -31.5 174.5c0 70 10.333 127.333 31 172s71.667 67 153 67
c31.333 0 60.166 -3.5 86.499 -10.5s48.833 -24.167 67.5 -51.5l-3 58h70v0zM122.001 244l0.000976562 -36c0 -54 7 -94.167 21 -120.5s51.333 -39.5 112 -39.5s97 16.167 109 48.5s18 73.5 18 123.5v10c0 62 -5.83301 108.167 -17.5 138.5s-51.834 45.5 -120.501 45.5
c-58 0 -92.833 -16 -104.5 -48s-17.5 -73 -17.5 -123v1z" />
    <glyph glyph-name="r" unicode="r" horiz-adv-x="393" 
d="M60 467h68l-3 -54c14 22.667 32.167 39 54.5 49s46.833 15 73.5 15c47.333 0 81.833 -11.333 103.5 -34s32.5 -57.334 32.5 -104.001v-13.5c0 -4.33301 -0.333008 -9.16602 -1 -14.499l-68 1c0.666992 4.66699 1 10 1 16v18c0 28.667 -6.83301 48 -20.5 58
s-34.167 15 -61.5 15c-36 0 -63.167 -9 -81.5 -27s-27.5 -45.333 -27.5 -82v-24v-286h-70v467v0z" />
    <glyph glyph-name="s" unicode="s" horiz-adv-x="477" 
d="M426 346l-70.001 -0.00292969c0 24.667 -4 42.334 -12 53.001s-25.333 16.667 -52 18c-12.667 0.666992 -25.5 1 -38.5 1h-39.5h-14.5c-5 0 -10.167 -0.333008 -15.5 -1c-10 -0.666992 -19.667 -2 -29 -4s-17.666 -5.66699 -24.999 -11
c-6 -4.66699 -10 -10.334 -12 -17.001s-3.33301 -13.667 -4 -21v-8v-8c0 -28.667 4.5 -48.167 13.5 -58.5s27.833 -16.166 56.5 -17.499c8.66699 -0.666992 17.5 -1 26.5 -1h26.5c51.333 -0.666992 98 -7 140 -19s63 -50.333 63 -115c0 -68 -18.333 -109 -55 -123
s-84 -21 -142 -21h-8h-8c-47.333 0.666992 -90.5 7.66699 -129.5 21s-58.5 49 -58.5 107v6.5c0 2.33301 0.333008 4.5 1 6.5c0 2 0.166992 4.16699 0.5 6.5s0.5 4.5 0.5 6.5l70 1c0 -43.333 8.16699 -71.166 24.5 -83.499s44.833 -18.5 85.5 -18.5l17 1
c6.66699 -0.666992 14 -0.833984 22 -0.500977s16.333 0.833008 25 1.5c11.333 0.666992 22.666 2.33398 33.999 5.00098s20.666 6.66699 27.999 12c6.66699 4.66699 11.5 11 14.5 19s4.83301 16.333 5.5 25c0.666992 4 1 8 1 12v12c0 36.667 -9.5 58 -28.5 64
s-42.5 9 -70.5 9h-2h-2c-4 0.666992 -8.16699 1 -12.5 1h-13.5c-3.33301 0 -6.66602 0.166992 -9.99902 0.5s-6.66602 0.5 -9.99902 0.5c-48 2 -89.167 8.83301 -123.5 20.5s-51.5 46.834 -51.5 105.501c0 6 0.166992 12.167 0.5 18.5s0.833008 12.833 1.5 19.5
c1.33301 13.333 4.33301 26.166 9 38.499s12.334 22.5 23.001 30.5c11.333 8.66699 24.666 15.334 39.999 20.001s31.333 8 48 10c11.333 1.33301 22.5 2.16602 33.5 2.49902s21.167 0.5 30.5 0.5h26.5c9 0 18.167 -0.333008 27.5 -1c36 -2 68.833 -10 98.5 -24
s44.5 -43 44.5 -87v-4.5v-4.5c-0.666992 -1.33301 -1 -2.66602 -1 -3.99902v-4v1z" />
    <glyph glyph-name="t" unicode="t" horiz-adv-x="325" 
d="M307 467l0.000976562 -57h-180v-286c0 -27.333 4 -46.5 12 -57.5s26 -16.5 54 -16.5c31.333 0 50.166 7.66699 56.499 23s9.5 35.333 9.5 60v32h66c0 -49.333 -7.33301 -90.333 -22 -123s-51.667 -49 -111 -49c-52 0 -87.667 9.33301 -107 28s-29 52.667 -29 102v287h-61
v57h61v112h71v-112h180v0z" />
    <glyph glyph-name="u" unicode="u" horiz-adv-x="507" 
d="M447 467v-467h-65v62c-20 -30.667 -42.833 -49.834 -68.5 -57.501s-56.167 -11.5 -91.5 -11.5c-56 0 -97 13 -123 39s-39 67 -39 123v312h71v-311c0 -41.333 7 -69.333 21 -84s42.333 -22 85 -22c55.333 0 92.333 10.333 111 31s28 57.334 28 110.001v276h71v0z" />
    <glyph glyph-name="v" unicode="v" horiz-adv-x="402" 
d="M405 467l-156 -467h-98l-155 467h71l134 -414l128 414h76v0z" />
    <glyph glyph-name="w" unicode="w" horiz-adv-x="670" 
d="M667 467l-131 -467h-101l-101 417l-101 -417h-103l-127 467h72l107 -420l103 420h100l102 -420l107 420h73v0z" />
    <glyph glyph-name="x" unicode="x" horiz-adv-x="404" 
d="M390 467l-149 -224l167 -243h-85l-121 188l-121 -188h-84l169 243l-151 224h79l108 -171l106 171h82v0z" />
    <glyph glyph-name="y" unicode="y" horiz-adv-x="389" 
d="M392 467l-131.998 -493.998c-1.33301 -4.66699 -2.5 -9.33398 -3.5 -14.001s-2.16699 -9.33398 -3.5 -14.001c-11.333 -39.333 -27.833 -75.166 -49.5 -107.499s-55.834 -48.5 -102.501 -48.5c-5.33301 0 -10.833 0.5 -16.5 1.5s-11.167 2.16699 -16.5 3.5v57
c2 -0.666992 4.16699 -1.16699 6.5 -1.5s4.5 -0.5 6.5 -0.5c2 -0.666992 4.16699 -1 6.5 -1h6.5c24 0 42.167 9.5 54.5 28.5s21.5 39.833 27.5 62.5c3.33301 11.333 6.16602 22.166 8.49902 32.499l6.5 28.5h-25l-169 467h71l146 -416l106 416h72v0z" />
    <glyph glyph-name="z" unicode="z" horiz-adv-x="403" 
d="M44 467h337v-65l-279 -344h279v-58h-360v65l278 347h-255v55v0z" />
    <glyph glyph-name="braceleft" unicode="{" horiz-adv-x="500" 
d="M216 246c23.333 -13.333 38.333 -30.001 45 -50.001s10 -42.333 10 -67v-154c0 -37.333 6.66699 -62.666 20 -75.999s38.333 -20.333 75 -21v-65c-58 0 -101 8 -129 24s-42 57.667 -42 125v160c0 22.667 -3.5 42.334 -10.5 59.001s-22.833 28.667 -47.5 36v60
c23.333 6 38.833 17.167 46.5 33.5s11.5 35.5 11.5 57.5v176c0 55.333 14 91.666 42 108.999s66.333 26 115 26h6.5c2.33301 0 4.83301 -0.333008 7.5 -1v-67c-34 -1.33301 -58.333 -8.33301 -73 -21s-22 -37 -22 -73v-159c0 -26 -3.16699 -48.167 -9.5 -66.5
s-21.5 -33.833 -45.5 -46.5v1z" />
    <glyph glyph-name="bar" unicode="|" horiz-adv-x="500" 
d="M211 666h78v-833h-78v833v0z" />
    <glyph glyph-name="braceright" unicode="}" horiz-adv-x="500" 
d="M284 247c-22.667 12.667 -37.3311 28.8311 -43.998 48.498s-10 41.834 -10 66.501v156c0 36.667 -7 61.667 -21 75s-38.667 20.333 -74 21v66c57.333 -0.666992 100.166 -8.33398 128.499 -23.001s42.5 -57 42.5 -127v-159c0 -24 3.5 -44.333 10.5 -61
s22.833 -28.667 47.5 -36v-58c-23.333 -7.33301 -38.833 -19.166 -46.5 -35.499s-11.5 -35.5 -11.5 -57.5v-174c0 -55.333 -13.5 -91.833 -40.5 -109.5s-65.833 -26.5 -116.5 -26.5h-3.5h-3.5c-1.33301 0 -2.5 0.166992 -3.5 0.5s-2.16699 0.5 -3.5 0.5v68
c34 0.666992 58.333 7.33398 73 20.001s22 37 22 73v160c0 24.667 3.16699 46.167 9.5 64.5s21.166 33.833 44.499 46.5v1z" />
    <glyph glyph-name="asciitilde" unicode="~" horiz-adv-x="500" 
d="M52 261l-42.002 33.002c13.333 27.333 31 52.666 53 75.999s49.667 35 83 35c19.333 0 37.666 -3.83301 54.999 -11.5s34.333 -15.834 51 -24.501c0 -0.666992 0.333008 -1 1 -1s1 -0.333008 1 -1c16.667 -8.66699 33.334 -16.667 50.001 -24s34.334 -11 53.001 -11
s34.5 6.16699 47.5 18.5s24.167 26.166 33.5 41.499c2 2.66699 3.66699 5.16699 5 7.5s2.66602 4.83301 3.99902 7.5l42 -32c-0.666992 -1.33301 -1.16699 -2.5 -1.5 -3.5s-0.833008 -2.16699 -1.5 -3.5c-13.333 -26 -31.333 -50.167 -54 -72.5s-49.667 -33.5 -81 -33.5
c-19.333 0 -37.666 3.83301 -54.999 11.5s-34.666 15.834 -51.999 24.501c-14.667 8.66699 -29.667 16.5 -45 23.5s-31.666 11.5 -48.999 13.5c-24.667 0 -44.334 -7.5 -59.001 -22.5s-27.667 -32.5 -39 -52.5v1z" />
    <glyph glyph-name="endash" unicode="&#xa1;" horiz-adv-x="240" 
d="M80 -200l10 483h64l8 -483h-82v0zM79 376v91h79v-91h-79v0z" />
    <glyph glyph-name="cent" unicode="&#xa2;" horiz-adv-x="613" 
d="M325 491l-0.00292969 -367.001c46 1.33301 75 10.666 87 27.999s18 47.333 18 90l68 1c0 -62 -12.5 -106.833 -37.5 -134.5s-70.167 -41.5 -135.5 -41.5v-70h-57v71c-81.333 1.33301 -131.166 24.5 -149.499 69.5s-27.5 101.833 -27.5 170.5
c0 65.333 10.333 121.166 31 167.499s69.334 69.5 146.001 69.5v66h57v-65c56.667 -1.33301 98.167 -13.666 124.5 -36.999s39.5 -63.666 39.5 -120.999l-68 1c-1.33301 36.667 -7.16602 62.334 -17.499 77.001s-36.5 22.667 -78.5 24v1zM267.997 491.999
c-48.667 -4.66699 -78.001 -19.665 -88.001 -44.998s-15 -61.333 -15 -108v-32v-21.5c0 -7 0.333008 -14.167 1 -21.5c0.666992 -14 1.83398 -27.833 3.50098 -41.5s4.16699 -26.834 7.5 -39.501c7.33301 -24.667 18.5 -40.334 33.5 -47.001s34.167 -10.667 57.5 -12v368v0z
" />
    <glyph glyph-name="sterling" unicode="&#xa3;" horiz-adv-x="613" 
d="M392 323l0.00195312 -62.998h-189v-43c0 -14 0.333008 -28 1 -42c0 -26.667 -3.33301 -48.667 -10 -66s-20.334 -33.666 -41.001 -48.999c-0.666992 -0.666992 -1.5 -1.33398 -2.5 -2.00098s-1.83301 -1.33398 -2.5 -2.00098l432 6v-62h-517v57
c16.667 3.33301 29.834 10 39.501 20s16.5 23.333 20.5 40c2 9.33301 3.33301 18.833 4 28.5l2 29.5v14.5v14.5v56h-83v63h83v102v6.5v6.5c-0.666992 2.66699 -1 5.16699 -1 7.5v6.5c0 86 14 143.833 42 173.5s85 44.5 171 44.5c64.667 0 118.667 -9.33301 162 -28
s65 -66.667 65 -144v-8v-8c0 -2.66699 -0.166992 -5.33398 -0.5 -8.00098s-0.5 -5.33398 -0.5 -8.00098l-72 1c0 51.333 -7.33301 87.5 -22 108.5s-50 31.5 -106 31.5l-26 1c-7.33301 -0.666992 -15.333 -1 -24 -1s-17.334 -0.666992 -26.001 -2
c-12.667 -1.33301 -24.834 -3.66602 -36.501 -6.99902s-21.167 -8.33301 -28.5 -15c-7.33301 -7.33301 -12.5 -16.333 -15.5 -27s-5.16699 -21.667 -6.5 -33c0 -4.66699 -0.166992 -9.16699 -0.5 -13.5s-0.5 -8.5 -0.5 -12.5v-3.5v-3.5v-4.5v-4.5v-23v-135h189v0z" />
    <glyph glyph-name="Idieresis" unicode="&#xa4;" horiz-adv-x="687" 
d="M68 109l91.002 93.001c-14.667 19.333 -26.334 41 -35.001 65s-13 48.667 -13 74c0 26 4.66699 50.5 14 73.5s21.333 44.833 36 65.5l-95 95l42 42l94 -94c5.33301 2.66699 10.666 5.5 15.999 8.5s10.666 5.83301 15.999 8.5c17.333 9.33301 34.833 16.833 52.5 22.5
s37.167 8.5 58.5 8.5c26 0 50.333 -4.5 73 -13.5s44.334 -20.833 65.001 -35.5l95 94l42 -41l-94 -93c15.333 -21.333 27.5 -43.833 36.5 -67.5s13.5 -48.5 13.5 -74.5s-4.5 -50.333 -13.5 -73s-20.5 -44.667 -34.5 -66l93 -92l-41 -42l-94 93
c-20.667 -16.667 -43 -29.334 -67 -38.001s-49.333 -13 -76 -13c-25.333 0 -49.833 5 -73.5 15s-46.167 21.667 -67.5 35l-92 -92l-42 42v0zM344.002 507.001c-44.667 -0.666992 -83.167 -17.333 -115.5 -50s-48.5 -71.334 -48.5 -116.001s16.167 -83.167 48.5 -115.5
s70.833 -48.5 115.5 -48.5s83 16.167 115 48.5s48 70.833 48 115.5s-15.833 83.334 -47.5 116.001s-70.167 49 -115.5 49v1z" />
    <glyph glyph-name="ae" unicode="&#xa5;" horiz-adv-x="613" 
d="M449 455h91v-62h-129l-61 -99h190v-62h-199v-232h-75v232h-193v62h184l-59 99h-125v62h88l-127 212h87l185 -312l184 312h89l-130 -212v0z" />
    <glyph glyph-name="brokenbar" unicode="&#xa6;" 
 />
    <glyph glyph-name="section" unicode="&#xa7;" horiz-adv-x="613" 
d="M523 497l-66.0029 -0.00585938c0 50.667 -8.66699 82.334 -26 95.001s-51.333 19 -102 19l-48 1c-3.33301 -0.666992 -6.66602 -1 -9.99902 -1h-10c-10.667 -0.666992 -21 -1.66699 -31 -3s-19.333 -3.66602 -28 -6.99902c-12 -4.66699 -20.333 -12.167 -25 -22.5
s-7.33398 -21.166 -8.00098 -32.499c-0.666992 -4 -1 -8 -1 -12v-12c0 -32 3.5 -53.333 10.5 -64s20.833 -19.334 41.5 -26.001c5.33301 -1.33301 11.166 -3 17.499 -5s13.166 -4 20.499 -6l149 -44c6 -2.66699 11.833 -4.66699 17.5 -6s10.834 -3 15.501 -5
c34.667 -10 59.5 -23.333 74.5 -40s22.5 -48 22.5 -94c0 -26.667 -4.33301 -50.167 -13 -70.5s-26 -36.166 -52 -47.499c30.667 -13.333 49.334 -31.333 56.001 -54s10 -49 10 -79c0 -68 -15.5 -113.667 -46.5 -137s-79.5 -35 -145.5 -35h-41
c-74 0 -130.333 9.16699 -169 27.5s-58 70.833 -58 157.5h68v-28v-7.5v-7.5c0.666992 -10.667 2.33398 -20.667 5.00098 -30s7.66699 -17.333 15 -24s17.833 -11.5 31.5 -14.5s27.834 -5.16699 42.501 -6.5c10 -0.666992 19.667 -1.16699 29 -1.5s18 -0.5 26 -0.5h9h8h9
c2.66699 0.666992 5.33398 1 8.00098 1h8c34 0.666992 64.667 5.33398 92 14.001s41 35.334 41 80.001c0 32.667 -3.83301 55 -11.5 67s-23.5 21.667 -47.5 29l-14 4.5c-5.33301 1.66699 -11 3.16699 -17 4.5l-205 55c-42.667 11.333 -70 27.333 -82 48
s-18 52.334 -18 95.001c0 30.667 4.83301 56.167 14.5 76.5s30.167 33.833 61.5 40.5c-22 14.667 -36 33 -42 55s-9 45.333 -9 70c0 70 15.333 114 46 132s77 27 139 27l25 1c74 -0.666992 128 -9.5 162 -26.5s51 -67.5 51 -151.5v1zM213.997 188.994l150.997 -41.9961l4 -2
c1.33301 -0.666992 2.66602 -1 3.99902 -1c6 -2 12.333 -3.66699 19 -5s13.334 -2 20.001 -2c25.333 0 41.833 9.5 49.5 28.5s11.834 40.167 12.501 63.5v4.5v5.5c0 24 -8 40.5 -24 49.5s-33.667 16.167 -53 21.5c0 0.666992 -0.166992 1 -0.5 1h-1.5
c-0.666992 0 -1.16699 0.166992 -1.5 0.5s-0.833008 0.5 -1.5 0.5l-144 43l-14.5 4l-14.5 4c-3.33301 0.666992 -6.66602 1.16699 -9.99902 1.5s-6.66602 0.5 -9.99902 0.5c-22.667 0 -38 -8.83301 -46 -26.5s-12 -36.834 -12 -57.501v-1.5v-1.5
c0 -28.667 4.16699 -48.334 12.5 -59.001s23.833 -19.667 46.5 -27c2 -0.666992 4.16699 -1.33398 6.5 -2.00098s4.83301 -1.33398 7.5 -2.00098v1z" />
    <glyph glyph-name="dieresis" unicode="&#xa8;" horiz-adv-x="500" 
d="M200 580v-66h-78v66h78v0zM378 580v-66h-79v66h79v0z" />
    <glyph glyph-name="copyright" unicode="&#xa9;" horiz-adv-x="783" 
d="M392 678c94.667 -0.666992 175.667 -34.8311 243 -102.498s101 -148.834 101 -243.501s-33.667 -175.667 -101 -243s-148.333 -101 -243 -101s-175.834 33.667 -243.501 101s-101.5 148.333 -101.5 243c0 95.333 33.833 176.666 101.5 243.999s148.834 101 243.501 101v1
zM392 639.003c-84 -0.666992 -155.5 -31.167 -214.5 -91.5s-88.5 -132.166 -88.5 -215.499s29.5 -155.333 88.5 -216s130.5 -91 214.5 -91s155.333 30.5 214 91.5s88 132.833 88 215.5c0 83.333 -29.333 155.166 -88 215.499s-130 90.5 -214 90.5v1zM576 296.003
c-4 -50.667 -23 -91.167 -57 -121.5s-75.667 -45.5 -125 -45.5c-58.667 0 -105.167 19.667 -139.5 59s-51.5 87 -51.5 143c0 56.667 17.167 105.334 51.5 146.001s81.166 61 140.499 61h3.5h2.5c40 -1.33301 77 -13.833 111 -37.5s53.333 -57.167 58 -100.5l-41 1
c-6.66699 31.333 -23.167 54.666 -49.5 69.999s-54.833 23 -85.5 23c-46 0 -80.833 -16.667 -104.5 -50s-35.5 -71 -35.5 -113s12.167 -78.833 36.5 -110.5s58.833 -47.5 103.5 -47.5c38 0 69.833 10.833 95.5 32.5s40.834 51.5 45.501 89.5l41 1v0z" />
    <glyph glyph-name="ellipsis" unicode="&#xaa;" horiz-adv-x="613" 
d="M147 320h319v-39h-319v39v0zM235 583l-50 0.000976562l-0.5 1.5c-0.333008 1 -0.5 1.83301 -0.5 2.5v2.5v2.5c0 37.333 12.333 59.5 37 66.5s52 10.5 82 10.5c39.333 0 70.666 -5 93.999 -15s35 -38.667 35 -86v-184h-47l2 23c-2 -2.66699 -4 -4.83398 -6 -6.50098
s-4 -3.16699 -6 -4.5c-12.667 -8.66699 -25.5 -13.834 -38.5 -15.501s-27.833 -2.5 -44.5 -2.5c-34.667 0 -63 5.33301 -85 16s-33 35.667 -33 75c0 38.667 11.333 62.834 34 72.501s50.334 14.5 83.001 14.5h5.5h5.5c14 0 27.833 -1.16699 41.5 -3.5
s26.167 -8.5 37.5 -18.5v26c0 33.333 -5 53.833 -15 61.5s-32 11.5 -66 11.5h-2.5h-2.5c-15.333 0 -29.333 -2 -42 -6s-19 -15.333 -19 -34v-2.5v-2.5c0 -1.33301 0.166992 -2.33301 0.5 -3s0.5 -1.66699 0.5 -3v1zM225 475.001c0 -29.333 6.16699 -46.3311 18.5 -50.998
s31.166 -7 56.499 -7h9.5h9.5c16 1.33301 30.667 5 44 11s20 19 20 39c0 25.333 -7.66699 40.333 -23 45s-33.666 7 -54.999 7l-13 1c-30.667 -0.666992 -49.5 -4.33398 -56.5 -11.001s-10.5 -18.334 -10.5 -35.001v1z" />
    <glyph glyph-name="ydieresis" unicode="&#xab;" horiz-adv-x="447" 
d="M170 511l51 -31l-105 -223l117 -225l-49 -32l-134 257l120 254v0zM334 511l51 -31l-105 -223l117 -225l-49 -32l-134 257l120 254v0z" />
    <glyph glyph-name="emdash" unicode="&#xac;" 
 />
    <glyph glyph-name="uni00AD" unicode="&#xad;" horiz-adv-x="500" 
 />
    <glyph glyph-name="registered" unicode="&#xae;" horiz-adv-x="783" 
d="M392 678c94.667 -0.666992 175.667 -34.8311 243 -102.498s101 -148.834 101 -243.501s-33.667 -175.667 -101 -243s-148.333 -101 -243 -101s-175.834 33.667 -243.501 101s-101.5 148.333 -101.5 243c0 95.333 33.833 176.666 101.5 243.999s148.834 101 243.501 101v1
zM392 639.003c-84 -0.666992 -155.5 -31.167 -214.5 -91.5s-88.5 -132.166 -88.5 -215.499s29.5 -155.333 88.5 -216s130.5 -91 214.5 -91s155.333 30.5 214 91.5s88 132.833 88 215.5c0 83.333 -29.333 155.166 -88 215.499s-130 90.5 -214 90.5v1zM244 527.003
l165.002 -0.000976562c2 -0.666992 4.16699 -1 6.5 -1h6.5c31.333 -2 60.166 -10.5 86.499 -25.5s39.5 -41.5 39.5 -79.5c0 -24.667 -6.33301 -45.167 -19 -61.5s-30.334 -28.833 -53.001 -37.5c31.333 -10 49.833 -25.167 55.5 -45.5s9.16699 -44.166 10.5 -71.499v-4v-4
v-3v-3v-3.5c0 -1 0.333008 -2.16699 1 -3.5c0 -9.33301 0.666992 -18.333 2 -27s4 -16.667 8 -24l-49 1c-2 3.33301 -3.66699 7.16602 -5 11.499s-2 8.83301 -2 13.5c-0.666992 2.66699 -1.16699 5.5 -1.5 8.5s-0.5 5.83301 -0.5 8.5v12c0 4 -0.333008 8 -1 12
c-0.666992 34.667 -5.5 60.834 -14.5 78.501s-38.833 26.5 -89.5 26.5l-96 1v-172h-50v393v0zM294.002 493.002v-153.999h98c27.333 -0.666992 51.833 4.16602 73.5 14.499s32.5 31.833 32.5 64.5c0 29.333 -10 49 -30 59s-42.667 15 -68 15l-106 1v0z" />
    <glyph glyph-name="glyph263" unicode="&#xaf;" 
 />
    <glyph glyph-name="glyph264" unicode="&#xb0;" 
 />
    <glyph glyph-name="mu" unicode="&#xb1;" horiz-adv-x="500" 
d="M23 98h454v-42h-454v42v0zM23 374h205v192h43v-192h206v-42h-206v-190h-43v190h-205v42v0z" />
    <glyph glyph-name="uni00B2" unicode="&#xb2;" 
 />
    <glyph glyph-name="uni00B3" unicode="&#xb3;" 
 />
    <glyph glyph-name="acute" unicode="&#xb4;" horiz-adv-x="500" 
d="M299 660l35 -48l-143 -88l-24 36l132 100v0z" />
    <glyph glyph-name="oslash" unicode="&#xb5;" horiz-adv-x="535" 
d="M62 -166l-0.00292969 643.998h72v-270c0 -22.667 1.66699 -44.5 5 -65.5s12.666 -39.833 27.999 -56.5c12.667 -13.333 27.334 -23.666 44.001 -30.999s34.334 -11 53.001 -11c40 0 71.167 15 93.5 45s35.833 63 40.5 99c0.666992 4.66699 1.16699 9.33398 1.5 14.001
s0.5 9.33398 0.5 14.001v262h72v-478h-72v93c-11.333 -30.667 -28.833 -55.834 -52.5 -75.501s-52.167 -29.5 -85.5 -29.5c-29.333 0 -54.166 6 -74.499 18s-38.166 30 -53.499 54v-226h-72v0z" />
    <glyph glyph-name="paragraph" unicode="&#xb6;" horiz-adv-x="613" 
d="M557 -187l-67 -0.00195312v791h-79v-791h-67v448h-106h-18.5h-19.5h-13.5h-13.5c-23.333 0.666992 -46 3.83398 -68 9.50098s-41 17.834 -57 36.501c-14.667 17.333 -25 36.666 -31 57.999s-9.33301 43 -10 65c-0.666992 4.66699 -1 9.33398 -1 14.001v14
c0 72 12.5 124.5 37.5 157.5s74.833 49.5 149.5 49.5l33 1h331v-853v0zM344 321.998l-0.000976562 282.002l-122 3c-2 -0.666992 -4.16699 -0.833984 -6.5 -0.500977s-4.83301 0.5 -7.5 0.5h-7.5h-6.5h-17.5c-6.33301 0 -12.5 -0.333008 -18.5 -1
c-10 -1.33301 -19.667 -3.33301 -29 -6s-17.333 -7.33398 -24 -14.001c-8.66699 -8.66699 -15 -19.5 -19 -32.5s-6.66699 -26.5 -8 -40.5c-0.666992 -7.33301 -1 -14.5 -1 -21.5v-20.5c0 -56.667 8.33301 -95 25 -115s55.334 -30.333 116.001 -31
c21.333 0 42.5 -0.333008 63.5 -1s41.833 -1.66699 62.5 -3v1z" />
    <glyph glyph-name="glyph265" unicode="&#xb7;" 
 />
    <glyph glyph-name="bullet" unicode="&#xb8;" horiz-adv-x="500" 
d="M257 -35l55 -31l-79 -109l-44 23l68 117v0z" />
    <glyph glyph-name="uni00B9" unicode="&#xb9;" 
 />
    <glyph glyph-name="Agrave" unicode="&#xba;" horiz-adv-x="613" 
d="M147 320h319v-39h-319v39v0zM175 534c0 54 8.33301 90.667 25 110s52.334 29 107.001 29c54 0 89.333 -9.83301 106 -29.5s25 -57.5 25 -113.5v-15c0 -47.333 -6.33301 -82 -19 -104s-48 -33 -106 -33c-48.667 0 -83.834 9 -105.501 27s-32.5 52.333 -32.5 103v26v0z
M225 534l0.00195312 -28v-11v-10c0.666992 -11.333 2.16699 -22.166 4.5 -32.499s6.5 -18.166 12.5 -23.499c5.33301 -4.66699 11.666 -7.66699 18.999 -9s15 -2 23 -2c45.333 0 74 5 86 15s18 35 18 75v38c0 27.333 -3.33301 48.666 -10 63.999s-25.667 23 -57 23l-22 1
c-3.33301 -0.666992 -6.83301 -1 -10.5 -1s-7.5 -0.333008 -11.5 -1c-6.66699 -0.666992 -13 -1.66699 -19 -3s-11 -3.66602 -15 -6.99902c-5.33301 -4.66699 -9.33301 -11.334 -12 -20.001s-4.33398 -18 -5.00098 -28c-0.666992 -4.66699 -1 -9.33398 -1 -14.001v-13v-13v0
z" />
    <glyph glyph-name="Ydieresis" unicode="&#xbb;" horiz-adv-x="447" 
d="M113 511l120 -254l-135 -257l-48 32l116 225l-105 223l52 31v0zM277 511l120 -254l-135 -257l-48 32l116 225l-105 223l52 31v0z" />
    <glyph glyph-name="onequarter" unicode="&#xbc;" 
 />
    <glyph glyph-name="glyph243" unicode="&#xbd;" horiz-adv-x="1033" 
d="M710 667l-452 -667h-51l450 667h53v0zM1018 43l0.00488281 -43.0029h-294v77c0 48.667 13 78.834 39 90.501s58.333 19.167 97 22.5c1.33301 0 2.5 0.166992 3.5 0.5s2.16699 0.5 3.5 0.5c4.66699 0.666992 9.16699 1.16699 13.5 1.5s8.5 0.5 12.5 0.5
c26.667 2.66699 45.834 8 57.501 16s17.5 30 17.5 66c0 38 -6.33301 61.167 -19 69.5s-37.334 12.5 -74.001 12.5l-17 1c-3.33301 -0.666992 -6.83301 -1 -10.5 -1s-7.5 -0.333008 -11.5 -1c-9.33301 0 -18.333 -1 -27 -3s-15.334 -5 -20.001 -9
c-6 -4.66699 -9.83301 -10.5 -11.5 -17.5s-2.83398 -14.167 -3.50098 -21.5v-5.5v-4.5v-37h-51c0.666992 4 1 8 1 12v12c1.33301 58.667 14.666 93.334 39.999 104.001s62.333 16 111 16c51.333 0 88.166 -7.5 110.499 -22.5s33.5 -49.833 33.5 -104.5v-9.5v-9.5
c-0.666992 -15.333 -2.83398 -30.166 -6.50098 -44.499s-11.5 -26.5 -23.5 -36.5c-9.33301 -8 -20.333 -14 -33 -18s-25.667 -6.66699 -39 -8c-6 -1.33301 -11.833 -2.16602 -17.5 -2.49902s-11.167 -0.833008 -16.5 -1.5h-3h-2c-52 -4 -82.333 -11.333 -91 -22
s-13 -27.334 -13 -50.001v-8c0 -2.66699 0.333008 -5 1 -7v-8v-8l243 1v0zM194.005 666.997v-400h-49v355l-99 -108l-33 31l114 122h67v0z" />
    <glyph glyph-name="threequarters" unicode="&#xbe;" 
 />
    <glyph glyph-name="oe" unicode="&#xbf;" horiz-adv-x="519" 
d="M253 274l73.0049 0.00292969c0 -44 -4.5 -76.167 -13.5 -96.5s-32.5 -38.5 -70.5 -54.5c-2.66699 -1.33301 -5.66699 -2.66602 -9 -3.99902l-10 -4c-8 -3.33301 -15.667 -6.33301 -23 -9s-14 -5.33398 -20 -8.00098c-22.667 -10.667 -38.334 -23.5 -47.001 -38.5
s-13 -40.5 -13 -76.5c0 -58.667 8.83301 -94.167 26.5 -106.5s54.167 -18.5 109.5 -18.5c43.333 0 77.5 5.16699 102.5 15.5s37.5 40.5 37.5 90.5v45h70c0 -80.667 -11.333 -136.834 -34 -168.501s-78 -47.5 -166 -47.5c-70.667 0 -124.334 10 -161.001 30
s-55 70.667 -55 152c0 39.333 5 76.166 15 110.499s36.667 59.166 80 74.499c3.33301 1.33301 6.66602 2.5 9.99902 3.5s6.66602 2.16699 9.99902 3.5c0.666992 0 1.16699 0.166992 1.5 0.5s0.833008 0.5 1.5 0.5c21.333 7.33301 40.666 16.333 57.999 27s26 29 26 55v6
c0 2 0.333008 4 1 6v5v6v1zM251.005 376.003v91h79v-91h-79v0z" />
    <glyph glyph-name="currency" unicode="&#xc0;" horiz-adv-x="609" 
d="M473 141h-337l-51 -141h-80l243 667h107l249 -667h-79l-52 141v0zM451 202l-148 410l-147 -410h295v0zM256 846l132 -100l-23 -36l-144 88l35 48v0z" />
    <glyph glyph-name="breve" unicode="&#xc1;" horiz-adv-x="609" 
d="M473 141h-337l-51 -141h-80l243 667h107l249 -667h-79l-52 141v0zM451 202l-148 410l-147 -410h295v0zM353 846l35 -48l-143 -88l-24 36l132 100v0z" />
    <glyph glyph-name="tilde" unicode="&#xc2;" horiz-adv-x="609" 
d="M473 141h-337l-51 -141h-80l243 667h107l249 -667h-79l-52 141v0zM451 202l-148 410l-147 -410h295v0zM306 841l153 -95l-21 -38l-132 61l-138 -61l-19 38l157 95v0z" />
    <glyph glyph-name="guilsinglleft" unicode="&#xc3;" horiz-adv-x="609" 
d="M473 141h-337l-51 -141h-80l243 667h107l249 -667h-79l-52 141v0zM451 202l-148 410l-147 -410h295v0zM417 812l38.0029 -24.001c0 -1.33301 -0.166992 -2.16602 -0.5 -2.49902l-1.5 -1.5c-10 -16 -22.333 -30.667 -37 -44s-32.334 -20 -53.001 -20
c-11.333 0 -22.333 2 -33 6s-21 8.33301 -31 13c-0.666992 0 -1.33398 0.166992 -2.00098 0.5s-1.33398 0.833008 -2.00098 1.5l-29.5 11.5c-9.66699 3.66699 -19.834 5.5 -30.501 5.5c-10 0 -17.833 -3.16699 -23.5 -9.5s-10.834 -13.5 -15.501 -21.5
c-0.666992 -0.666992 -1.16699 -1.5 -1.5 -2.5s-0.833008 -1.83301 -1.5 -2.5l-40 23c8.66699 15.333 19.167 29.833 31.5 43.5s28.5 21.167 48.5 22.5c12 0 23.333 -2 34 -6s21.334 -8.33301 32.001 -13c10 -5.33301 20.333 -10 31 -14s22 -6 34 -6
c10.667 0 20 3.33301 28 10s14.667 14 20 22c1.33301 1.33301 2.33301 2.5 3 3.5s1.33398 2.16699 2.00098 3.5v1z" />
    <glyph glyph-name="Adieresis" unicode="&#xc4;" horiz-adv-x="609" 
d="M473 141h-337l-51 -141h-80l243 667h107l249 -667h-79l-52 141v0zM451 202l-148 410l-147 -410h295v0zM254 790v-66h-78v66h78v0zM432 790v-66h-79v66h79v0z" />
    <glyph glyph-name="Aring" unicode="&#xc5;" horiz-adv-x="609" 
d="M473 141h-337l-51 -141h-80l243 667h107l249 -667h-79l-52 141v0zM451 202l-148 410l-147 -410h295v0zM305 704c-20.667 -0.666992 -38.667 6.66699 -54 22s-23 33.333 -23 54s7.66699 38.5 23 53.5s33.333 22.5 54 22.5s38.5 -7.5 53.5 -22.5s22.5 -32.833 22.5 -53.5
s-7.5 -38.667 -22.5 -54s-32.833 -23 -53.5 -23v1zM305 737.001c11.333 -0.666992 21.333 3.33301 30 12s13 19 13 31c0 11.333 -4.33301 21.333 -13 30s-18.667 13 -30 13c-12 0 -22.333 -4.33301 -31 -13s-13 -18.667 -13 -30c0 -12 4.33301 -22.333 13 -31s19 -13 31 -13
v1z" />
    <glyph glyph-name="Oslash" unicode="&#xc6;" horiz-adv-x="928" 
d="M546 597v-223h333v-64h-333v-245h348v-65h-425v140h-310l-77 -140h-89l368 667h533v-70h-348v0zM469 204v393h-63l-213 -393h276v0z" />
    <glyph glyph-name="Ccedilla" unicode="&#xc7;" horiz-adv-x="591" 
d="M310 -35l55 -31l-79 -109l-44 23l68 117v0zM495 227l74.0029 -0.00195312c0 -6 0.166992 -11.5 0.5 -16.5s0.5 -10.167 0.5 -15.5s0.166992 -10.5 0.5 -15.5s0.5 -10.167 0.5 -15.5c0 -48.667 -11.5 -87.5 -34.5 -116.5s-60.5 -44.833 -112.5 -47.5
c-18 -1.33301 -36 -2.33301 -54 -3s-36 -1 -54 -1l-93 1c-89.333 5.33301 -142.333 37 -159 95s-25.667 121.667 -27 191v4v4v7.5v7.5v13.5v13.5v106c0 62.667 11.167 113.5 33.5 152.5s67.833 62.833 136.5 71.5c10.667 1.33301 21.5 2.33301 32.5 3l32.5 2
c10.667 0.666992 21.5 1 32.5 1h32.5c88.667 0 147.167 -12.5 175.5 -37.5s44.833 -83.167 49.5 -174.5l-74 1c0 50 -6 86.5 -18 109.5s-45.667 34.5 -101 34.5c-23.333 0 -46.833 -0.333008 -70.5 -1s-47.167 -1.66699 -70.5 -3
c-49.333 -3.33301 -80.5 -18.666 -93.5 -45.999s-19.5 -64 -19.5 -110v-11l1 -107v-35c0 -11.333 0.166992 -22.666 0.5 -33.999s0.833008 -23 1.5 -35c1.33301 -21.333 3.66602 -42.333 6.99902 -63s9 -38 17 -52c8 -15.333 20.667 -25.833 38 -31.5
s35.333 -9.16699 54 -10.5c6 -0.666992 12 -1 18 -1h18h33c10.667 0 21.667 0.333008 33 1c10.667 0 21.5 0.166992 32.5 0.5s21.833 0.833008 32.5 1.5c29.333 2.66699 52.166 9.66699 68.499 21s25.166 33 26.499 65v18.5v19.5c-0.666992 6 -1 12.167 -1 18.5v18.5v1z" />
    <glyph glyph-name="ring" unicode="&#xc8;" horiz-adv-x="498" 
d="M110 600v-226h340v-63h-340v-247h355v-64h-428v667h428v-67h-355v0zM201 846l132 -100l-23 -36l-144 88l35 48v0z" />
    <glyph glyph-name="Eacute" unicode="&#xc9;" horiz-adv-x="498" 
d="M110 600v-226h340v-63h-340v-247h355v-64h-428v667h428v-67h-355v0zM298 846l35 -48l-143 -88l-24 36l132 100v0z" />
    <glyph glyph-name="macron" unicode="&#xca;" horiz-adv-x="498" 
d="M110 600v-226h340v-63h-340v-247h355v-64h-428v667h428v-67h-355v0zM251 841l153 -95l-21 -38l-132 61l-138 -61l-19 38l157 95v0z" />
    <glyph glyph-name="dotaccent" unicode="&#xcb;" horiz-adv-x="498" 
d="M110 600v-226h340v-63h-340v-247h355v-64h-428v667h428v-67h-355v0zM199 790v-66h-78v66h78v0zM377 790v-66h-79v66h79v0z" />
    <glyph glyph-name="caron" unicode="&#xcc;" horiz-adv-x="203" 
d="M139 667v-667h-76v667h76v0zM53 846l132 -100l-23 -36l-144 88l35 48v0z" />
    <glyph glyph-name="cedilla" unicode="&#xcd;" horiz-adv-x="203" 
d="M139 667v-667h-76v667h76v0zM150 846l35 -48l-143 -88l-24 36l132 100v0z" />
    <glyph glyph-name="hungarumlaut" unicode="&#xce;" horiz-adv-x="201" 
d="M139 667v-667h-76v667h76v0zM103 841l153 -95l-21 -38l-132 61l-138 -61l-19 38l157 95v0z" />
    <glyph glyph-name="ogonek" unicode="&#xcf;" horiz-adv-x="201" 
d="M139 667v-667h-76v667h76v0zM51 790v-66h-78v66h78v0zM229 790v-66h-79v66h79v0z" />
    <glyph glyph-name="glyph232" unicode="&#xd0;" horiz-adv-x="663" 
d="M65 667l243 0.00195312c102 -0.666992 179.5 -31.834 232.5 -93.501s79.5 -141.834 79.5 -240.501c0 -100 -26.833 -180.5 -80.5 -241.5s-132.167 -91.5 -235.5 -91.5h-239v313h-76v61h76v293v0zM142 374.002h111.999v-61h-112v-247h150
c84.667 -0.666992 147.334 23.5 188.001 72.5s61 113.833 61 194.5c0 80 -20.333 144.5 -61 193.5s-102.667 73.5 -186 73.5l-152 1v-227v0z" />
    <glyph glyph-name="Ntilde" unicode="&#xd1;" horiz-adv-x="696" 
d="M633 667v-667h-122l-375 603v-603h-73v667h122l375 -609v609h73v0zM461 812l38.0029 -24.001c0 -1.33301 -0.166992 -2.16602 -0.5 -2.49902l-1.5 -1.5c-10 -16 -22.333 -30.667 -37 -44s-32.334 -20 -53.001 -20c-11.333 0 -22.333 2 -33 6s-21 8.33301 -31 13
c-0.666992 0 -1.33398 0.166992 -2.00098 0.5s-1.33398 0.833008 -2.00098 1.5l-29.5 11.5c-9.66699 3.66699 -19.834 5.5 -30.501 5.5c-10 0 -17.833 -3.16699 -23.5 -9.5s-10.834 -13.5 -15.501 -21.5c-0.666992 -0.666992 -1.16699 -1.5 -1.5 -2.5
s-0.833008 -1.83301 -1.5 -2.5l-40 23c8.66699 15.333 19.167 29.833 31.5 43.5s28.5 21.167 48.5 22.5c12 0 23.333 -2 34 -6s21.334 -8.33301 32.001 -13c10 -5.33301 20.333 -10 31 -14s22 -6 34 -6c10.667 0 20 3.33301 28 10s14.667 14 20 22
c1.33301 1.33301 2.33301 2.5 3 3.5s1.33398 2.16699 2.00098 3.5v1z" />
    <glyph glyph-name="scaron" unicode="&#xd2;" 
 />
    <glyph glyph-name="Lslash" unicode="&#xd3;" horiz-adv-x="596" 
d="M37 322v39.001c0 90 9.16699 164.5 27.5 223.5s81.5 88.5 189.5 88.5l33 1c90 -0.666992 158 -12.334 204 -35.001s69 -86.334 69 -191.001v-118.5c0 -39.667 -0.666992 -79.167 -2 -118.5c-2 -81.333 -18.833 -138.166 -50.5 -170.499s-89.5 -48.5 -173.5 -48.5h-7.5
h-7.5h-7.5h-7.5c-5.33301 0.666992 -10.333 1 -15 1h-14c-75.333 0 -132.5 11.667 -171.5 35s-60.833 77.333 -65.5 162c-0.666992 22 -1 44 -1 66v65v1zM113 325.001l1 -107.001c1.33301 -65.333 11.5 -108.666 30.5 -129.999s62.167 -32 129.5 -32
c75.333 0 128.666 7.83301 159.999 23.5s48 64.167 50 145.5c0 18 0.166992 36.167 0.5 54.5s0.5 36.833 0.5 55.5v55.5v54.5c0 82 -14.5 130 -43.5 144s-79.167 21 -150.5 21l-25 1c-58.667 -0.666992 -98.167 -10 -118.5 -28s-31.166 -63.333 -32.499 -136l-2 -122v0z
M348 847l35 -48l-143 -88l-24 36l132 100v0z" />
    <glyph glyph-name="lslash" unicode="&#xd4;" horiz-adv-x="596" 
d="M37 322v39.001c0 90 9.16699 164.5 27.5 223.5s81.5 88.5 189.5 88.5l33 1c90 -0.666992 158 -12.334 204 -35.001s69 -86.334 69 -191.001v-118.5c0 -39.667 -0.666992 -79.167 -2 -118.5c-2 -81.333 -18.833 -138.166 -50.5 -170.499s-89.5 -48.5 -173.5 -48.5h-7.5
h-7.5h-7.5h-7.5c-5.33301 0.666992 -10.333 1 -15 1h-14c-75.333 0 -132.5 11.667 -171.5 35s-60.833 77.333 -65.5 162c-0.666992 22 -1 44 -1 66v65v1zM113 325.001l1 -107.001c1.33301 -65.333 11.5 -108.666 30.5 -129.999s62.167 -32 129.5 -32
c75.333 0 128.666 7.83301 159.999 23.5s48 64.167 50 145.5c0 18 0.166992 36.167 0.5 54.5s0.5 36.833 0.5 55.5v55.5v54.5c0 82 -14.5 130 -43.5 144s-79.167 21 -150.5 21l-25 1c-58.667 -0.666992 -98.167 -10 -118.5 -28s-31.166 -63.333 -32.499 -136l-2 -122v0z
M301 841l153 -95l-21 -38l-132 61l-138 -61l-19 38l157 95v0z" />
    <glyph glyph-name="guilsinglright" unicode="&#xd5;" horiz-adv-x="596" 
d="M37 322v39.001c0 90 9.16699 164.5 27.5 223.5s81.5 88.5 189.5 88.5l33 1c90 -0.666992 158 -12.334 204 -35.001s69 -86.334 69 -191.001v-118.5c0 -39.667 -0.666992 -79.167 -2 -118.5c-2 -81.333 -18.833 -138.166 -50.5 -170.499s-89.5 -48.5 -173.5 -48.5h-7.5
h-7.5h-7.5h-7.5c-5.33301 0.666992 -10.333 1 -15 1h-14c-75.333 0 -132.5 11.667 -171.5 35s-60.833 77.333 -65.5 162c-0.666992 22 -1 44 -1 66v65v1zM113 325.001l1 -107.001c1.33301 -65.333 11.5 -108.666 30.5 -129.999s62.167 -32 129.5 -32
c75.333 0 128.666 7.83301 159.999 23.5s48 64.167 50 145.5c0 18 0.166992 36.167 0.5 54.5s0.5 36.833 0.5 55.5v55.5v54.5c0 82 -14.5 130 -43.5 144s-79.167 21 -150.5 21l-25 1c-58.667 -0.666992 -98.167 -10 -118.5 -28s-31.166 -63.333 -32.499 -136l-2 -122v0z
M412 813l38.0029 -24.001c0 -1.33301 -0.166992 -2.16602 -0.5 -2.49902l-1.5 -1.5c-10 -16 -22.333 -30.667 -37 -44s-32.334 -20 -53.001 -20c-11.333 0 -22.333 2 -33 6s-21 8.33301 -31 13c-0.666992 0 -1.33398 0.166992 -2.00098 0.5s-1.33398 0.833008 -2.00098 1.5
l-29.5 11.5c-9.66699 3.66699 -19.834 5.5 -30.501 5.5c-10 0 -17.833 -3.16699 -23.5 -9.5s-10.834 -13.5 -15.501 -21.5c-0.666992 -0.666992 -1.16699 -1.5 -1.5 -2.5s-0.833008 -1.83301 -1.5 -2.5l-40 23c8.66699 15.333 19.167 29.833 31.5 43.5
s28.5 21.167 48.5 22.5c12 0 23.333 -2 34 -6s21.334 -8.33301 32.001 -13c10 -5.33301 20.333 -10 31 -14s22 -6 34 -6c10.667 0 20 3.33301 28 10s14.667 14 20 22c1.33301 1.33301 2.33301 2.5 3 3.5s1.33398 2.16699 2.00098 3.5v1z" />
    <glyph glyph-name="Odieresis" unicode="&#xd6;" horiz-adv-x="596" 
d="M37 322v39.001c0 90 9.16699 164.5 27.5 223.5s81.5 88.5 189.5 88.5l33 1c90 -0.666992 158 -12.334 204 -35.001s69 -86.334 69 -191.001v-118.5c0 -39.667 -0.666992 -79.167 -2 -118.5c-2 -81.333 -18.833 -138.166 -50.5 -170.499s-89.5 -48.5 -173.5 -48.5h-7.5
h-7.5h-7.5h-7.5c-5.33301 0.666992 -10.333 1 -15 1h-14c-75.333 0 -132.5 11.667 -171.5 35s-60.833 77.333 -65.5 162c-0.666992 22 -1 44 -1 66v65v1zM113 325.001l1 -107.001c1.33301 -65.333 11.5 -108.666 30.5 -129.999s62.167 -32 129.5 -32
c75.333 0 128.666 7.83301 159.999 23.5s48 64.167 50 145.5c0 18 0.166992 36.167 0.5 54.5s0.5 36.833 0.5 55.5v55.5v54.5c0 82 -14.5 130 -43.5 144s-79.167 21 -150.5 21l-25 1c-58.667 -0.666992 -98.167 -10 -118.5 -28s-31.166 -63.333 -32.499 -136l-2 -122v0z
M249 791v-66h-78v66h78v0zM427 791v-66h-79v66h79v0z" />
    <glyph glyph-name="multiply" unicode="&#xd7;" 
 />
    <glyph glyph-name="plusminus" unicode="&#xd8;" horiz-adv-x="643" 
d="M619 668v-76.9961l-35 -33c4.66699 -10.667 8.16699 -22.834 10.5 -36.501s3.83301 -27.5 4.5 -41.5c1.33301 -11.333 2 -22.833 2 -34.5v-31.5v-97.5c0 -32.333 -0.666992 -64.5 -2 -96.5c-0.666992 -52.667 -10.5 -100.334 -29.5 -143.001
s-58.833 -68.334 -119.5 -77.001c-28.667 -2.66699 -57.167 -4.16699 -85.5 -4.5s-56.833 -0.5 -85.5 -0.5c-38.667 0 -75.667 3 -111 9s-66.666 24.667 -93.999 56l-64 -59v72l40 39c-4.66699 10.667 -8.16699 23.167 -10.5 37.5s-3.83301 28.833 -4.5 43.5
c-1.33301 12.667 -2 25.167 -2 37.5v34.5v95v3.5v4.5c0 14 0.166992 28.333 0.5 43s1.16602 29.667 2.49902 45c3.33301 48 14.5 92.5 33.5 133.5s56.167 65.5 111.5 73.5c11.333 1.33301 22.333 2.5 33 3.5s21.667 1.83301 33 2.5c10.667 0.666992 21.5 1 32.5 1h32.5l58 1
c2.66699 -0.666992 5.33398 -1 8.00098 -1h9c31.333 -0.666992 62.166 -4.83398 92.499 -12.501s56.5 -24.5 78.5 -50.5l61 61v0zM128 112.004c11.333 -19.333 25.999 -32.498 43.999 -39.498s37.333 -11.167 58 -12.5c15.333 -0.666992 30.833 -1.16699 46.5 -1.5
s30.834 -0.5 45.501 -0.5c86.667 0 142.167 11.5 166.5 34.5s36.5 76.5 36.5 160.5v34v35c0 11.333 0.166992 22.666 0.5 33.999s0.5 22.666 0.5 33.999c0 17.333 -0.333008 34.833 -1 52.5s-1.66699 35.5 -3 53.5l-394 -384v0zM505.999 558.006
c-10.667 16.667 -24.334 28.833 -41.001 36.5s-35 11.5 -55 11.5c-8 0 -16.167 0.166992 -24.5 0.5s-16.833 0.5 -25.5 0.5h-25.5h-24.5c-99.333 0 -157.666 -13.167 -174.999 -39.5s-26 -97.5 -26 -213.5l-1 -105c0 -7.33301 0.166992 -14.333 0.5 -21s0.5 -13 0.5 -19v-20
v-20l397 389v0z" />
    <glyph glyph-name="Thorn" unicode="&#xd9;" horiz-adv-x="655" 
d="M517 667h75.001v-467c0 -69.333 -13 -119.833 -39 -151.5s-76.333 -48.834 -151 -51.501c-12.667 -0.666992 -25.167 -1.16699 -37.5 -1.5s-24.833 -0.5 -37.5 -0.5c-81.333 0 -145.5 9.83301 -192.5 29.5s-70.5 77.834 -70.5 174.501v468h76v-467
c0 -58 10.167 -95.833 30.5 -113.5s58.5 -26.5 114.5 -26.5l73 1c59.333 -0.666992 100.666 7 123.999 23s35 54.333 35 115v468v0zM280.001 846l132 -100l-23 -36l-144 88l35 48v0z" />
    <glyph glyph-name="Eth" unicode="&#xda;" horiz-adv-x="655" 
d="M517 667h75.001v-467c0 -69.333 -13 -119.833 -39 -151.5s-76.333 -48.834 -151 -51.501c-12.667 -0.666992 -25.167 -1.16699 -37.5 -1.5s-24.833 -0.5 -37.5 -0.5c-81.333 0 -145.5 9.83301 -192.5 29.5s-70.5 77.834 -70.5 174.501v468h76v-467
c0 -58 10.167 -95.833 30.5 -113.5s58.5 -26.5 114.5 -26.5l73 1c59.333 -0.666992 100.666 7 123.999 23s35 54.333 35 115v468v0zM377.001 846l35 -48l-143 -88l-24 36l132 100v0z" />
    <glyph glyph-name="eth" unicode="&#xdb;" horiz-adv-x="655" 
d="M517 667h75.001v-467c0 -69.333 -13 -119.833 -39 -151.5s-76.333 -48.834 -151 -51.501c-12.667 -0.666992 -25.167 -1.16699 -37.5 -1.5s-24.833 -0.5 -37.5 -0.5c-81.333 0 -145.5 9.83301 -192.5 29.5s-70.5 77.834 -70.5 174.501v468h76v-467
c0 -58 10.167 -95.833 30.5 -113.5s58.5 -26.5 114.5 -26.5l73 1c59.333 -0.666992 100.666 7 123.999 23s35 54.333 35 115v468v0zM330.001 841l153 -95l-21 -38l-132 61l-138 -61l-19 38l157 95v0z" />
    <glyph glyph-name="Udieresis" unicode="&#xdc;" horiz-adv-x="655" 
d="M517 667h75.001v-467c0 -69.333 -13 -119.833 -39 -151.5s-76.333 -48.834 -151 -51.501c-12.667 -0.666992 -25.167 -1.16699 -37.5 -1.5s-24.833 -0.5 -37.5 -0.5c-81.333 0 -145.5 9.83301 -192.5 29.5s-70.5 77.834 -70.5 174.501v468h76v-467
c0 -58 10.167 -95.833 30.5 -113.5s58.5 -26.5 114.5 -26.5l73 1c59.333 -0.666992 100.666 7 123.999 23s35 54.333 35 115v468v0zM278.001 791v-66h-78v66h78v0zM456.001 791v-66h-79v66h79v0z" />
    <glyph glyph-name="Yacute" unicode="&#xdd;" 
 />
    <glyph glyph-name="glyph236" unicode="&#xde;" horiz-adv-x="551" 
d="M64 667l77 0.00195312v-80h162c62 -0.666992 115 -17.334 159 -50.001s66 -82.667 66 -150c0 -62.667 -20.833 -110.834 -62.5 -144.501s-92.167 -50.5 -151.5 -50.5l-173 1v-193h-77v667v0zM141 523.002v-268.998h143c43.333 -0.666992 81.833 9.16602 115.5 29.499
s50.5 55.166 50.5 104.499s-15.167 84 -45.5 104s-67.833 30 -112.5 30l-151 1v0z" />
    <glyph glyph-name="germandbls" unicode="&#xdf;" horiz-adv-x="524" 
d="M60 0l-0.000976562 515c0 64.667 14.5 107 43.5 127s73.5 30 133.5 30h9.5h8.5c44 -0.666992 84.167 -8.5 120.5 -23.5s54.5 -50.833 54.5 -107.5c0 -31.333 -7 -55 -21 -71s-35.667 -29.667 -65 -41c58.667 -12 94 -35.667 106 -71s18 -80 18 -134
c0 -60.667 -8 -114 -24 -160s-60.667 -69 -134 -69c-34.667 0 -65.5 8.83301 -92.5 26.5s-40.5 45.834 -40.5 84.501v9.5c0 3 0.333008 5.83301 1 8.5v9.5v8.5l68 1v-7v-6c1.33301 -20 5.83301 -38.167 13.5 -54.5s23.834 -24.5 48.501 -24.5
c30.667 0 52.167 8.83301 64.5 26.5s18.833 40.5 19.5 68.5c0 6 0.166992 11.833 0.5 17.5s0.5 11.5 0.5 17.5c0.666992 6 1 11.833 1 17.5v17.5c0 48 -6.16699 90.667 -18.5 128s-48.5 56 -108.5 56h-16h-15c-5.33301 -0.666992 -10.666 -1 -15.999 -1h-16v60
c3.33301 -0.666992 6.66602 -1 9.99902 -1s7 0.333008 11 1h10h10h6.5h7.5c26.667 0 50.167 3 70.5 9s30.5 26.667 30.5 62c0 42 -10.5 67 -31.5 75s-49.833 12 -86.5 12s-64 -6.33301 -82 -19s-27 -38.334 -27 -77.001v-521h-73v0z" />
    <glyph glyph-name="agrave" unicode="&#xe0;" horiz-adv-x="507" 
d="M131 332l-71.999 0.00292969c0 64 17.667 102.5 53 115.5s79.333 19.5 132 19.5c64.667 0 114.5 -9 149.5 -27s52.5 -63.667 52.5 -137v-303h-65l3 48c-20 -26 -43.5 -41.833 -70.5 -47.5s-55.833 -8.5 -86.5 -8.5c-57.333 0 -102.333 8.5 -135 25.5s-49 57.5 -49 121.5
c0 62 17.167 101 51.5 117s77.833 24 130.5 24c7.33301 0 15 -0.166992 23 -0.5s16 -0.833008 24 -1.5c12 -0.666992 23.833 -2.16699 35.5 -4.5s22.834 -5.5 33.501 -9.5c7.33301 -2.66699 13.666 -6.83398 18.999 -12.501s10 -12.167 14 -19.5v57c0 56.667 -8 92 -24 106
s-52.667 21 -110 21c-5.33301 0 -11.666 -0.166992 -18.999 -0.5s-14.333 -0.833008 -21 -1.5c-10 -0.666992 -19.333 -2.33398 -28 -5.00098s-16 -6.33398 -22 -11.001c-6.66699 -4.66699 -11.334 -10.5 -14.001 -17.5s-4.33398 -14.5 -5.00098 -22.5
c-0.666992 -2 -1 -4.16699 -1 -6.5v-6.5v-6.5c0 -2.33301 0.333008 -4.83301 1 -7.5v1zM115.001 148.003c0 -41.333 8.33203 -68.501 24.999 -81.501s44.334 -19.5 83.001 -19.5h21c7.33301 0 14.666 0.333008 21.999 1c28 1.33301 53.667 7.5 77 18.5s35 33.833 35 68.5
c0 42 -12.667 67.667 -38 77s-55.666 14 -90.999 14l-17 1c-6 -0.666992 -12.333 -1 -19 -1s-13.334 -0.333008 -20.001 -1c-11.333 -1.33301 -22.5 -3.5 -33.5 -6.5s-20.167 -7.83301 -27.5 -14.5c-5.33301 -4 -9.16602 -9.33301 -11.499 -16s-3.83301 -13.667 -4.5 -21
c-0.666992 -3.33301 -1 -6.66602 -1 -9.99902v-10v1zM205 660.002l132 -100l-23 -36l-144 88l35 48v0z" />
    <glyph glyph-name="aacute" unicode="&#xe1;" horiz-adv-x="507" 
d="M131 332l-71.999 0.00292969c0 64 17.667 102.5 53 115.5s79.333 19.5 132 19.5c64.667 0 114.5 -9 149.5 -27s52.5 -63.667 52.5 -137v-303h-65l3 48c-20 -26 -43.5 -41.833 -70.5 -47.5s-55.833 -8.5 -86.5 -8.5c-57.333 0 -102.333 8.5 -135 25.5s-49 57.5 -49 121.5
c0 62 17.167 101 51.5 117s77.833 24 130.5 24c7.33301 0 15 -0.166992 23 -0.5s16 -0.833008 24 -1.5c12 -0.666992 23.833 -2.16699 35.5 -4.5s22.834 -5.5 33.501 -9.5c7.33301 -2.66699 13.666 -6.83398 18.999 -12.501s10 -12.167 14 -19.5v57c0 56.667 -8 92 -24 106
s-52.667 21 -110 21c-5.33301 0 -11.666 -0.166992 -18.999 -0.5s-14.333 -0.833008 -21 -1.5c-10 -0.666992 -19.333 -2.33398 -28 -5.00098s-16 -6.33398 -22 -11.001c-6.66699 -4.66699 -11.334 -10.5 -14.001 -17.5s-4.33398 -14.5 -5.00098 -22.5
c-0.666992 -2 -1 -4.16699 -1 -6.5v-6.5v-6.5c0 -2.33301 0.333008 -4.83301 1 -7.5v1zM115.001 148.003c0 -41.333 8.33203 -68.501 24.999 -81.501s44.334 -19.5 83.001 -19.5h21c7.33301 0 14.666 0.333008 21.999 1c28 1.33301 53.667 7.5 77 18.5s35 33.833 35 68.5
c0 42 -12.667 67.667 -38 77s-55.666 14 -90.999 14l-17 1c-6 -0.666992 -12.333 -1 -19 -1s-13.334 -0.333008 -20.001 -1c-11.333 -1.33301 -22.5 -3.5 -33.5 -6.5s-20.167 -7.83301 -27.5 -14.5c-5.33301 -4 -9.16602 -9.33301 -11.499 -16s-3.83301 -13.667 -4.5 -21
c-0.666992 -3.33301 -1 -6.66602 -1 -9.99902v-10v1zM302 660.002l35 -48l-143 -88l-24 36l132 100v0z" />
    <glyph glyph-name="acircumflex" unicode="&#xe2;" horiz-adv-x="507" 
d="M131 332l-71.999 0.00292969c0 64 17.667 102.5 53 115.5s79.333 19.5 132 19.5c64.667 0 114.5 -9 149.5 -27s52.5 -63.667 52.5 -137v-303h-65l3 48c-20 -26 -43.5 -41.833 -70.5 -47.5s-55.833 -8.5 -86.5 -8.5c-57.333 0 -102.333 8.5 -135 25.5s-49 57.5 -49 121.5
c0 62 17.167 101 51.5 117s77.833 24 130.5 24c7.33301 0 15 -0.166992 23 -0.5s16 -0.833008 24 -1.5c12 -0.666992 23.833 -2.16699 35.5 -4.5s22.834 -5.5 33.501 -9.5c7.33301 -2.66699 13.666 -6.83398 18.999 -12.501s10 -12.167 14 -19.5v57c0 56.667 -8 92 -24 106
s-52.667 21 -110 21c-5.33301 0 -11.666 -0.166992 -18.999 -0.5s-14.333 -0.833008 -21 -1.5c-10 -0.666992 -19.333 -2.33398 -28 -5.00098s-16 -6.33398 -22 -11.001c-6.66699 -4.66699 -11.334 -10.5 -14.001 -17.5s-4.33398 -14.5 -5.00098 -22.5
c-0.666992 -2 -1 -4.16699 -1 -6.5v-6.5v-6.5c0 -2.33301 0.333008 -4.83301 1 -7.5v1zM115.001 148.003c0 -41.333 8.33203 -68.501 24.999 -81.501s44.334 -19.5 83.001 -19.5h21c7.33301 0 14.666 0.333008 21.999 1c28 1.33301 53.667 7.5 77 18.5s35 33.833 35 68.5
c0 42 -12.667 67.667 -38 77s-55.666 14 -90.999 14l-17 1c-6 -0.666992 -12.333 -1 -19 -1s-13.334 -0.333008 -20.001 -1c-11.333 -1.33301 -22.5 -3.5 -33.5 -6.5s-20.167 -7.83301 -27.5 -14.5c-5.33301 -4 -9.16602 -9.33301 -11.499 -16s-3.83301 -13.667 -4.5 -21
c-0.666992 -3.33301 -1 -6.66602 -1 -9.99902v-10v1zM255 654.002l153 -95l-21 -38l-132 61l-138 -61l-19 38l157 95v0z" />
    <glyph glyph-name="atilde" unicode="&#xe3;" horiz-adv-x="507" 
d="M131 332l-71.999 0.00292969c0 64 17.667 102.5 53 115.5s79.333 19.5 132 19.5c64.667 0 114.5 -9 149.5 -27s52.5 -63.667 52.5 -137v-303h-65l3 48c-20 -26 -43.5 -41.833 -70.5 -47.5s-55.833 -8.5 -86.5 -8.5c-57.333 0 -102.333 8.5 -135 25.5s-49 57.5 -49 121.5
c0 62 17.167 101 51.5 117s77.833 24 130.5 24c7.33301 0 15 -0.166992 23 -0.5s16 -0.833008 24 -1.5c12 -0.666992 23.833 -2.16699 35.5 -4.5s22.834 -5.5 33.501 -9.5c7.33301 -2.66699 13.666 -6.83398 18.999 -12.501s10 -12.167 14 -19.5v57c0 56.667 -8 92 -24 106
s-52.667 21 -110 21c-5.33301 0 -11.666 -0.166992 -18.999 -0.5s-14.333 -0.833008 -21 -1.5c-10 -0.666992 -19.333 -2.33398 -28 -5.00098s-16 -6.33398 -22 -11.001c-6.66699 -4.66699 -11.334 -10.5 -14.001 -17.5s-4.33398 -14.5 -5.00098 -22.5
c-0.666992 -2 -1 -4.16699 -1 -6.5v-6.5v-6.5c0 -2.33301 0.333008 -4.83301 1 -7.5v1zM115.001 148.003c0 -41.333 8.33203 -68.501 24.999 -81.501s44.334 -19.5 83.001 -19.5h21c7.33301 0 14.666 0.333008 21.999 1c28 1.33301 53.667 7.5 77 18.5s35 33.833 35 68.5
c0 42 -12.667 67.667 -38 77s-55.666 14 -90.999 14l-17 1c-6 -0.666992 -12.333 -1 -19 -1s-13.334 -0.333008 -20.001 -1c-11.333 -1.33301 -22.5 -3.5 -33.5 -6.5s-20.167 -7.83301 -27.5 -14.5c-5.33301 -4 -9.16602 -9.33301 -11.499 -16s-3.83301 -13.667 -4.5 -21
c-0.666992 -3.33301 -1 -6.66602 -1 -9.99902v-10v1zM366 612.002l38.0029 -24.001c0 -1.33301 -0.166992 -2.16602 -0.5 -2.49902l-1.5 -1.5c-10 -16 -22.333 -30.667 -37 -44s-32.334 -20 -53.001 -20c-11.333 0 -22.333 2 -33 6s-21 8.33301 -31 13
c-0.666992 0 -1.33398 0.166992 -2.00098 0.5s-1.33398 0.833008 -2.00098 1.5l-29.5 11.5c-9.66699 3.66699 -19.834 5.5 -30.501 5.5c-10 0 -17.833 -3.16699 -23.5 -9.5s-10.834 -13.5 -15.501 -21.5c-0.666992 -0.666992 -1.16699 -1.5 -1.5 -2.5
s-0.833008 -1.83301 -1.5 -2.5l-40 23c8.66699 15.333 19.167 29.833 31.5 43.5s28.5 21.167 48.5 22.5c12 0 23.333 -2 34 -6s21.334 -8.33301 32.001 -13c10 -5.33301 20.333 -10 31 -14s22 -6 34 -6c10.667 0 20 3.33301 28 10s14.667 14 20 22
c1.33301 1.33301 2.33301 2.5 3 3.5s1.33398 2.16699 2.00098 3.5v1z" />
    <glyph glyph-name="adieresis" unicode="&#xe4;" horiz-adv-x="507" 
d="M131 332l-71.999 0.00292969c0 64 17.667 102.5 53 115.5s79.333 19.5 132 19.5c64.667 0 114.5 -9 149.5 -27s52.5 -63.667 52.5 -137v-303h-65l3 48c-20 -26 -43.5 -41.833 -70.5 -47.5s-55.833 -8.5 -86.5 -8.5c-57.333 0 -102.333 8.5 -135 25.5s-49 57.5 -49 121.5
c0 62 17.167 101 51.5 117s77.833 24 130.5 24c7.33301 0 15 -0.166992 23 -0.5s16 -0.833008 24 -1.5c12 -0.666992 23.833 -2.16699 35.5 -4.5s22.834 -5.5 33.501 -9.5c7.33301 -2.66699 13.666 -6.83398 18.999 -12.501s10 -12.167 14 -19.5v57c0 56.667 -8 92 -24 106
s-52.667 21 -110 21c-5.33301 0 -11.666 -0.166992 -18.999 -0.5s-14.333 -0.833008 -21 -1.5c-10 -0.666992 -19.333 -2.33398 -28 -5.00098s-16 -6.33398 -22 -11.001c-6.66699 -4.66699 -11.334 -10.5 -14.001 -17.5s-4.33398 -14.5 -5.00098 -22.5
c-0.666992 -2 -1 -4.16699 -1 -6.5v-6.5v-6.5c0 -2.33301 0.333008 -4.83301 1 -7.5v1zM115.001 148.003c0 -41.333 8.33203 -68.501 24.999 -81.501s44.334 -19.5 83.001 -19.5h21c7.33301 0 14.666 0.333008 21.999 1c28 1.33301 53.667 7.5 77 18.5s35 33.833 35 68.5
c0 42 -12.667 67.667 -38 77s-55.666 14 -90.999 14l-17 1c-6 -0.666992 -12.333 -1 -19 -1s-13.334 -0.333008 -20.001 -1c-11.333 -1.33301 -22.5 -3.5 -33.5 -6.5s-20.167 -7.83301 -27.5 -14.5c-5.33301 -4 -9.16602 -9.33301 -11.499 -16s-3.83301 -13.667 -4.5 -21
c-0.666992 -3.33301 -1 -6.66602 -1 -9.99902v-10v1zM203 581.002v-66h-78v66h78v0zM381 581.002v-66h-79v66h79v0z" />
    <glyph glyph-name="aring" unicode="&#xe5;" horiz-adv-x="507" 
d="M131 332l-71.999 0.00292969c0 64 17.667 102.5 53 115.5s79.333 19.5 132 19.5c64.667 0 114.5 -9 149.5 -27s52.5 -63.667 52.5 -137v-303h-65l3 48c-20 -26 -43.5 -41.833 -70.5 -47.5s-55.833 -8.5 -86.5 -8.5c-57.333 0 -102.333 8.5 -135 25.5s-49 57.5 -49 121.5
c0 62 17.167 101 51.5 117s77.833 24 130.5 24c7.33301 0 15 -0.166992 23 -0.5s16 -0.833008 24 -1.5c12 -0.666992 23.833 -2.16699 35.5 -4.5s22.834 -5.5 33.501 -9.5c7.33301 -2.66699 13.666 -6.83398 18.999 -12.501s10 -12.167 14 -19.5v57c0 56.667 -8 92 -24 106
s-52.667 21 -110 21c-5.33301 0 -11.666 -0.166992 -18.999 -0.5s-14.333 -0.833008 -21 -1.5c-10 -0.666992 -19.333 -2.33398 -28 -5.00098s-16 -6.33398 -22 -11.001c-6.66699 -4.66699 -11.334 -10.5 -14.001 -17.5s-4.33398 -14.5 -5.00098 -22.5
c-0.666992 -2 -1 -4.16699 -1 -6.5v-6.5v-6.5c0 -2.33301 0.333008 -4.83301 1 -7.5v1zM115.001 148.003c0 -41.333 8.33203 -68.501 24.999 -81.501s44.334 -19.5 83.001 -19.5h21c7.33301 0 14.666 0.333008 21.999 1c28 1.33301 53.667 7.5 77 18.5s35 33.833 35 68.5
c0 42 -12.667 67.667 -38 77s-55.666 14 -90.999 14l-17 1c-6 -0.666992 -12.333 -1 -19 -1s-13.334 -0.333008 -20.001 -1c-11.333 -1.33301 -22.5 -3.5 -33.5 -6.5s-20.167 -7.83301 -27.5 -14.5c-5.33301 -4 -9.16602 -9.33301 -11.499 -16s-3.83301 -13.667 -4.5 -21
c-0.666992 -3.33301 -1 -6.66602 -1 -9.99902v-10v1zM254 500.002c-20.667 -0.666992 -38.667 6.66699 -54 22s-23 33.333 -23 54s7.66699 38.5 23 53.5s33.333 22.5 54 22.5s38.5 -7.5 53.5 -22.5s22.5 -32.833 22.5 -53.5s-7.5 -38.667 -22.5 -54s-32.833 -23 -53.5 -23v1
zM254 533.003c11.333 -0.666992 21.333 3.33301 30 12s13 19 13 31c0 11.333 -4.33301 21.333 -13 30s-18.667 13 -30 13c-12 0 -22.333 -4.33301 -31 -13s-13 -18.667 -13 -30c0 -12 4.33301 -22.333 13 -31s19 -13 31 -13v1z" />
    <glyph glyph-name="Otilde" unicode="&#xe6;" horiz-adv-x="828" 
d="M780 225l-332.002 -0.000976562v-5.5v-5.5c0 -5.33301 0.166992 -10.833 0.5 -16.5s0.5 -11.167 0.5 -16.5c0.666992 -14.667 1.83398 -29.167 3.50098 -43.5s4.5 -28.5 8.5 -42.5c4 -13.333 10.833 -23 20.5 -29s20.834 -10.333 33.501 -13l18.5 -2
c6.33301 -0.666992 12.5 -1 18.5 -1c6 -0.666992 12.167 -1 18.5 -1h18.5c33.333 0 61.666 3.33301 84.999 10s35 29.667 35 69v13h72v-5.5c0 -1.66699 0.333008 -3.5 1 -5.5v-4.5v-5.5c0 -56 -18.667 -91.167 -56 -105.5s-78.333 -21.833 -123 -22.5h-11h-10h-12h-11
c-32 1.33301 -62 6.5 -90 15.5s-48.333 29.833 -61 62.5c-11.333 -29.333 -30 -49 -56 -59s-53.333 -15.667 -82 -17c-5.33301 -0.666992 -10.666 -1 -15.999 -1h-16c-54 0 -100 8.16699 -138 24.5s-57 55.833 -57 118.5c0 59.333 16 97.833 48 115.5s74.333 26.5 127 26.5
c19.333 0 38.166 -0.5 56.499 -1.5s36.5 -4.16699 54.5 -9.5c11.333 -3.33301 20.666 -8.16602 27.999 -14.499s14.333 -13.833 21 -22.5v80c0 52.667 -10.667 84.167 -32 94.5s-56.666 15.5 -105.999 15.5c-28 0 -53 -3 -75 -9s-33 -26.333 -33 -61v-10h-72
c4.66699 61.333 21.334 98.5 50.001 111.5s70.334 19.5 125.001 19.5h27c9.33301 0 18.666 -0.333008 27.999 -1c16 -0.666992 31.833 -2.5 47.5 -5.5s30.834 -7.83301 45.501 -14.5c8.66699 -3.33301 15.5 -8.33301 20.5 -15s9.16699 -14.334 12.5 -23.001
c11.333 20 27 34.167 47 42.5s41 13.833 63 16.5c9.33301 0.666992 18.5 1.16699 27.5 1.5s17.5 0.5 25.5 0.5c95.333 0 152.666 -20.167 171.999 -60.5s29 -103.166 29 -188.499v1zM113.998 144.999c0 -47.333 11.834 -75.5 35.501 -84.5s55.5 -13.5 95.5 -13.5
c34.667 0 65.667 4.83301 93 14.5s41 35.167 41 76.5c0 3.33301 -0.166992 6.83301 -0.5 10.5s-0.833008 7.16699 -1.5 10.5c-1.33301 8 -3.66602 16 -6.99902 24s-8.33301 14.333 -15 19c-8 6 -17.833 10.333 -29.5 13s-23.834 4.66699 -36.501 6
c-10.667 0.666992 -21 1.16699 -31 1.5s-19 0.5 -27 0.5c-30.667 0 -57.834 -3.83301 -81.501 -11.5s-35.5 -30.167 -35.5 -67.5v1zM710.999 283.999c-0.666992 51.333 -8.33398 86.6689 -23.001 106.002s-49.667 29 -105 29h-21c-7.33301 0 -14.666 -0.333008 -21.999 -1
c-12 -1.33301 -23.833 -3.83301 -35.5 -7.5s-21.834 -9.5 -30.501 -17.5c-9.33301 -9.33301 -15.666 -20.5 -18.999 -33.5s-5.33301 -26.167 -6 -39.5c-0.666992 -3.33301 -1 -6.83301 -1 -10.5v-10.5c0 -2.66699 -0.166992 -5.33398 -0.5 -8.00098
s-0.5 -5.33398 -0.5 -8.00098l264 1v0z" />
    <glyph glyph-name="ccedilla" unicode="&#xe7;" horiz-adv-x="485" 
d="M244 -35l47 -27l-68 -95l-38 20l59 102v0zM384 169h69.002c0 -72.667 -14.833 -119.834 -44.5 -141.501s-80.167 -32.5 -151.5 -32.5c-98.667 0 -157.834 20 -177.501 60s-29.5 104 -29.5 192c0 79.333 13.667 136.5 41 171.5s82.333 52.5 165 52.5
c51.333 0 95.666 -8.33301 132.999 -25s56 -55.667 56 -117v-4v-4c-0.666992 -1.33301 -1 -2.66602 -1 -3.99902v-4l-68 1c0 44 -9.33301 71.833 -28 83.5s-49 17.5 -91 17.5c-60.667 0 -98.167 -11.167 -112.5 -33.5s-21.5 -64.166 -21.5 -125.499v-47
c0 -53.333 6 -93 18 -119s48.333 -39 109 -39c52 0 87.333 6.16699 106 18.5s28 45.166 28 98.499v1z" />
    <glyph glyph-name="egrave" unicode="&#xe8;" horiz-adv-x="502" 
d="M384 142l71.9971 -0.00195312c0 -69.333 -18.333 -111.333 -55 -126s-84.667 -22 -144 -22c-87.333 0 -144 16.667 -170 50s-39 92.333 -39 177c0 81.333 10 143.666 30 186.999s76.333 65 169 65c87.333 0 143.833 -14.667 169.5 -44s38.834 -87.333 39.501 -174v-34
h-336c0 -52.667 5.5 -94.667 16.5 -126s47.833 -47 110.5 -47l19 1c6.66699 -0.666992 13.834 -1 21.501 -1s15.834 0.666992 24.501 2c10 0.666992 19.667 2.33398 29 5.00098s17.333 6.33398 24 11.001s11.167 10.834 13.5 18.501s3.83301 15.5 4.5 23.5
c0.666992 2.66699 1 5.66699 1 9v9v16v0zM385.997 274.998c0 57.333 -6.83301 95.667 -20.5 115s-51.167 29 -112.5 29c-54 0 -89.5 -10 -106.5 -30s-25.5 -58.333 -25.5 -115l265 1v0zM203.997 659.999l132 -100l-23 -36l-144 88l35 48v0z" />
    <glyph glyph-name="eacute" unicode="&#xe9;" horiz-adv-x="502" 
d="M384 142l71.9971 -0.00195312c0 -69.333 -18.333 -111.333 -55 -126s-84.667 -22 -144 -22c-87.333 0 -144 16.667 -170 50s-39 92.333 -39 177c0 81.333 10 143.666 30 186.999s76.333 65 169 65c87.333 0 143.833 -14.667 169.5 -44s38.834 -87.333 39.501 -174v-34
h-336c0 -52.667 5.5 -94.667 16.5 -126s47.833 -47 110.5 -47l19 1c6.66699 -0.666992 13.834 -1 21.501 -1s15.834 0.666992 24.501 2c10 0.666992 19.667 2.33398 29 5.00098s17.333 6.33398 24 11.001s11.167 10.834 13.5 18.501s3.83301 15.5 4.5 23.5
c0.666992 2.66699 1 5.66699 1 9v9v16v0zM385.997 274.998c0 57.333 -6.83301 95.667 -20.5 115s-51.167 29 -112.5 29c-54 0 -89.5 -10 -106.5 -30s-25.5 -58.333 -25.5 -115l265 1v0zM300.997 659.999l35 -48l-143 -88l-24 36l132 100v0z" />
    <glyph glyph-name="ecircumflex" unicode="&#xea;" horiz-adv-x="502" 
d="M384 142l71.9971 -0.00195312c0 -69.333 -18.333 -111.333 -55 -126s-84.667 -22 -144 -22c-87.333 0 -144 16.667 -170 50s-39 92.333 -39 177c0 81.333 10 143.666 30 186.999s76.333 65 169 65c87.333 0 143.833 -14.667 169.5 -44s38.834 -87.333 39.501 -174v-34
h-336c0 -52.667 5.5 -94.667 16.5 -126s47.833 -47 110.5 -47l19 1c6.66699 -0.666992 13.834 -1 21.501 -1s15.834 0.666992 24.501 2c10 0.666992 19.667 2.33398 29 5.00098s17.333 6.33398 24 11.001s11.167 10.834 13.5 18.501s3.83301 15.5 4.5 23.5
c0.666992 2.66699 1 5.66699 1 9v9v16v0zM385.997 274.998c0 57.333 -6.83301 95.667 -20.5 115s-51.167 29 -112.5 29c-54 0 -89.5 -10 -106.5 -30s-25.5 -58.333 -25.5 -115l265 1v0zM253.997 653.999l153 -95l-21 -38l-132 61l-138 -61l-19 38l157 95v0z" />
    <glyph glyph-name="edieresis" unicode="&#xeb;" horiz-adv-x="502" 
d="M384 142l71.9971 -0.00195312c0 -69.333 -18.333 -111.333 -55 -126s-84.667 -22 -144 -22c-87.333 0 -144 16.667 -170 50s-39 92.333 -39 177c0 81.333 10 143.666 30 186.999s76.333 65 169 65c87.333 0 143.833 -14.667 169.5 -44s38.834 -87.333 39.501 -174v-34
h-336c0 -52.667 5.5 -94.667 16.5 -126s47.833 -47 110.5 -47l19 1c6.66699 -0.666992 13.834 -1 21.501 -1s15.834 0.666992 24.501 2c10 0.666992 19.667 2.33398 29 5.00098s17.333 6.33398 24 11.001s11.167 10.834 13.5 18.501s3.83301 15.5 4.5 23.5
c0.666992 2.66699 1 5.66699 1 9v9v16v0zM385.997 274.998c0 57.333 -6.83301 95.667 -20.5 115s-51.167 29 -112.5 29c-54 0 -89.5 -10 -106.5 -30s-25.5 -58.333 -25.5 -115l265 1v0zM201.997 580.999v-66h-78v66h78v0zM379.997 580.999v-66h-79v66h79v0z" />
    <glyph glyph-name="igrave" unicode="&#xec;" horiz-adv-x="191" 
d="M131 467v-467h-71v467h71v0zM47 660l132 -100l-23 -36l-144 88l35 48v0z" />
    <glyph glyph-name="iacute" unicode="&#xed;" horiz-adv-x="191" 
d="M131 467v-467h-71v467h71v0zM144 660l35 -48l-143 -88l-24 36l132 100v0z" />
    <glyph glyph-name="icircumflex" unicode="&#xee;" horiz-adv-x="191" 
d="M131 467v-467h-71v467h71v0zM98 654l153 -95l-21 -38l-132 61l-138 -61l-19 38l157 95v0z" />
    <glyph glyph-name="idieresis" unicode="&#xef;" horiz-adv-x="191" 
d="M131 467v-467h-71v467h71v0zM45 580v-66h-78v66h78v0zM223 580v-66h-79v66h79v0z" />
    <glyph glyph-name="glyph233" unicode="&#xf0;" horiz-adv-x="525" 
d="M116 645l14 30c7.33301 -2 15.833 -4.66699 25.5 -8s19.5 -7 29.5 -11l14 -6l14 -6c6 -2.66699 12 -5.5 18 -8.5s11 -5.83301 15 -8.5l92 68l20 -27l-78 -56c67.333 -44 118.833 -95.5 154.5 -154.5s53.5 -129.5 53.5 -211.5c0 -68.667 -19.667 -129.167 -59 -181.5
s-96 -78.5 -170 -78.5c-71.333 0 -126.333 24.667 -165 74s-58 107.333 -58 174c0 64 18.167 119.833 54.5 167.5s88.833 71.5 157.5 71.5c4.66699 0 9.16699 -0.166992 13.5 -0.5s8.83301 -0.833008 13.5 -1.5c18 -3.33301 35.5 -9.16602 52.5 -17.499
s31.833 -18.5 44.5 -30.5l-6 11.5c-2 3.66699 -4.33301 7.5 -7 11.5c-13.333 23.333 -27.5 44.333 -42.5 63s-33.167 36.667 -54.5 54c-4 3.33301 -8 6.5 -12 9.5s-8 6.16699 -12 9.5l-92 -67l-19 28l81 59c-14.667 8 -29.667 15.667 -45 23s-31 13.666 -47 18.999v1z
M271 435c-57.333 -0.666992 -98.8311 -21.5 -124.498 -62.5s-38.5 -87.833 -38.5 -140.5v-6.5v-7.5c2 -45.333 15.167 -86.833 39.5 -124.5s62.166 -56.5 113.499 -56.5c53.333 0 91.666 19.333 114.999 58s36.333 81 39 127c0.666992 4 1 8.16699 1 12.5v12.5v6.5v7.5
c-2 43.333 -14 83 -36 119s-58.333 54 -109 54v1z" />
    <glyph glyph-name="ntilde" unicode="&#xf1;" horiz-adv-x="515" 
d="M60 467l65.001 -0.000976562v-60c18 28 41 46.5 69 55.5s58 13.5 90 13.5c63.333 0 107.666 -12.167 132.999 -36.5s38 -68.166 38 -131.499v-308h-71v303c0 46 -7.33301 76.667 -22 92s-45.667 23 -93 23c-44.667 0 -79 -10.333 -103 -31s-36 -54.667 -36 -102v-285h-70
v467v0zM371.001 611.999l38.0029 -24.001c0 -1.33301 -0.166992 -2.16602 -0.5 -2.49902l-1.5 -1.5c-10 -16 -22.333 -30.667 -37 -44s-32.334 -20 -53.001 -20c-11.333 0 -22.333 2 -33 6s-21 8.33301 -31 13c-0.666992 0 -1.33398 0.166992 -2.00098 0.5
s-1.33398 0.833008 -2.00098 1.5l-29.5 11.5c-9.66699 3.66699 -19.834 5.5 -30.501 5.5c-10 0 -17.833 -3.16699 -23.5 -9.5s-10.834 -13.5 -15.501 -21.5c-0.666992 -0.666992 -1.16699 -1.5 -1.5 -2.5s-0.833008 -1.83301 -1.5 -2.5l-40 23
c8.66699 15.333 19.167 29.833 31.5 43.5s28.5 21.167 48.5 22.5c12 0 23.333 -2 34 -6s21.334 -8.33301 32.001 -13c10 -5.33301 20.333 -10 31 -14s22 -6 34 -6c10.667 0 20 3.33301 28 10s14.667 14 20 22c1.33301 1.33301 2.33301 2.5 3 3.5
s1.33398 2.16699 2.00098 3.5v1z" />
    <glyph glyph-name="ograve" unicode="&#xf2;" horiz-adv-x="507" 
d="M54 246c0 78.667 11.833 136.333 35.5 173s78.167 55 163.5 55c89.333 0 147.333 -15.5 174 -46.5s40 -90.5 40 -178.5c0 -76.667 -8.16699 -138.667 -24.5 -186s-72.5 -71 -168.5 -71c-83.333 0 -140.833 13 -172.5 39s-47.5 82.667 -47.5 170v45v0zM126 246.999
l-0.00195312 -38.998v-22.5c0 -7.66699 0.333008 -15.167 1 -22.5c1.33301 -19.333 4 -37.666 8 -54.999s10.333 -30.666 19 -39.999c7.33301 -6.66699 16.333 -11.334 27 -14.001s22 -4.33398 34 -5.00098h7.5h7.5l32 1c40.667 -0.666992 71.834 4.66602 93.501 15.999
s33.834 39 36.501 83c0.666992 9.33301 1.16699 18.333 1.5 27s0.5 17.667 0.5 27c0.666992 8.66699 1 17.5 1 26.5v26.5c0 57.333 -5.33301 98.333 -16 123s-44.667 37 -102 37l-15 1c-60.667 -0.666992 -98.5 -10.334 -113.5 -29.001s-22.5 -61 -22.5 -127v-14v0z
M211.998 660.001l132 -100l-23 -36l-144 88l35 48v0z" />
    <glyph glyph-name="oacute" unicode="&#xf3;" horiz-adv-x="507" 
d="M54 246c0 78.667 11.833 136.333 35.5 173s78.167 55 163.5 55c89.333 0 147.333 -15.5 174 -46.5s40 -90.5 40 -178.5c0 -76.667 -8.16699 -138.667 -24.5 -186s-72.5 -71 -168.5 -71c-83.333 0 -140.833 13 -172.5 39s-47.5 82.667 -47.5 170v45v0zM126 246.999
l-0.00195312 -38.998v-22.5c0 -7.66699 0.333008 -15.167 1 -22.5c1.33301 -19.333 4 -37.666 8 -54.999s10.333 -30.666 19 -39.999c7.33301 -6.66699 16.333 -11.334 27 -14.001s22 -4.33398 34 -5.00098h7.5h7.5l32 1c40.667 -0.666992 71.834 4.66602 93.501 15.999
s33.834 39 36.501 83c0.666992 9.33301 1.16699 18.333 1.5 27s0.5 17.667 0.5 27c0.666992 8.66699 1 17.5 1 26.5v26.5c0 57.333 -5.33301 98.333 -16 123s-44.667 37 -102 37l-15 1c-60.667 -0.666992 -98.5 -10.334 -113.5 -29.001s-22.5 -61 -22.5 -127v-14v0z
M308.998 660.001l35 -48l-143 -88l-24 36l132 100v0z" />
    <glyph glyph-name="ocircumflex" unicode="&#xf4;" horiz-adv-x="507" 
d="M54 246c0 78.667 11.833 136.333 35.5 173s78.167 55 163.5 55c89.333 0 147.333 -15.5 174 -46.5s40 -90.5 40 -178.5c0 -76.667 -8.16699 -138.667 -24.5 -186s-72.5 -71 -168.5 -71c-83.333 0 -140.833 13 -172.5 39s-47.5 82.667 -47.5 170v45v0zM126 246.999
l-0.00195312 -38.998v-22.5c0 -7.66699 0.333008 -15.167 1 -22.5c1.33301 -19.333 4 -37.666 8 -54.999s10.333 -30.666 19 -39.999c7.33301 -6.66699 16.333 -11.334 27 -14.001s22 -4.33398 34 -5.00098h7.5h7.5l32 1c40.667 -0.666992 71.834 4.66602 93.501 15.999
s33.834 39 36.501 83c0.666992 9.33301 1.16699 18.333 1.5 27s0.5 17.667 0.5 27c0.666992 8.66699 1 17.5 1 26.5v26.5c0 57.333 -5.33301 98.333 -16 123s-44.667 37 -102 37l-15 1c-60.667 -0.666992 -98.5 -10.334 -113.5 -29.001s-22.5 -61 -22.5 -127v-14v0z
M262.998 654.001l153 -95l-21 -38l-132 61l-138 -61l-19 38l157 95v0z" />
    <glyph glyph-name="otilde" unicode="&#xf5;" horiz-adv-x="507" 
d="M54 246c0 78.667 11.833 136.333 35.5 173s78.167 55 163.5 55c89.333 0 147.333 -15.5 174 -46.5s40 -90.5 40 -178.5c0 -76.667 -8.16699 -138.667 -24.5 -186s-72.5 -71 -168.5 -71c-83.333 0 -140.833 13 -172.5 39s-47.5 82.667 -47.5 170v45v0zM126 246.999
l-0.00195312 -38.998v-22.5c0 -7.66699 0.333008 -15.167 1 -22.5c1.33301 -19.333 4 -37.666 8 -54.999s10.333 -30.666 19 -39.999c7.33301 -6.66699 16.333 -11.334 27 -14.001s22 -4.33398 34 -5.00098h7.5h7.5l32 1c40.667 -0.666992 71.834 4.66602 93.501 15.999
s33.834 39 36.501 83c0.666992 9.33301 1.16699 18.333 1.5 27s0.5 17.667 0.5 27c0.666992 8.66699 1 17.5 1 26.5v26.5c0 57.333 -5.33301 98.333 -16 123s-44.667 37 -102 37l-15 1c-60.667 -0.666992 -98.5 -10.334 -113.5 -29.001s-22.5 -61 -22.5 -127v-14v0z
M373.998 612.001l38.0029 -24.001c0 -1.33301 -0.166992 -2.16602 -0.5 -2.49902l-1.5 -1.5c-10 -16 -22.333 -30.667 -37 -44s-32.334 -20 -53.001 -20c-11.333 0 -22.333 2 -33 6s-21 8.33301 -31 13c-0.666992 0 -1.33398 0.166992 -2.00098 0.5
s-1.33398 0.833008 -2.00098 1.5l-29.5 11.5c-9.66699 3.66699 -19.834 5.5 -30.501 5.5c-10 0 -17.833 -3.16699 -23.5 -9.5s-10.834 -13.5 -15.501 -21.5c-0.666992 -0.666992 -1.16699 -1.5 -1.5 -2.5s-0.833008 -1.83301 -1.5 -2.5l-40 23
c8.66699 15.333 19.167 29.833 31.5 43.5s28.5 21.167 48.5 22.5c12 0 23.333 -2 34 -6s21.334 -8.33301 32.001 -13c10 -5.33301 20.333 -10 31 -14s22 -6 34 -6c10.667 0 20 3.33301 28 10s14.667 14 20 22c1.33301 1.33301 2.33301 2.5 3 3.5
s1.33398 2.16699 2.00098 3.5v1z" />
    <glyph glyph-name="odieresis" unicode="&#xf6;" horiz-adv-x="507" 
d="M54 246c0 78.667 11.833 136.333 35.5 173s78.167 55 163.5 55c89.333 0 147.333 -15.5 174 -46.5s40 -90.5 40 -178.5c0 -76.667 -8.16699 -138.667 -24.5 -186s-72.5 -71 -168.5 -71c-83.333 0 -140.833 13 -172.5 39s-47.5 82.667 -47.5 170v45v0zM126 246.999
l-0.00195312 -38.998v-22.5c0 -7.66699 0.333008 -15.167 1 -22.5c1.33301 -19.333 4 -37.666 8 -54.999s10.333 -30.666 19 -39.999c7.33301 -6.66699 16.333 -11.334 27 -14.001s22 -4.33398 34 -5.00098h7.5h7.5l32 1c40.667 -0.666992 71.834 4.66602 93.501 15.999
s33.834 39 36.501 83c0.666992 9.33301 1.16699 18.333 1.5 27s0.5 17.667 0.5 27c0.666992 8.66699 1 17.5 1 26.5v26.5c0 57.333 -5.33301 98.333 -16 123s-44.667 37 -102 37l-15 1c-60.667 -0.666992 -98.5 -10.334 -113.5 -29.001s-22.5 -61 -22.5 -127v-14v0z
M210.998 581.001v-66h-78v66h78v0zM388.998 581.001v-66h-79v66h79v0z" />
    <glyph glyph-name="Aacute" unicode="&#xf7;" 
 />
    <glyph glyph-name="OE" unicode="&#xf8;" horiz-adv-x="495" 
d="M465 477l0.000976562 -61.998l-33 -31c7.33301 -17.333 11.833 -34.833 13.5 -52.5s2.5 -35.5 2.5 -53.5v-41v-21c0 -6.66699 -0.333008 -13.667 -1 -21c-0.666992 -20 -2.33398 -40.167 -5.00098 -60.5s-7.33398 -40.166 -14.001 -59.499
c-11.333 -32.667 -30.666 -53.834 -57.999 -63.501s-56.333 -15.167 -87 -16.5c-7.33301 -0.666992 -14.5 -1 -21.5 -1h-21.5c-10 0 -20.333 0.166992 -31 0.5s-21.667 1.16602 -33 2.49902c-19.333 2 -38.166 6.16699 -56.499 12.5s-33.833 16.166 -46.5 29.499l-56 -55v62
l37 34c-2.66699 6 -5 12.167 -7 18.5s-3.66699 12.833 -5 19.5c-1.33301 11.333 -2.5 22.5 -3.5 33.5s-1.5 22.167 -1.5 33.5c-0.666992 10.667 -1 21.667 -1 33v33c0 81.333 12.167 139 36.5 173s78.5 51 162.5 51h19c6.66699 0 13 -0.333008 19 -1
c26 -0.666992 51.167 -4 75.5 -10s46.166 -18.333 65.499 -37l51 50v0zM122.001 86.002c6 -12 15.3359 -20.334 28.0029 -25.001s26 -7.66699 40 -9c6.66699 -0.666992 13.167 -1.16699 19.5 -1.5s12.5 -0.5 18.5 -0.5c55.333 0 92.666 7 111.999 21
s30.666 48.667 33.999 104c1.33301 12 2.16602 24 2.49902 36s0.5 24 0.5 36c0 13.333 -0.333008 26.833 -1 40.5s-2 26.834 -4 39.501l-250 -241v0zM364.004 380.001c-2.66699 4.66699 -6.16699 9.33594 -10.5 14.0029s-9.5 8.33398 -15.5 11.001
c-10.667 4.66699 -21.667 7.66699 -33 9s-23 2.33301 -35 3h-8.5h-8.5l-27 1c-44.667 -0.666992 -74.5 -7.16699 -89.5 -19.5s-24.167 -44.833 -27.5 -97.5l-2 -42.5c-0.666992 -14.333 -1 -28.833 -1 -43.5c0 -6.66699 0.166992 -13.334 0.5 -20.001
s0.833008 -13.334 1.5 -20.001c0 -6.66699 0.5 -13.334 1.5 -20.001s1.83301 -13.334 2.5 -20.001l252 245v0z" />
    <glyph glyph-name="ugrave" unicode="&#xf9;" horiz-adv-x="507" 
d="M447 467v-467h-65v62c-20 -30.667 -42.833 -49.834 -68.5 -57.501s-56.167 -11.5 -91.5 -11.5c-56 0 -97 13 -123 39s-39 67 -39 123v312h71v-311c0 -41.333 7 -69.333 21 -84s42.333 -22 85 -22c55.333 0 92.333 10.333 111 31s28 57.334 28 110.001v276h71v0zM205 659
l132 -100l-23 -36l-144 88l35 48v0z" />
    <glyph glyph-name="uacute" unicode="&#xfa;" horiz-adv-x="507" 
d="M447 467v-467h-65v62c-20 -30.667 -42.833 -49.834 -68.5 -57.501s-56.167 -11.5 -91.5 -11.5c-56 0 -97 13 -123 39s-39 67 -39 123v312h71v-311c0 -41.333 7 -69.333 21 -84s42.333 -22 85 -22c55.333 0 92.333 10.333 111 31s28 57.334 28 110.001v276h71v0zM302 659
l35 -48l-143 -88l-24 36l132 100v0z" />
    <glyph glyph-name="ucircumflex" unicode="&#xfb;" horiz-adv-x="507" 
d="M447 467v-467h-65v62c-20 -30.667 -42.833 -49.834 -68.5 -57.501s-56.167 -11.5 -91.5 -11.5c-56 0 -97 13 -123 39s-39 67 -39 123v312h71v-311c0 -41.333 7 -69.333 21 -84s42.333 -22 85 -22c55.333 0 92.333 10.333 111 31s28 57.334 28 110.001v276h71v0zM255 654
l153 -95l-21 -38l-132 61l-138 -61l-19 38l157 95v0z" />
    <glyph glyph-name="udieresis" unicode="&#xfc;" horiz-adv-x="507" 
d="M447 467v-467h-65v62c-20 -30.667 -42.833 -49.834 -68.5 -57.501s-56.167 -11.5 -91.5 -11.5c-56 0 -97 13 -123 39s-39 67 -39 123v312h71v-311c0 -41.333 7 -69.333 21 -84s42.333 -22 85 -22c55.333 0 92.333 10.333 111 31s28 57.334 28 110.001v276h71v0zM203 580
v-66h-78v66h78v0zM381 580v-66h-79v66h79v0z" />
    <glyph glyph-name="yacute" unicode="&#xfd;" 
 />
    <glyph glyph-name="glyph237" unicode="&#xfe;" horiz-adv-x="551" 
d="M131 666l0.00195312 -298.999c18 38 40.833 68.167 68.5 90.5s63.834 33.5 108.501 33.5c70 0 122 -26 156 -78s51 -109.667 51 -173v-2.5v-3.5c-0.666992 -62.667 -17.834 -119.834 -51.501 -171.501s-85.834 -77.5 -156.501 -77.5
c-38.667 0 -73.834 10.333 -105.501 31s-54.167 49 -67.5 85l-1 -265h-70v830h68v0zM290.002 433.001c-50.667 -0.666992 -89.002 -19.833 -115.002 -57.5s-40.333 -79.167 -43 -124.5v-7.5v-6.5v-8v-8c2.66699 -45.333 15.834 -87 39.501 -125s61.834 -57 114.501 -57
c57.333 0 97.833 20.667 121.5 62s35.5 87 35.5 137v8v8c-2.66699 44.667 -16.167 85.5 -40.5 122.5s-61.833 55.5 -112.5 55.5v1z" />
    <glyph glyph-name="Egrave" unicode="&#xff;" horiz-adv-x="389" 
d="M392 467l-131.998 -493.998c-1.33301 -4.66699 -2.5 -9.33398 -3.5 -14.001s-2.16699 -9.33398 -3.5 -14.001c-11.333 -39.333 -27.833 -75.166 -49.5 -107.499s-55.834 -48.5 -102.501 -48.5c-5.33301 0 -10.833 0.5 -16.5 1.5s-11.167 2.16699 -16.5 3.5v57
c2 -0.666992 4.16699 -1.16699 6.5 -1.5s4.5 -0.5 6.5 -0.5c2 -0.666992 4.16699 -1 6.5 -1h6.5c24 0 42.167 9.5 54.5 28.5s21.5 39.833 27.5 62.5c3.33301 11.333 6.16602 22.166 8.49902 32.499l6.5 28.5h-25l-169 467h71l146 -416l106 416h72v0zM145.002 580.002v-66
h-78v66h78v0zM323.002 580.002v-66h-79v66h79v0z" />
    <glyph glyph-name="Abreve" unicode="&#x102;" 
 />
    <glyph glyph-name="abreve" unicode="&#x103;" 
 />
    <glyph glyph-name="Aogonek" unicode="&#x104;" 
 />
    <glyph glyph-name="aogonek" unicode="&#x105;" 
 />
    <glyph glyph-name="Cacute" unicode="&#x106;" 
 />
    <glyph glyph-name="cacute" unicode="&#x107;" 
 />
    <glyph glyph-name="Ccaron" unicode="&#x10c;" 
 />
    <glyph glyph-name="ccaron" unicode="&#x10d;" 
 />
    <glyph glyph-name="Dcaron" unicode="&#x10e;" 
 />
    <glyph glyph-name="dcaron" unicode="&#x10f;" 
 />
    <glyph glyph-name="Dcroat" unicode="&#x110;" 
 />
    <glyph glyph-name="dcroat" unicode="&#x111;" 
 />
    <glyph glyph-name="Eogonek" unicode="&#x118;" 
 />
    <glyph glyph-name="eogonek" unicode="&#x119;" 
 />
    <glyph glyph-name="Ecaron" unicode="&#x11a;" 
 />
    <glyph glyph-name="ecaron" unicode="&#x11b;" 
 />
    <glyph glyph-name="Gbreve" unicode="&#x11e;" 
 />
    <glyph glyph-name="gbreve" unicode="&#x11f;" 
 />
    <glyph glyph-name="Idotaccent" unicode="&#x130;" 
 />
    <glyph glyph-name="thorn" unicode="&#x131;" horiz-adv-x="191" 
d="M131 467v-467h-71v467h71v0z" />
    <glyph glyph-name="Lacute" unicode="&#x139;" 
 />
    <glyph glyph-name="lacute" unicode="&#x13a;" 
 />
    <glyph glyph-name="Lcaron" unicode="&#x13d;" 
 />
    <glyph glyph-name="lcaron" unicode="&#x13e;" 
 />
    <glyph glyph-name="Ldot" unicode="&#x13f;" 
 />
    <glyph glyph-name="ldot" unicode="&#x140;" 
 />
    <glyph glyph-name="glyph225" unicode="&#x141;" horiz-adv-x="496" 
d="M153 355v-286h339v-69h-418v291l-71 -71v77l71 69v301h79v-237l140 137v-76l-140 -136v0z" />
    <glyph glyph-name="glyph226" unicode="&#x142;" horiz-adv-x="194" 
d="M133 380v-380h-71v323l-58 -57v63l58 57v281h71v-225l58 56v-61l-58 -57v0z" />
    <glyph glyph-name="Nacute" unicode="&#x143;" 
 />
    <glyph glyph-name="nacute" unicode="&#x144;" 
 />
    <glyph glyph-name="Ncaron" unicode="&#x147;" 
 />
    <glyph glyph-name="ncaron" unicode="&#x148;" 
 />
    <glyph glyph-name="Ohungarumlaut" unicode="&#x150;" 
 />
    <glyph glyph-name="ohungarumlaut" unicode="&#x151;" 
 />
    <glyph glyph-name="fi" unicode="&#x152;" horiz-adv-x="986" 
d="M609 596l-0.000976562 -217.999h337v-67h-337v-242h352v-66h-424v66c-14 -24.667 -33.5 -42.167 -58.5 -52.5s-50.833 -16.833 -77.5 -19.5c-8 -0.666992 -16 -1.16699 -24 -1.5s-16 -0.5 -24 -0.5c-98.667 0 -174.834 12.167 -228.501 36.5s-80.5 93.833 -80.5 208.5v18
c0 6 0.333008 12 1 18v17.5v16.5v111c0.666992 102.667 21.667 169.5 63 200.5s110.666 46.5 207.999 46.5h32c10.667 0 21.667 -0.333008 33 -1c10.667 -0.666992 21.334 -1.5 32.001 -2.5s21.334 -2.5 32.001 -4.5c21.333 -4.66699 39.333 -11.834 54 -21.501
s27.334 -24.167 38.001 -43.5v69h424v-68h-352v0zM320.999 60.001c75.333 -0.666992 128.832 6.3291 160.499 20.9961s48.5 62.334 50.5 143.001v104l2 102c0 76.667 -12.667 124.334 -38 143.001s-74.666 28 -147.999 28l-71 1
c-71.333 -0.666992 -115.333 -16.167 -132 -46.5s-25 -80.5 -25 -150.5v-34.5v-34.5c-0.666992 -12 -1 -23.833 -1 -35.5v-34.5c0 -57.333 5.83301 -105.166 17.5 -143.499s52.167 -59.166 121.5 -62.499c10.667 -0.666992 21.167 -1 31.5 -1h31.5v1z" />
    <glyph glyph-name="fl" unicode="&#x153;" horiz-adv-x="837" 
d="M789 226h-330v-7.5v-6.5c-0.666992 -2 -1 -4.16699 -1 -6.5v-6.5c0 -50 6 -87.333 18 -112s46 -37 102 -37l26 1c37.333 -0.666992 66.166 4 86.499 14s30.5 35.333 30.5 76l69 1c0 -65.333 -15.667 -106.333 -47 -123s-77.666 -25 -138.999 -25h-6h-24.5
c-8.33301 0 -16.833 0.333008 -25.5 1c-25.333 1.33301 -49.666 6 -72.999 14s-41.333 24.333 -54 49c-11.333 -26 -28.5 -43 -51.5 -51s-47.167 -12.667 -72.5 -14c-6.66699 -0.666992 -13.334 -1 -20.001 -1h-20c-48 0 -91.5 6.66699 -130.5 20s-63.167 48 -72.5 104
c-2.66699 20.667 -4.66699 41.167 -6 61.5s-2 40.833 -2 61.5c0 85.333 12 145.5 36 180.5s81.333 52.5 172 52.5h23c8 0 16 -0.333008 24 -1c14 -0.666992 27.667 -2.33398 41 -5.00098s26.333 -6.66699 39 -12c11.333 -4.66699 20.166 -11.167 26.499 -19.5
s10.833 -18.166 13.5 -29.499c10.667 24 27 40.5 49 49.5s45 14.5 69 16.5c8.66699 0.666992 17 1.16699 25 1.5s16 0.5 24 0.5c72.667 0 124.334 -13 155.001 -39s46 -76.667 46 -152v-56v0zM119 239l0.00390625 -30c0 -60.667 6.16699 -102.834 18.5 -126.501
s49.833 -35.5 112.5 -35.5l9 1c6 -0.666992 13.167 -0.833984 21.5 -0.500977s16.833 0.833008 25.5 1.5c11.333 2 22.166 4.66699 32.499 8s18.166 8.33301 23.499 15c7.33301 8.66699 12.666 20.834 15.999 36.501s5.66602 32.167 6.99902 49.5
c0.666992 8.66699 1 17.167 1 25.5v23.5v36c0 8 -0.166992 17.833 -0.5 29.5s-0.833008 23.5 -1.5 35.5c-1.33301 16.667 -3.83301 32.834 -7.5 48.501s-9.16699 27.5 -16.5 35.5c-6 7.33301 -14.5 12.333 -25.5 15s-22.5 4.33398 -34.5 5.00098c-4 0.666992 -8 1 -12 1h-12
l-44 1c-4.66699 -0.666992 -9.5 -1 -14.5 -1s-9.83301 -0.333008 -14.5 -1c-12.667 -0.666992 -24.667 -2.83398 -36 -6.50098s-20 -9.83398 -26 -18.501c-6 -8 -10.5 -19.167 -13.5 -33.5s-5.16699 -29.166 -6.5 -44.499c-0.666992 -11.333 -1.16699 -22.333 -1.5 -33
s-0.5 -20 -0.5 -28v-9v0zM719.004 284c-2 52.667 -9 88 -21 106s-48.333 27 -109 27c-54.667 0 -90.167 -9 -106.5 -27s-24.833 -53.667 -25.5 -107l262 1v0z" />
    <glyph glyph-name="Racute" unicode="&#x154;" 
 />
    <glyph glyph-name="racute" unicode="&#x155;" 
 />
    <glyph glyph-name="Rcaron" unicode="&#x158;" 
 />
    <glyph glyph-name="rcaron" unicode="&#x159;" 
 />
    <glyph glyph-name="Sacute" unicode="&#x15a;" 
 />
    <glyph glyph-name="sacute" unicode="&#x15b;" 
 />
    <glyph glyph-name="Scedilla" unicode="&#x15e;" 
 />
    <glyph glyph-name="scedilla" unicode="&#x15f;" 
 />
    <glyph glyph-name="glyph227" unicode="&#x160;" horiz-adv-x="560" 
d="M520 484l-72.9971 -0.00976562c-2.66699 48.667 -12 81.167 -28 97.5s-49.667 24.5 -101 24.5l-36 1c-8.66699 -0.666992 -18.5 -1.16699 -29.5 -1.5s-22.5 -0.833008 -34.5 -1.5c-14 -1.33301 -27.667 -3.33301 -41 -6s-24.333 -6.66699 -33 -12
c-10.667 -6.66699 -18.5 -15.667 -23.5 -27s-8.16699 -23 -9.5 -35c-0.666992 -5.33301 -1.16699 -10.666 -1.5 -15.999s-0.5 -10.333 -0.5 -15c0 -36.667 5.83301 -64.5 17.5 -83.5s38.834 -29.833 81.501 -32.5c14.667 -1.33301 29 -2.16602 43 -2.49902s28 -0.5 42 -0.5
c66 -1.33301 122.5 -9.83301 169.5 -25.5s70.5 -67.167 70.5 -154.5c0 -50.667 -7.5 -94.167 -22.5 -130.5s-52.833 -57.5 -113.5 -63.5c-10.667 -0.666992 -21.334 -1.16699 -32.001 -1.5s-21 -0.833008 -31 -1.5c-10.667 -0.666992 -21.334 -1 -32.001 -1h-32
c-69.333 0 -126.666 8.83301 -171.999 26.5s-68 68.5 -68 152.5v8c0 2.66699 0.333008 5.33398 1 8.00098c0 2.66699 0.166992 5.33398 0.5 8.00098s0.5 5.33398 0.5 8.00098l72 1c0 -61.333 8.5 -101.333 25.5 -120s56.167 -28 117.5 -28l63 1
c55.333 -0.666992 93.666 5.83301 114.999 19.5s32 48.834 32 105.501c0 44.667 -6.5 74.334 -19.5 89.001s-41.167 23 -84.5 25c-10 0.666992 -20 1.16699 -30 1.5s-20 0.5 -30 0.5c-70 2.66699 -130.667 12.334 -182 29.001s-77 69.334 -77 158.001
c0 80.667 20.667 131 62 151s96.666 30 165.999 30l18 1c69.333 -0.666992 126.666 -9.16699 171.999 -25.5s68 -67.166 68 -152.499v-9v0zM278.003 707.99l-153 96l21 37l132 -60l138 60l19 -37l-157 -96v0z" />
    <glyph glyph-name="glyph228" unicode="&#x161;" horiz-adv-x="477" 
d="M426 346l-70.001 -0.00292969c0 24.667 -4 42.334 -12 53.001s-25.333 16.667 -52 18c-12.667 0.666992 -25.5 1 -38.5 1h-39.5h-14.5c-5 0 -10.167 -0.333008 -15.5 -1c-10 -0.666992 -19.667 -2 -29 -4s-17.666 -5.66699 -24.999 -11
c-6 -4.66699 -10 -10.334 -12 -17.001s-3.33301 -13.667 -4 -21v-8v-8c0 -28.667 4.5 -48.167 13.5 -58.5s27.833 -16.166 56.5 -17.499c8.66699 -0.666992 17.5 -1 26.5 -1h26.5c51.333 -0.666992 98 -7 140 -19s63 -50.333 63 -115c0 -68 -18.333 -109 -55 -123
s-84 -21 -142 -21h-8h-8c-47.333 0.666992 -90.5 7.66699 -129.5 21s-58.5 49 -58.5 107v6.5c0 2.33301 0.333008 4.5 1 6.5c0 2 0.166992 4.16699 0.5 6.5s0.5 4.5 0.5 6.5l70 1c0 -43.333 8.16699 -71.166 24.5 -83.499s44.833 -18.5 85.5 -18.5l17 1
c6.66699 -0.666992 14 -0.833984 22 -0.500977s16.333 0.833008 25 1.5c11.333 0.666992 22.666 2.33398 33.999 5.00098s20.666 6.66699 27.999 12c6.66699 4.66699 11.5 11 14.5 19s4.83301 16.333 5.5 25c0.666992 4 1 8 1 12v12c0 36.667 -9.5 58 -28.5 64
s-42.5 9 -70.5 9h-2h-2c-4 0.666992 -8.16699 1 -12.5 1h-13.5c-3.33301 0 -6.66602 0.166992 -9.99902 0.5s-6.66602 0.5 -9.99902 0.5c-48 2 -89.167 8.83301 -123.5 20.5s-51.5 46.834 -51.5 105.501c0 6 0.166992 12.167 0.5 18.5s0.833008 12.833 1.5 19.5
c1.33301 13.333 4.33301 26.166 9 38.499s12.334 22.5 23.001 30.5c11.333 8.66699 24.666 15.334 39.999 20.001s31.333 8 48 10c11.333 1.33301 22.5 2.16602 33.5 2.49902s21.167 0.5 30.5 0.5h26.5c9 0 18.167 -0.333008 27.5 -1c36 -2 68.833 -10 98.5 -24
s44.5 -43 44.5 -87v-4.5v-4.5c-0.666992 -1.33301 -1 -2.66602 -1 -3.99902v-4v1zM237.999 521.997l-153 96l21 37l132 -60l138 60l19 -37l-157 -96v0z" />
    <glyph glyph-name="Tcommaaccent" unicode="&#x162;" 
 />
    <glyph glyph-name="tcommaaccent" unicode="&#x163;" 
 />
    <glyph glyph-name="Tcaron" unicode="&#x164;" 
 />
    <glyph glyph-name="tcaron" unicode="&#x165;" 
 />
    <glyph glyph-name="Uring" unicode="&#x16e;" 
 />
    <glyph glyph-name="uring" unicode="&#x16f;" 
 />
    <glyph glyph-name="Uhungarumlaut" unicode="&#x170;" 
 />
    <glyph glyph-name="uhungarumlaut" unicode="&#x171;" 
 />
    <glyph glyph-name="Iacute" unicode="&#x178;" horiz-adv-x="562" 
d="M567 667l-252 -388v-279h-75v279l-245 388h87l198 -312l198 312h89v0zM231 790v-66h-78v66h78v0zM409 790v-66h-79v66h79v0z" />
    <glyph glyph-name="Zacute" unicode="&#x179;" 
 />
    <glyph glyph-name="zacute" unicode="&#x17a;" 
 />
    <glyph glyph-name="Zdotaccent" unicode="&#x17b;" 
 />
    <glyph glyph-name="zdotaccent" unicode="&#x17c;" 
 />
    <glyph glyph-name="Zcaron" unicode="&#x17d;" 
 />
    <glyph glyph-name="zcaron" unicode="&#x17e;" 
 />
    <glyph glyph-name="quotedblright" unicode="&#x192;" horiz-adv-x="613" 
d="M367 443l-78 -439c-9.33301 -53.333 -24.166 -89.833 -44.499 -109.5s-59.5 -29.5 -117.5 -29.5h-14c-4.66699 0 -9.33398 0.333008 -14.001 1c-4.66699 0 -9.33398 0.333008 -14.001 1l-14 2l10 57c8.66699 -1.33301 17.167 -2.33301 25.5 -3s16.833 -1 25.5 -1
c30 0 50.5 5.83301 61.5 17.5s18.833 31.167 23.5 58.5l79 445h-91l10 57h91l18 103c10 52.667 26 88.667 48 108s59.333 29 112 29h14.5c5 0 9.83301 -0.333008 14.5 -1c4.66699 0 9.5 -0.166992 14.5 -0.5s9.83301 -0.5 14.5 -0.5l-10 -56
c-8.66699 0 -17.167 0.166992 -25.5 0.5s-16.833 0.5 -25.5 0.5c-30.667 0 -51.167 -5.5 -61.5 -16.5s-18.166 -30.5 -23.499 -58.5l-19 -108h123l-10 -57h-123v0z" />
    <glyph glyph-name="uni02BA" unicode="&#x2ba;" horiz-adv-x="500" 
d="M220 665l40 -44l-134 -103l-27 34l121 113v0zM361 665l40 -44l-134 -103l-27 34l121 113v0z" />
    <glyph glyph-name="arrowright" unicode="&#x2c6;" horiz-adv-x="500" 
d="M363 612l38.0029 -24.001c0 -1.33301 -0.166992 -2.16602 -0.5 -2.49902l-1.5 -1.5c-10 -16 -22.333 -30.667 -37 -44s-32.334 -20 -53.001 -20c-11.333 0 -22.333 2 -33 6s-21 8.33301 -31 13c-0.666992 0 -1.33398 0.166992 -2.00098 0.5
s-1.33398 0.833008 -2.00098 1.5l-29.5 11.5c-9.66699 3.66699 -19.834 5.5 -30.501 5.5c-10 0 -17.833 -3.16699 -23.5 -9.5s-10.834 -13.5 -15.501 -21.5c-0.666992 -0.666992 -1.16699 -1.5 -1.5 -2.5s-0.833008 -1.83301 -1.5 -2.5l-40 23
c8.66699 15.333 19.167 29.833 31.5 43.5s28.5 21.167 48.5 22.5c12 0 23.333 -2 34 -6s21.334 -8.33301 32.001 -13c10 -5.33301 20.333 -10 31 -14s22 -6 34 -6c10.667 0 20 3.33301 28 10s14.667 14 20 22c1.33301 1.33301 2.33301 2.5 3 3.5
s1.33398 2.16699 2.00098 3.5v1z" />
    <glyph glyph-name="glyph224" unicode="&#x2c7;" horiz-adv-x="500" 
d="M248 521l-153 96l21 37l132 -60l138 60l19 -37l-157 -96v0z" />
    <glyph glyph-name="house" unicode="&#x2c9;" horiz-adv-x="500" 
d="M124 576h246v-57h-246v57v0z" />
    <glyph glyph-name="endash" unicode="&#x2d8;" horiz-adv-x="500" 
d="M101 655l48.001 -0.000976562c5.33301 -24.667 17.333 -45 36 -61s40.667 -24 66 -24s47.333 8 66 24s30.667 36 36 60l47 1c-5.33301 -37.333 -21.833 -69.333 -49.5 -96s-60.834 -40 -99.501 -40c-39.333 0 -72.333 13.333 -99 40s-43.667 58.334 -51 95.001v1z" />
    <glyph glyph-name="sfthyphen" unicode="&#x2d9;" horiz-adv-x="500" 
d="M289 580v-66h-78v66h78v0z" />
    <glyph glyph-name="filledbox" unicode="&#x2da;" horiz-adv-x="500" 
d="M251 500c-20.667 -0.666992 -38.667 6.66699 -54 22s-23 33.333 -23 54s7.66699 38.5 23 53.5s33.333 22.5 54 22.5s38.5 -7.5 53.5 -22.5s22.5 -32.833 22.5 -53.5s-7.5 -38.667 -22.5 -54s-32.833 -23 -53.5 -23v1zM251 533.001c11.333 -0.666992 21.333 3.33301 30 12
s13 19 13 31c0 11.333 -4.33301 21.333 -13 30s-18.667 13 -30 13c-12 0 -22.333 -4.33301 -31 -13s-13 -18.667 -13 -30c0 -12 4.33301 -22.333 13 -31s19 -13 31 -13v1z" />
    <glyph glyph-name="glyph223" unicode="&#x2db;" horiz-adv-x="500" 
d="M248 0h51.002l-10.5 -6.5l-10.5 -6.5c-12.667 -8.66699 -24.334 -18.667 -35.001 -30s-16 -24.333 -16 -39c0 -14 5 -24.5 15 -31.5s21.333 -11.167 34 -12.5c1.33301 -0.666992 2.83301 -1 4.5 -1h4.5c3.33301 0 6.33301 0.166992 9 0.5s5.66699 0.833008 9 1.5
c2.66699 0 5.5 0.5 8.5 1.5s5.83301 2.16699 8.5 3.5v-44c-4 -1.33301 -8 -2.5 -12 -3.5s-7.66699 -1.83301 -11 -2.5c-4 -0.666992 -8 -1.16699 -12 -1.5s-8 -0.5 -12 -0.5h-1.5h-1.5c-22.667 0.666992 -43.334 7.66699 -62.001 21s-28 32.333 -28 57
c0 22 6.83301 40.667 20.5 56s29.5 28 47.5 38v0z" />
    <glyph glyph-name="onehalf" unicode="&#x2dc;" horiz-adv-x="500" 
d="M252 654l153 -95l-21 -38l-132 61l-138 -61l-19 38l157 95v0z" />
    <glyph glyph-name="Gamma" unicode="&#x393;" 
 />
    <glyph glyph-name="Theta" unicode="&#x398;" 
 />
    <glyph glyph-name="exclamdown" unicode="&#x3a3;" 
 />
    <glyph glyph-name="Phi" unicode="&#x3a6;" 
 />
    <glyph glyph-name="Atilde" unicode="&#x3a9;" 
 />
    <glyph glyph-name="alpha" unicode="&#x3b1;" 
 />
    <glyph glyph-name="delta" unicode="&#x3b4;" 
 />
    <glyph glyph-name="epsilon" unicode="&#x3b5;" 
 />
    <glyph glyph-name="guillemotleft" unicode="&#x3c0;" 
 />
    <glyph glyph-name="sigma" unicode="&#x3c3;" 
 />
    <glyph glyph-name="tau" unicode="&#x3c4;" 
 />
    <glyph glyph-name="phi" unicode="&#x3c6;" 
 />
    <glyph glyph-name="glyph259" unicode="&#x2013;" horiz-adv-x="613" 
d="M20 276h573v-65h-573v65v0z" />
    <glyph glyph-name="periodcentered" unicode="&#x2014;" horiz-adv-x="697" 
d="M20 276h657v-65h-657v65v0z" />
    <glyph glyph-name="underscoredbl" unicode="&#x2017;" 
 />
    <glyph glyph-name="Acircumflex" unicode="&#x2018;" horiz-adv-x="179" 
d="M42 491l0.000976562 97.999c0 26.667 4.16699 48.334 12.5 65.001s27.166 25 56.499 25h5.5h4.5c1.33301 -0.666992 2.83301 -1 4.5 -1h5.5v-37c-16.667 -1.33301 -28.167 -5.5 -34.5 -12.5s-9.5 -18.833 -9.5 -35.5v-3c0 -1.33301 0.333008 -2.33301 1 -3v-3.5v-3.5
l33 1v-90h-79v0z" />
    <glyph glyph-name="Ecircumflex" unicode="&#x2019;" horiz-adv-x="179" 
d="M131 679l-0.000976562 -98c0 -27.333 -4.16699 -49.5 -12.5 -66.5s-27.166 -25.5 -56.499 -25.5h-5.5c-1.66699 0 -3.16699 0.333008 -4.5 1h-4.5h-5.5v38c17.333 0.666992 29 4.5 35 11.5s9 18.833 9 35.5v6c0 2 -0.333008 4 -1 6l-33 1v91h79v0z" />
    <glyph glyph-name="Ugrave" unicode="&#x201a;" 
 />
    <glyph glyph-name="quotedblbase" unicode="&#x201c;" horiz-adv-x="319" 
d="M42 491l0.000976562 97.999c0 26.667 4.16699 48.334 12.5 65.001s27.166 25 56.499 25h5.5h4.5c1.33301 -0.666992 2.83301 -1 4.5 -1h5.5v-37c-16.667 -1.33301 -28.167 -5.5 -34.5 -12.5s-9.5 -18.833 -9.5 -35.5v-3c0 -1.33301 0.333008 -2.33301 1 -3v-3.5v-3.5
l33 1v-90h-79v0zM182.001 490.999l0.000976562 97.999c0 26.667 4.16699 48.334 12.5 65.001s27.166 25 56.499 25h5.5h4.5c1.33301 -0.666992 2.83301 -1 4.5 -1h5.5v-37c-16.667 -1.33301 -28.167 -5.5 -34.5 -12.5s-9.5 -18.833 -9.5 -35.5v-3
c0 -1.33301 0.333008 -2.33301 1 -3v-3.5v-3.5l33 1v-90h-79v0z" />
    <glyph glyph-name="perthousand" unicode="&#x201d;" horiz-adv-x="319" 
d="M131 679l-0.000976562 -98c0 -27.333 -4.16699 -49.5 -12.5 -66.5s-27.166 -25.5 -56.499 -25.5h-5.5c-1.66699 0 -3.16699 0.333008 -4.5 1h-4.5h-5.5v38c17.333 0.666992 29 4.5 35 11.5s9 18.833 9 35.5v6c0 2 -0.333008 4 -1 6l-33 1v91h79v0zM270.999 679
l-0.000976562 -98c0 -27.333 -4.16699 -49.5 -12.5 -66.5s-27.166 -25.5 -56.499 -25.5h-5.5c-1.66699 0 -3.16699 0.333008 -4.5 1h-4.5h-5.5v38c17.333 0.666992 29 4.5 35 11.5s9 18.833 9 35.5v6c0 2 -0.333008 4 -1 6l-33 1v91h79v0z" />
    <glyph glyph-name="dotlessi" unicode="&#x201e;" horiz-adv-x="319" 
d="M137 91l-0.000976562 -98c0 -27.333 -4.16699 -49.333 -12.5 -66s-27.166 -25 -56.499 -25h-5.5h-4.5c-1.33301 0.666992 -2.83301 1 -4.5 1h-5.5v37c17.333 0.666992 29 4.5 35 11.5s9 19.167 9 36.5v6c0 2 -0.333008 4 -1 6h-33v91h79v0zM276.999 91l-0.000976562 -98
c0 -27.333 -4.16699 -49.333 -12.5 -66s-27.166 -25 -56.499 -25h-5.5h-4.5c-1.33301 0.666992 -2.83301 1 -4.5 1h-5.5v37c17.333 0.666992 29 4.5 35 11.5s9 19.167 9 36.5v6c0 2 -0.333008 4 -1 6h-33v91h79v0z" />
    <glyph glyph-name="dagger" unicode="&#x2020;" horiz-adv-x="613" 
d="M344 667v-184h154v-58h-154v-605h-73v605h-155v58h155v184h73v0z" />
    <glyph glyph-name="Uacute" unicode="&#x2021;" horiz-adv-x="613" 
d="M344 667v-210h154v-58h-154v-301h154v-58h-154v-220h-73v220h-155v58h155v301h-155v58h155v210h73v0z" />
    <glyph glyph-name="glyph262" unicode="&#x2022;" horiz-adv-x="600" 
d="M198 286c0 26 9.33301 48.334 28 67.001s41.334 28 68.001 28c27.333 0 50.5 -9.33301 69.5 -28s28.5 -41.334 28.5 -68.001s-9.5 -49.334 -28.5 -68.001s-42.167 -28 -69.5 -28c-26.667 0 -49.334 9.33301 -68.001 28s-28 41.334 -28 68.001v1z" />
    <glyph glyph-name="fraction" unicode="&#x2026;" horiz-adv-x="597" 
d="M139 91v-91h-79v91h79v0zM338 91v-91h-79v91h79v0zM537 91v-91h-79v91h79v0z" />
    <glyph glyph-name="circumflex" unicode="&#x2030;" horiz-adv-x="1139" 
d="M486 171c0 50.667 6.33203 90.6709 18.999 120.004s48 44 106 44c55.333 0 96.666 -6.16699 123.999 -18.5s41 -49.5 41 -111.5v-20.5c0 -7 0.333008 -13.833 1 -20.5v-20.5v-20.5v-4.5v-4.5c-0.666992 -14.667 -2.16699 -28.834 -4.5 -42.501
s-7.16602 -25.834 -14.499 -36.501c-9.33301 -14.667 -21.666 -24.334 -36.999 -29.001s-31 -7.33398 -47 -8.00098c-6 -0.666992 -12 -1 -18 -1h-17c-54 0 -93 7.33301 -117 22s-36 53.667 -36 117v35v0zM529.999 169.004l0.000976562 -61.999c2 -36 10.5 -57 25.5 -63
s35.5 -9 61.5 -9h7.5h7.5c32.667 0 57.5 3.5 74.5 10.5s25.5 28.833 25.5 65.5v111c0 36 -6.66699 57.667 -20 65s-32.666 11 -57.999 11l-49 1c-2 -0.666992 -4 -1 -6 -1h-7c-8.66699 -0.666992 -17.334 -2 -26.001 -4s-15.334 -5.66699 -20.001 -11
c-6 -6.66699 -10.167 -15.834 -12.5 -27.501s-3.83301 -23.5 -4.5 -35.5v-5.5v-5.5v-11.5c0 -3.66699 0.333008 -7.16699 1 -10.5v-10v-9v1zM840 171.005l-0.00195312 9.00293v11c-0.666992 0.666992 -1 1.66699 -1 3v4v7v7c0 46 10.333 78 31 96s52 27 94 27
c53.333 0 94.333 -6 123 -18s43 -48 43 -108v-10.5v-10.5c-0.666992 -3.33301 -1 -6.66602 -1 -9.99902v-10v-10.5c0 -3.66699 0.333008 -7.5 1 -11.5v-11v-12v-4.5v-4.5c-0.666992 -14.667 -2.16699 -28.834 -4.5 -42.501s-7.16602 -25.834 -14.499 -36.501
c-9.33301 -14.667 -21.666 -24.334 -36.999 -29.001s-31 -7.33398 -47 -8.00098c-6 -0.666992 -12 -1 -18 -1h-17h-21c-48 0 -81.833 8.16699 -101.5 24.5s-29.5 54.5 -29.5 114.5v35v0zM882.998 169.008l1 -61.998c0.666992 -19.333 4.33398 -35.833 11.001 -49.5
s20.667 -20.834 42 -21.501h48c34.667 -0.666992 60 2.5 76 9.5s24 28.833 24 65.5v115c0 34 -6.66699 54.5 -20 61.5s-32.666 10.5 -57.999 10.5l-49 1c-2 -0.666992 -4 -1 -6 -1h-7c-8.66699 -0.666992 -17.334 -2 -26.001 -4s-15.334 -5.66699 -20.001 -11
c-6 -6.66699 -10.167 -15.834 -12.5 -27.501s-3.83301 -23.5 -4.5 -35.5v-5.5v-5.5v-11.5c0 -3.66699 0.333008 -7.16699 1 -10.5v-10v-9v1zM649.998 667.01l-452 -667h-46l450 667h48v0zM26.998 504.01c0 50.667 6.16699 90.665 18.5 119.998s47.833 44 106.5 44l51 1
c43.333 -0.666992 73.166 -10.5 89.499 -29.5s24.5 -51.167 24.5 -96.5v-11v-11c-0.666992 -3.33301 -1 -6.66602 -1 -9.99902v-10v-10.5c0 -3.66699 0.333008 -7.5 1 -11.5v-11v-12c0 -47.333 -9.16699 -80.166 -27.5 -98.499s-53.166 -27.5 -104.499 -27.5
c-56.667 0 -97.167 8 -121.5 24s-36.5 54.333 -36.5 115v35v0zM69.998 502.008l0.999023 -62c0.666992 -35.333 8.83398 -56 24.501 -62s37.834 -9.33301 66.501 -10h5h6c32.667 0 57.5 3.5 74.5 10.5s25.5 28.833 25.5 65.5v111c0 36 -6.66699 57.667 -20 65s-33 11 -59 11
l-49 1c-1.33301 -0.666992 -2.83301 -1 -4.5 -1h-5.5c-9.33301 -0.666992 -18.333 -2 -27 -4s-15.667 -5.66699 -21 -11c-6 -6.66699 -10.333 -15.334 -13 -26.001s-4.33398 -21.667 -5.00098 -33v-8.5v-8.5v-11c0 -3.33301 0.333008 -6.66602 1 -9.99902v-9.5v-8.5v1z" />
    <glyph glyph-name="Igrave" unicode="&#x2039;" horiz-adv-x="282" 
d="M170 511l51 -31l-105 -223l117 -225l-49 -32l-134 257l120 254v0z" />
    <glyph glyph-name="Oacute" unicode="&#x203a;" horiz-adv-x="282" 
d="M113 511l120 -254l-135 -257l-48 32l116 225l-105 223l52 31v0z" />
    <glyph glyph-name="exclamdbl" unicode="&#x203c;" 
 />
    <glyph glyph-name="uni207F" unicode="&#x207f;" 
 />
    <glyph glyph-name="franc" unicode="&#x20a3;" 
 />
    <glyph glyph-name="peseta" unicode="&#x20a7;" 
 />
    <glyph glyph-name="trademark" unicode="&#x2122;" horiz-adv-x="886" 
d="M197 619v-352h-55v352h-135v48h323v-48h-133v0zM842 667v-400h-55v346l-150 -346h-52l-151 343v-343h-53v400h86l143 -330l144 330h88v0z" />
    <glyph glyph-name="arrowleft" unicode="&#x2190;" 
 />
    <glyph glyph-name="arrowup" unicode="&#x2191;" 
 />
    <glyph glyph-name="glyph257" unicode="&#x2192;" horiz-adv-x="500" 
 />
    <glyph glyph-name="arrowdown" unicode="&#x2193;" 
 />
    <glyph glyph-name="arrowboth" unicode="&#x2194;" 
 />
    <glyph glyph-name="arrowupdn" unicode="&#x2195;" 
 />
    <glyph glyph-name="arrowupdnbse" unicode="&#x21a8;" 
 />
    <glyph glyph-name="questiondown" unicode="&#x2202;" 
 />
    <glyph glyph-name="quoteright" unicode="&#x2206;" 
 />
    <glyph glyph-name="florin" unicode="&#x220f;" 
 />
    <glyph glyph-name="minus" unicode="&#x2212;" 
 />
    <glyph glyph-name="Icircumflex" unicode="&#x2215;" horiz-adv-x="503" 
d="M503 667l-453 -667h-50l450 667h53v0z" />
    <glyph glyph-name="Ucircumflex" unicode="&#x2219;" horiz-adv-x="613" 
d="M346 289v-91h-79v91h79v0z" />
    <glyph glyph-name="quotedblleft" unicode="&#x221a;" 
 />
    <glyph glyph-name="yen" unicode="&#x221e;" 
 />
    <glyph glyph-name="orthogonal" unicode="&#x221f;" 
 />
    <glyph glyph-name="intersection" unicode="&#x2229;" 
 />
    <glyph glyph-name="guillemotright" unicode="&#x222b;" 
 />
    <glyph glyph-name="quoteleft" unicode="&#x2248;" 
 />
    <glyph glyph-name="AE" unicode="&#x2260;" 
 />
    <glyph glyph-name="equivalence" unicode="&#x2261;" 
 />
    <glyph glyph-name="ordfeminine" unicode="&#x2264;" 
 />
    <glyph glyph-name="ordmasculine" unicode="&#x2265;" 
 />
    <glyph glyph-name="glyph258" unicode="&#x2302;" 
 />
    <glyph glyph-name="revlogicalnot" unicode="&#x2310;" 
 />
    <glyph glyph-name="integraltp" unicode="&#x2320;" 
 />
    <glyph glyph-name="integralbt" unicode="&#x2321;" 
 />
    <glyph glyph-name="SF100000" unicode="&#x2500;" 
 />
    <glyph glyph-name="SF110000" unicode="&#x2502;" 
 />
    <glyph glyph-name="SF010000" unicode="&#x250c;" 
 />
    <glyph glyph-name="SF030000" unicode="&#x2510;" 
 />
    <glyph glyph-name="SF020000" unicode="&#x2514;" 
 />
    <glyph glyph-name="SF040000" unicode="&#x2518;" 
 />
    <glyph glyph-name="SF080000" unicode="&#x251c;" 
 />
    <glyph glyph-name="SF090000" unicode="&#x2524;" 
 />
    <glyph glyph-name="SF060000" unicode="&#x252c;" 
 />
    <glyph glyph-name="SF070000" unicode="&#x2534;" 
 />
    <glyph glyph-name="SF050000" unicode="&#x253c;" 
 />
    <glyph glyph-name="SF430000" unicode="&#x2550;" 
 />
    <glyph glyph-name="SF240000" unicode="&#x2551;" 
 />
    <glyph glyph-name="SF510000" unicode="&#x2552;" 
 />
    <glyph glyph-name="SF520000" unicode="&#x2553;" 
 />
    <glyph glyph-name="SF390000" unicode="&#x2554;" 
 />
    <glyph glyph-name="SF220000" unicode="&#x2555;" 
 />
    <glyph glyph-name="SF210000" unicode="&#x2556;" 
 />
    <glyph glyph-name="SF250000" unicode="&#x2557;" 
 />
    <glyph glyph-name="SF500000" unicode="&#x2558;" 
 />
    <glyph glyph-name="SF490000" unicode="&#x2559;" 
 />
    <glyph glyph-name="SF380000" unicode="&#x255a;" 
 />
    <glyph glyph-name="SF280000" unicode="&#x255b;" 
 />
    <glyph glyph-name="SF270000" unicode="&#x255c;" 
 />
    <glyph glyph-name="SF260000" unicode="&#x255d;" 
 />
    <glyph glyph-name="SF360000" unicode="&#x255e;" 
 />
    <glyph glyph-name="SF370000" unicode="&#x255f;" 
 />
    <glyph glyph-name="SF420000" unicode="&#x2560;" 
 />
    <glyph glyph-name="SF190000" unicode="&#x2561;" 
 />
    <glyph glyph-name="SF200000" unicode="&#x2562;" 
 />
    <glyph glyph-name="SF230000" unicode="&#x2563;" 
 />
    <glyph glyph-name="SF470000" unicode="&#x2564;" 
 />
    <glyph glyph-name="SF480000" unicode="&#x2565;" 
 />
    <glyph glyph-name="SF410000" unicode="&#x2566;" 
 />
    <glyph glyph-name="SF450000" unicode="&#x2567;" 
 />
    <glyph glyph-name="SF460000" unicode="&#x2568;" 
 />
    <glyph glyph-name="SF400000" unicode="&#x2569;" 
 />
    <glyph glyph-name="SF540000" unicode="&#x256a;" 
 />
    <glyph glyph-name="SF530000" unicode="&#x256b;" 
 />
    <glyph glyph-name="SF440000" unicode="&#x256c;" 
 />
    <glyph glyph-name="upblock" unicode="&#x2580;" 
 />
    <glyph glyph-name="dnblock" unicode="&#x2584;" 
 />
    <glyph glyph-name="block" unicode="&#x2588;" 
 />
    <glyph glyph-name="lfblock" unicode="&#x258c;" 
 />
    <glyph glyph-name="rtblock" unicode="&#x2590;" 
 />
    <glyph glyph-name="ltshade" unicode="&#x2591;" 
 />
    <glyph glyph-name="shade" unicode="&#x2592;" 
 />
    <glyph glyph-name="dkshade" unicode="&#x2593;" 
 />
    <glyph glyph-name="glyph261" unicode="&#x25a0;" horiz-adv-x="500" 
 />
    <glyph glyph-name="filledrect" unicode="&#x25ac;" 
 />
    <glyph glyph-name="triagup" unicode="&#x25b2;" 
 />
    <glyph glyph-name="triagrt" unicode="&#x25ba;" 
 />
    <glyph glyph-name="triagdn" unicode="&#x25bc;" 
 />
    <glyph glyph-name="triaglf" unicode="&#x25c4;" 
 />
    <glyph glyph-name="Edieresis" unicode="&#x25ca;" 
 />
    <glyph glyph-name="circle" unicode="&#x25cb;" 
 />
    <glyph glyph-name="invbullet" unicode="&#x25d8;" 
 />
    <glyph glyph-name="invcircle" unicode="&#x25d9;" 
 />
    <glyph glyph-name="smileface" unicode="&#x263a;" 
 />
    <glyph glyph-name="invsmileface" unicode="&#x263b;" 
 />
    <glyph glyph-name="sun" unicode="&#x263c;" 
 />
    <glyph glyph-name="female" unicode="&#x2640;" 
 />
    <glyph glyph-name="male" unicode="&#x2642;" 
 />
    <glyph glyph-name="spade" unicode="&#x2660;" 
 />
    <glyph glyph-name="club" unicode="&#x2663;" 
 />
    <glyph glyph-name="heart" unicode="&#x2665;" 
 />
    <glyph glyph-name="diamond" unicode="&#x2666;" 
 />
    <glyph glyph-name="musicalnote" unicode="&#x266a;" 
 />
    <glyph glyph-name="musicalnotedbl" unicode="&#x266b;" 
 />
    <glyph glyph-name="Scaron" unicode="&#xf000;" 
 />
    <glyph glyph-name="Ocircumflex" unicode="&#xf001;" horiz-adv-x="460" 
d="M272 467l-0.00195312 -57h-123v-410h-71v410h-71v57h71v69c0 53.333 12.333 89.666 37 108.999s62.334 29 113.001 29c4 0 7.83301 -0.166992 11.5 -0.5s7.16699 -0.5 10.5 -0.5s6.83301 -0.166992 10.5 -0.5s7.5 -0.5 11.5 -0.5v-57
c-8.66699 0.666992 -17.167 1 -25.5 1h-25.5c-27.333 0 -46.166 -6.16699 -56.499 -18.5s-15.5 -31.166 -15.5 -56.499v-74h123v0zM399.998 467v-467h-71v467h71v0zM399.998 667v-77h-71v77h71v0z" />
    <glyph glyph-name="Ograve" unicode="&#xf002;" horiz-adv-x="459" 
d="M271 467l-0.00195312 -57h-123v-410h-71v410h-71v57h71v69c0 53.333 12.333 89.666 37 108.999s62.334 29 113.001 29c4 0 7.83301 -0.166992 11.5 -0.5s7.16699 -0.5 10.5 -0.5s6.83301 -0.166992 10.5 -0.5s7.5 -0.5 11.5 -0.5v-57
c-8.66699 0.666992 -17.167 1 -25.5 1h-25.5c-27.333 0 -46.166 -6.16699 -56.499 -18.5s-15.5 -31.166 -15.5 -56.499v-74h123v0zM398.998 667v-667h-71v667h71v0z" />
    <glyph glyph-name="glyph1" horiz-adv-x="0" 
 />
    <glyph glyph-name="glyph2" 
 />
    <glyph glyph-name="degree" horiz-adv-x="500" 
d="M391 521c0 -39.333 -13.999 -72.832 -41.999 -100.499s-61 -41.5 -99 -41.5c-36.667 0 -69.334 13.667 -98.001 41s-43 59.666 -43 96.999c0 40 13.333 74.167 40 102.5s60.334 42.5 101.001 42.5c39.333 0 72.666 -14 99.999 -42s41 -61.333 41 -100v1zM354.001 521.001
c0 28 -10.168 52.499 -30.501 73.499s-44.833 31.5 -73.5 31.5s-53.167 -10.667 -73.5 -32s-30.5 -46.333 -30.5 -75c0 -28 10.333 -52.333 31 -73s44.667 -31 72 -31c28.667 0 53.334 10.333 74.001 31s31 45.334 31 74.001v1z" />
    <glyph glyph-name="bullet" horiz-adv-x="600" 
d="M198 286c0 26 9.33301 48.334 28 67.001s41.334 28 68.001 28c27.333 0 50.5 -9.33301 69.5 -28s28.5 -41.334 28.5 -68.001s-9.5 -49.334 -28.5 -68.001s-42.167 -28 -69.5 -28c-26.667 0 -49.334 9.33301 -68.001 28s-28 41.334 -28 68.001v1z" />
    <glyph glyph-name="daggerdbl" horiz-adv-x="613" 
d="M20 276h573v-65h-573v65v0z" />
    </font>
</defs>
</svg>
