<?xml version="1.0" standalone="no"?>
<!DOCTYPE svg PUBLIC "-//W3C//DTD SVG 1.1//EN" "http://www.w3.org/Graphics/SVG/1.1/DTD/svg11.dtd" >
<svg>
<metadata>
Created by FontForge 20090914 at Wed Oct 16 10:15:10 2013
 By www-data
Converted by ALLTYPE
</metadata>
<defs>
<font id="Eurostile-Bold" horiz-adv-x="0" >
  <font-face 
    font-family="Eurostile-Bold"
    font-weight="5"
    font-stretch="normal"
    units-per-em="1000"
    panose-1="0 0 0 0 0 0 0 0 0 0"
    ascent="800"
    descent="-200"
    x-height="466"
    cap-height="667"
    bbox="-15 -208 1132 740"
    underline-thickness="50"
    underline-position="-55"
    unicode-range="U+0020-U+F002"
  />
<missing-glyph 
 />
    <glyph glyph-name=".notdef" 
 />
    <glyph glyph-name="space" unicode=" " horiz-adv-x="278" 
 />
    <glyph glyph-name="space" unicode="&#xa0;" horiz-adv-x="278" 
 />
    <glyph glyph-name="exclam" unicode="!" horiz-adv-x="275" 
d="M189 122v-122h-112v122h112v0zM195 665l-9 -444h-108l-8 444h125v0z" />
    <glyph glyph-name="quotedbl" unicode="&#x22;" horiz-adv-x="390" 
d="M146 400h-88l-21 267h131l-22 -267v0zM331 400h-88l-21 267h131l-22 -267v0z" />
    <glyph glyph-name="numbersign" unicode="#" horiz-adv-x="677" 
d="M320 450h130l52 128h55l-52 -128h119l-19 -50h-121l-52 -127h123l-21 -49h-121l-53 -131h-53l52 131h-129l-54 -131h-55l53 131h-121l20 49h123l50 127h-123l21 50h123l52 128h54l-53 -128v0zM301 400l-52 -127h130l51 127h-129v0z" />
    <glyph glyph-name="dollar" unicode="$" horiz-adv-x="627" 
d="M349 570l-0.000976562 -179.998c69.333 -3.33301 129 -13.5 179 -30.5s75 -68.167 75 -153.5c0 -84.667 -18 -139.5 -54 -164.5s-94.667 -38.833 -176 -41.5h-24v-75h-72v75c-72 0 -132.167 10.5 -180.5 31.5s-72.5 74.167 -72.5 159.5v25h116
c0 -54 8.33301 -86.333 25 -97s45.667 -17.334 87 -20.001c4 0 8 -0.166992 12 -0.5s8.33301 -0.5 13 -0.5v194c-10.667 0.666992 -21.334 1.5 -32.001 2.5s-20.667 1.83301 -30 2.5c-55.333 5.33301 -99.833 17 -133.5 35s-50.5 68.667 -50.5 152
c0 84.667 23.333 137 70 157s105.334 30 176.001 30v65h72v-64c77.333 -3.33301 135.833 -14.333 175.5 -33s59.5 -73.334 59.5 -164.001l-112 1c0 0.666992 -0.166992 1.5 -0.5 2.5s-0.5 2.16699 -0.5 3.5v3.5v3.5c0 33.333 -7.66699 54.833 -23 64.5
s-38.666 14.5 -69.999 14.5h-7.5c-2.33301 0 -4.5 0.333008 -6.5 1h-7.5h-7.5v1zM348.999 99.002c2 -0.666992 3.83398 -1.16602 5.50098 -1.49902s3.16699 -0.5 4.5 -0.5h4.5h5.5c36 0 64.333 6 85 18s31 37.667 31 77c0 44 -9.16699 70.167 -27.5 78.5
s-43.5 13.166 -75.5 14.499c-4.66699 0.666992 -9.83398 1 -15.501 1s-11.5 0.333008 -17.5 1v-188v0zM277 570.003l-18 -0.00195312c-32.667 -1.33301 -59.167 -5.66602 -79.5 -12.999s-30.5 -30.666 -30.5 -69.999c0 -46.667 11.333 -74.167 34 -82.5s54 -12.5 94 -12.5
v178v0z" />
    <glyph glyph-name="percent" unicode="%" horiz-adv-x="805" 
d="M503 174c0 52.667 7.00098 92.501 21.001 119.501s50 40.5 108 40.5c53.333 0 92.666 -6.83301 117.999 -20.5s38 -49.834 38 -108.501v-71c0 -10.667 -0.166992 -21 -0.5 -31s-1.5 -19.667 -3.5 -29c-8 -34.667 -24.5 -56 -49.5 -64s-53.167 -12 -84.5 -12
c-48.667 0 -85.5 7.66699 -110.5 23s-37.5 51.333 -37.5 108v11.5c0 3.66699 0.333008 7.16699 1 10.5v11.5v10.5v1zM569.001 171.001l1 -54c0 -31.333 5.83301 -49.666 17.5 -54.999s29.834 -8 54.501 -8c29.333 0 50 3.16699 62 9.5s18 24.166 18 53.499v99
c0 30.667 -6 48.834 -18 54.501s-31.667 8.5 -59 8.5l-21 1c-0.666992 -0.666992 -1.66699 -1 -3 -1h-3c-7.33301 0 -14.166 -0.833008 -20.499 -2.5s-11.833 -5.16699 -16.5 -10.5c-2.66699 -3.33301 -4.83398 -7.33301 -6.50098 -12s-2.83398 -9.33398 -3.50098 -14.001
c0 -2 -0.166992 -4.16699 -0.5 -6.5s-0.5 -4.5 -0.5 -6.5c-0.666992 -9.33301 -1 -18.833 -1 -28.5v-28.5v1zM656.001 667.001l-423 -667h-69l422 667h70v0zM32.001 508.001c0 52 6.99902 91.667 20.999 119s50 41 108 41l14 1c50.667 -0.666992 87 -8.5 109 -23.5
s33 -52.5 33 -112.5v-62c0 -46 -7.16699 -80.833 -21.5 -104.5s-48.5 -35.5 -102.5 -35.5c-51.333 0 -91.166 7.33301 -119.499 22s-42.5 51 -42.5 109v11.5c0 3.66699 0.333008 7.5 1 11.5v10.5v11.5v1zM98 504.001l0.000976562 -53.999
c0.666992 -31.333 6.66699 -49.666 18 -54.999s29.333 -8 54 -8c28.667 0 49.167 3.16699 61.5 9.5s18.5 24.166 18.5 53.499v24.5c0 8.33301 0.333008 16.5 1 24.5v24.5v24.5c0 32 -6 50.667 -18 56s-31.667 8 -59 8l-21 1c-0.666992 -0.666992 -1.66699 -1 -3 -1h-3
c-7.33301 0 -14.166 -0.833008 -20.499 -2.5s-11.833 -5.16699 -16.5 -10.5c-2.66699 -3.33301 -4.83398 -7.33301 -6.50098 -12s-2.83398 -9.33398 -3.50098 -14.001c-0.666992 -2 -1.16699 -4.16699 -1.5 -6.5s-0.5 -4.5 -0.5 -6.5v-56v0z" />
    <glyph glyph-name="ampersand" unicode="&#x26;" horiz-adv-x="694" 
d="M496 323l108.003 0.00292969c0.666992 -7.33301 1 -14.166 1 -20.499v-19.5c0 -22 -0.666992 -43.833 -2 -65.5s-5.33301 -43.167 -12 -64.5l96 -80l-60 -73l-80 67c-18.667 -30 -42.834 -49 -72.501 -57s-60.834 -12.667 -93.501 -14h-15.5h-15.5h-18
c-87.333 0 -155.833 10 -205.5 30s-74.5 81.333 -74.5 184c0 50 8.33301 88.667 25 116s50.667 44.666 102 51.999c-7.33301 6.66699 -13.833 12.834 -19.5 18.501s-10.5 11.5 -14.5 17.5c-8.66699 11.333 -14.334 23.666 -17.001 36.999s-4 30.666 -4 51.999
c0 71.333 19.667 115.5 59 132.5s89.333 25.5 150 25.5c66 0 118.167 -9.16699 156.5 -27.5s57.5 -66.166 57.5 -143.499v-34h-113c0 43.333 -4.16699 72.166 -12.5 86.499s-36.166 21.5 -83.499 21.5c-24.667 0 -46.667 -2.66699 -66 -8s-29 -23.333 -29 -54
c0 -16 1.33301 -28.667 4 -38s7.66699 -18.333 15 -27c3.33301 -4.66699 7.66602 -9.33398 12.999 -14.001l18 -16l202 -172c0.666992 6.66699 1.16699 14 1.5 22s0.5 16 0.5 24v10v11c-0.666992 3.33301 -1 6.66602 -1 9.99902v10v1zM246.003 320.003
c-32.667 -7.33301 -53.168 -17.8311 -61.501 -31.498s-12.5 -36.834 -12.5 -69.501c0 -60.667 10.167 -96.667 30.5 -108s56.5 -17 108.5 -17l37 1c25.333 -0.666992 46.833 1.16602 64.5 5.49902s34.834 16.5 51.501 36.5l-218 183v0z" />
    <glyph glyph-name="quotesingle" unicode="'" horiz-adv-x="207" 
d="M166 667l0.000976562 -117c0 -42.667 -6.66699 -72.834 -20 -90.501s-43 -26.5 -89 -26.5h-6c-2 0 -4 0.333008 -6 1v53c17.333 0 30.666 2.83301 39.999 8.5s14 17.834 14 36.501v3.5v3.5c-0.666992 1.33301 -1 2.5 -1 3.5v3.5l-44 1v120h112v0z" />
    <glyph glyph-name="parenleft" unicode="(" horiz-adv-x="309" 
d="M263 676l-0.00195312 -104.001c-3.33301 -0.666992 -6.66602 -1 -9.99902 -1s-6.33301 -0.333008 -9 -1c-8 0 -15.667 -1 -23 -3s-14 -5.33301 -20 -10s-10.5 -10.667 -13.5 -18s-5.16699 -14.666 -6.5 -21.999c-0.666992 -4 -1.16699 -8 -1.5 -12
s-0.833008 -7.66699 -1.5 -11c-1.33301 -15.333 -2.16602 -30.833 -2.49902 -46.5s-0.5 -31.167 -0.5 -46.5v-45l3 -237v-17.5c0 -5.66699 0.333008 -11.167 1 -16.5c0 -10 0.833008 -19.5 2.5 -28.5s4.16699 -17.833 7.5 -26.5c3.33301 -11.333 9.66602 -19 18.999 -23
s19.333 -6.33301 30 -7h3.5h3.5l18 1v-103c-84 0 -138.667 16 -164 48s-40 88.333 -44 169c-1.33301 26.667 -2.16602 53.167 -2.49902 79.5s-0.5 52.833 -0.5 79.5v134c0 88 10.667 154.5 32 199.5s81 67.5 179 67.5v1z" />
    <glyph glyph-name="parenright" unicode=")" horiz-adv-x="309" 
d="M49 -102l0.00292969 103.998c29.333 -0.666992 50.166 4.66602 62.499 15.999s19.833 31.333 22.5 60c1.33301 15.333 2.16602 30.833 2.49902 46.5s0.5 31.167 0.5 46.5v48l-3 236v18c0 6.66699 -0.333008 13 -1 19c-0.666992 8.66699 -1.83398 17.334 -3.50098 26.001
s-3.83398 17 -6.50098 25c-4.66699 12 -12.167 19.833 -22.5 23.5s-21.166 5.5 -32.499 5.5l-19 1v103c81.333 -0.666992 135.833 -16.5 163.5 -47.5s42.5 -87.833 44.5 -170.5c0.666992 -13.333 1.16699 -26.666 1.5 -39.999s0.833008 -26.666 1.5 -39.999v-40v-40v-113
c0 -89.333 -8.83301 -159.5 -26.5 -210.5s-79.167 -76.5 -184.5 -76.5v0z" />
    <glyph glyph-name="asterisk" unicode="*" horiz-adv-x="627" 
d="M490 515l-121 -41l72 -103l-52 -40l-74 107l-80 -107l-53 40l75 103l-121 45l23 64l121 -45v129h66v-129l122 45l22 -68v0z" />
    <glyph glyph-name="plus" unicode="+" horiz-adv-x="500" 
d="M16 380h203v197h62v-197h204v-59h-204v-197h-62v197h-203v59v0z" />
    <glyph glyph-name="comma" unicode="," horiz-adv-x="224" 
d="M166 120l0.000976562 -117.002c0 -42 -6.66699 -71.833 -20 -89.5s-43 -26.5 -89 -26.5h-6c-2 0 -4 0.333008 -6 1v52c17.333 0.666992 30.666 3.83398 39.999 9.50098s14 17.834 14 36.501v3.5v3.5c-0.666992 1.33301 -1 2.5 -1 3.5v3.5h-44v120h112v0z" />
    <glyph glyph-name="hyphen" unicode="-" horiz-adv-x="236" 
d="M0 303h236v-114h-236v114v0z" />
    <glyph glyph-name="period" unicode="." horiz-adv-x="211" 
d="M161 122v-122h-111v122h111v0z" />
    <glyph glyph-name="slash" unicode="/" horiz-adv-x="606" 
d="M541 667l-452 -767h-84l452 767h84v0z" />
    <glyph glyph-name="zero" unicode="0" horiz-adv-x="627" 
d="M34 349l-0.00292969 35.0039v36c0.666992 11.333 1.16699 23 1.5 35s0.833008 24 1.5 36c3.33301 35.333 14.333 67.666 33 96.999s44.334 51 77.001 65c12.667 5.33301 26.334 9 41.001 11s29.334 3.33301 44.001 4c6 0.666992 12 1 18 1h18l47 1
c96 -0.666992 165.667 -13.334 209 -38.001s67 -90.667 71 -198v-87v-36.5v-35.5c0 -12 -0.166992 -23.833 -0.5 -35.5s-0.5 -23.5 -0.5 -35.5c0 -4 -0.166992 -8 -0.5 -12s-0.833008 -8.33301 -1.5 -13c-3.33301 -30.667 -11.833 -60.334 -25.5 -89.001
s-34.834 -51.334 -63.501 -68.001c-13.333 -7.33301 -28.5 -12.833 -45.5 -16.5s-34.167 -5.83398 -51.5 -6.50098c-12.667 -0.666992 -25 -1.16699 -37 -1.5s-23.333 -0.5 -34 -0.5h-53h-17.5c-5.66699 0 -11.5 0.333008 -17.5 1c-30.667 0.666992 -60.334 5 -89.001 13
s-53 24 -73 48c-14 17.333 -25.167 36.333 -33.5 57s-13.166 42.334 -14.499 65.001c-1.33301 18.667 -2.16602 37.167 -2.49902 55.5s-0.5 36.833 -0.5 55.5v57v0zM157.997 342.004l1.00195 -108.999c0.666992 -65.333 13.167 -103.5 37.5 -114.5s62.833 -16.5 115.5 -16.5
c55.333 0 95.666 6.5 120.999 19.5s38 49.5 38 109.5v100.5c0 33.667 0.333008 67.167 1 100.5c0 66 -12.167 104.667 -36.5 116s-64.833 17 -121.5 17l-37 1c-28 -0.666992 -53.167 -5.5 -75.5 -14.5s-35.833 -35.167 -40.5 -78.5
c-0.666992 -6.66699 -1.33398 -13.834 -2.00098 -21.501l-2 -22.5v-10.5v-11.5v-16.5c0 -5.66699 0.333008 -11.167 1 -16.5v-16.5v-16.5v1z" />
    <glyph glyph-name="one" unicode="1" horiz-adv-x="627" 
d="M438 667v-667h-121v560l-173 -173l-74 79l214 201h154v0z" />
    <glyph glyph-name="two" unicode="2" horiz-adv-x="627" 
d="M553 101l0.00292969 -101.001h-503v138c0 74.667 16.667 122.667 50 144s80.333 37 141 47c4 1.33301 8.33301 2.33301 13 3l14 2c8 1.33301 15.833 2.33301 23.5 3s14.834 1.66699 21.501 3c39.333 4.66699 68.833 13.334 88.5 26.001s29.5 44 29.5 94
c0 51.333 -9.5 82.166 -28.5 92.499s-52.167 15.5 -99.5 15.5c-52.667 0 -88 -5.83301 -106 -17.5s-27 -45.167 -27 -100.5v-21h-120v29v0.5v1.5c0 6 0.166992 12.167 0.5 18.5s0.5 12.5 0.5 18.5c1.33301 26 5.66602 50.833 12.999 74.5s22.666 43.167 45.999 58.5
c19.333 12.667 40.333 21.667 63 27s45.667 8.66602 69 9.99902c10.667 0.666992 21 1 31 1h30c80.667 0 142.5 -11.833 185.5 -35.5s64.5 -81.167 64.5 -172.5c0 -90 -18.833 -146.167 -56.5 -168.5s-85.834 -38.166 -144.501 -47.499l-57 -8.5
c-20 -3 -40.333 -7.16699 -61 -12.5c-30.667 -7.33301 -48.834 -19.666 -54.501 -36.999s-8.5 -40 -8.5 -68v-17h382v0z" />
    <glyph glyph-name="three" unicode="3" horiz-adv-x="627" 
d="M258 292l-0.00195312 96c6 -0.666992 12 -1 18 -1s12 0.333008 18 1h17h18c44 0 72.5 5 85.5 15s19.5 37.333 19.5 82c0 25.333 -4.66699 45.5 -14 60.5s-28.333 22.5 -57 22.5c-4.66699 0.666992 -9.66699 1.16699 -15 1.5s-10.333 0.5 -15 0.5h-15.5h-15.5
c-56 0 -90.667 -6.5 -104 -19.5s-20.333 -46.167 -21 -99.5l-119 1c0 93.333 17.333 153.166 52 179.499s95.667 39.5 183 39.5c66.667 0 127.334 -7.66699 182.001 -23s82 -65.666 82 -150.999c0 -40 -6.16699 -74.167 -18.5 -102.5s-42.166 -46.166 -89.499 -53.499v-2
c46 -7.33301 77.167 -22.333 93.5 -45s24.5 -56.667 24.5 -102c0 -47.333 -8.5 -88.833 -25.5 -124.5s-52.5 -57.834 -106.5 -66.501c-20.667 -2.66699 -41.834 -4.5 -63.501 -5.5s-43.167 -1.5 -64.5 -1.5c-72.667 0 -134.167 10.333 -184.5 31s-75.5 74.667 -75.5 162v18
c0 6 0.333008 12.333 1 19l120 1c0 -49.333 6.33301 -83.166 19 -101.499s44.667 -27.5 96 -27.5l27 1c45.333 -0.666992 79 3.66602 101 12.999s33 39 33 89c0 41.333 -8.16699 67 -24.5 77s-44.166 15 -83.499 15l-78 1v0z" />
    <glyph glyph-name="four" unicode="4" horiz-adv-x="627" 
d="M510 667v-428h78v-95h-78v-144h-120v144h-363v138l296 385h187v0zM390 239l-2 335l-260 -335h262v0z" />
    <glyph glyph-name="five" unicode="5" horiz-adv-x="627" 
d="M541 667l0.00292969 -96h-354v-165c15.333 19.333 34.333 32.333 57 39s46 10.334 70 11.001c4.66699 0.666992 9.5 1 14.5 1h14.5c79.333 0 136.833 -15.5 172.5 -46.5s53.5 -87.5 53.5 -169.5v-26c0 -8.66699 -0.333008 -17.334 -1 -26.001
c-2.66699 -41.333 -11.834 -80 -27.501 -116s-47.5 -58.667 -95.5 -68c-24.667 -4 -49.5 -6.66699 -74.5 -8s-50.167 -2 -75.5 -2h-26c-8.66699 0 -17.334 0.333008 -26.001 1c-31.333 2 -61.333 7.66699 -90 17s-51.667 28 -69 56c-8.66699 14.667 -14.5 30 -17.5 46
s-4.83301 32.333 -5.5 49c0 4 -0.166992 7.83301 -0.5 11.5s-0.5 7.5 -0.5 11.5v2.5v2.5l122 1c1.33301 -47.333 11.666 -75.333 30.999 -84s48.333 -13 87 -13c46.667 0 82.5 5 107.5 15s37.5 41.333 37.5 94v34c0 44 -6.5 74.667 -19.5 92s-43.5 26 -91.5 26l-45 1
c-4.66699 -0.666992 -9.66699 -1 -15 -1s-10.333 -0.333008 -15 -1c-16 -0.666992 -31 -4 -45 -10s-23 -18 -27 -36l-112 1v356h466v0z" />
    <glyph glyph-name="six" unicode="6" horiz-adv-x="626" 
d="M553 480l-122.001 -0.000976562c0 34.667 -6.5 58.167 -19.5 70.5s-37.167 18.5 -72.5 18.5l-58 1c-41.333 -0.666992 -70.166 -7 -86.499 -19s-24.5 -37.333 -24.5 -76v-17v-116c16.667 30.667 38.5 49 65.5 55s56.5 9 88.5 9c75.333 0 133.5 -11 174.5 -33
s61.5 -75.667 61.5 -161v-6.5v-6.5c-0.666992 -45.333 -9 -87.666 -25 -126.999s-51.333 -62.666 -106 -69.999c-13.333 -1.33301 -26.833 -2.5 -40.5 -3.5s-27.5 -1.83301 -41.5 -2.5c-6.66699 -0.666992 -13.5 -1 -20.5 -1h-20.5c-81.333 0 -145.166 13 -191.499 39
s-69.5 85.333 -69.5 178c0 20 0.166992 39.833 0.5 59.5s0.5 39.167 0.5 58.5s0.166992 38.833 0.5 58.5s0.5 39.5 0.5 59.5c0 95.333 21.167 156.166 63.5 182.499s107.166 39.5 194.499 39.5c74.667 0 134.667 -9.5 180 -28.5s68 -73.167 68 -162.5v1zM168.999 218.999
c0 -59.333 8.5 -94.833 25.5 -106.5s53.833 -17.5 110.5 -17.5l9 1c36.667 -0.666992 66.167 2.66602 88.5 9.99902s33.5 32.333 33.5 75v23c0 41.333 -5.33301 68.833 -16 82.5s-40 20.5 -88 20.5l-40 1c-6 -0.666992 -12.167 -1 -18.5 -1s-12.833 -0.333008 -19.5 -1
c-12 -0.666992 -23.5 -2.33398 -34.5 -5.00098s-20.5 -7 -28.5 -13c-7.33301 -5.33301 -12.5 -12.166 -15.5 -20.499s-4.83301 -17.166 -5.5 -26.499c-0.666992 -4 -1 -8 -1 -12v-11v1z" />
    <glyph glyph-name="seven" unicode="7" horiz-adv-x="627" 
d="M542 667v-123l-273 -544h-137l287 561h-372v106h495v0z" />
    <glyph glyph-name="eight" unicode="8" horiz-adv-x="626" 
d="M453 343c45.333 -11.333 75.333 -28.1631 90 -50.4961s22 -56.5 22 -102.5c0 -86.667 -19.833 -140.834 -59.5 -162.501s-100.167 -32.5 -181.5 -32.5h-17c-78.667 0 -141.834 9.16699 -189.501 27.5s-71.5 74.5 -71.5 168.5c0 47.333 8.5 81.833 25.5 103.5
s47.833 37.5 92.5 47.5c-43.333 14 -72.166 31 -86.499 51s-21.5 52.333 -21.5 97c0 73.333 18.667 121.666 56 144.999s88.666 35 153.999 35l37 1c69.333 -0.666992 129 -8.83398 179 -24.501s75 -66.834 75 -153.501c0 -6.66699 -0.166992 -13.667 -0.5 -21
s-0.833008 -15 -1.5 -23c-1.33301 -12.667 -4 -25 -8 -37s-10 -22.333 -18 -31c-7.33301 -8 -16.166 -14.5 -26.499 -19.5s-20.833 -9.5 -31.5 -13.5c-3.33301 -1.33301 -6.5 -2.5 -9.5 -3.5s-5.83301 -1.83301 -8.5 -2.5v1zM170 197.003
c0 -39.333 7.16699 -65.667 21.5 -79s40.5 -20 78.5 -20l70 1c39.333 -0.666992 66.666 5.5 81.999 18.5s23 38.5 23 76.5c0 29.333 -4.16699 52.333 -12.5 69s-29.166 26 -62.499 28c-16.667 1.33301 -33.5 2 -50.5 2h-51.5c-35.333 0 -60.5 -5.5 -75.5 -16.5
s-22.5 -37.833 -22.5 -80.5v1zM178 487.002c0 -31.333 4.16602 -55 12.499 -71s29.833 -24.667 64.5 -26c7.33301 0 14.5 -0.166992 21.5 -0.5s14.167 -0.5 21.5 -0.5c7.33301 -0.666992 14.5 -1 21.5 -1h21.5c40 0 65.667 8 77 24s17 41.333 17 76
c0 39.333 -8.5 63 -25.5 71s-44.167 12 -81.5 12l-42 1c-4.66699 -0.666992 -9.66699 -1 -15 -1s-10.666 -0.333008 -15.999 -1c-10.667 -0.666992 -21 -2 -31 -4s-18.333 -5.66699 -25 -11c-6.66699 -4.66699 -11.5 -11 -14.5 -19s-4.83301 -16.333 -5.5 -25
c-0.666992 -4.66699 -1 -9 -1 -13v-12v1z" />
    <glyph glyph-name="nine" unicode="9" horiz-adv-x="627" 
d="M48 187l120.002 0.000976562c0 -36 7 -60.167 21 -72.5s38.333 -18.5 73 -18.5h16c5.33301 0 11 0.333008 17 1h16h16c41.333 0 70.666 6.16699 87.999 18.5s26 39.833 26 82.5v128c-4 -9.33301 -8.66699 -18 -14 -26s-12.666 -14.667 -21.999 -20
c-12.667 -6.66699 -26 -11.334 -40 -14.001s-28.333 -4.33398 -43 -5.00098c-6.66699 -0.666992 -13.334 -1 -20.001 -1h-19c-76.667 0 -134.167 11.5 -172.5 34.5s-57.5 76.833 -57.5 161.5c0 91.333 19.167 150 57.5 176s99.166 39 182.499 39s148 -10.667 194 -32
s71.333 -79.666 76 -174.999c0 -4.66699 0.166992 -9.66699 0.5 -15s0.5 -10.333 0.5 -15v-15.5v-15.5v-38c0 -12.667 0.333008 -25 1 -37v-38v-38c0 -96.667 -16.167 -163.667 -48.5 -201s-99.833 -56 -202.5 -56h-14c-78 0 -139.5 8.5 -184.5 25.5
s-67.5 72.167 -67.5 165.5v1zM175.002 464.001c0 -41.333 7.00098 -69.167 21.001 -83.5s42.333 -21.5 85 -21.5l52 1c34.667 -0.666992 61.667 3.83301 81 13.5s29 33.167 29 70.5c0 53.333 -7.16699 87.5 -21.5 102.5s-47.833 22.5 -100.5 22.5l-23 1
c-46.667 -0.666992 -78.834 -6.16699 -96.501 -16.5s-26.5 -40.5 -26.5 -90.5v1z" />
    <glyph glyph-name="colon" unicode=":" horiz-adv-x="211" 
d="M161 122v-122h-111v122h111v0zM161 467v-122h-111v122h111v0z" />
    <glyph glyph-name="semicolon" unicode=";" horiz-adv-x="210" 
d="M155 120l0.000976562 -117.002c0 -42 -6.66699 -71.833 -20 -89.5s-43 -26.5 -89 -26.5h-6c-2 0 -4 0.333008 -6 1v52c17.333 0.666992 30.666 3.83398 39.999 9.50098s14 17.834 14 36.501v3.5v3.5c-0.666992 1.33301 -1 2.5 -1 3.5v3.5h-44v120h112v0zM153.001 465.998
v-122h-112v122h112v0z" />
    <glyph glyph-name="less" unicode="&#x3c;" horiz-adv-x="500" 
d="M466 607v-121l-304 -149l304 -150v-120l-433 219v102l433 219v0z" />
    <glyph glyph-name="equal" unicode="=" horiz-adv-x="500" 
d="M15 307h469v-58h-469v58v0zM15 453h469v-58h-469v58v0z" />
    <glyph glyph-name="greater" unicode="&#x3e;" horiz-adv-x="500" 
d="M34 67v121l304 149l-303 149l-1 121l433 -219v-103l-433 -218v0z" />
    <glyph glyph-name="question" unicode="?" horiz-adv-x="529" 
d="M293 122v-122h-111v122h111v0zM295 212l-113 0.000976562c0 41.333 2.83301 72.166 8.5 92.499s22.5 38.5 50.5 54.5l17.5 8.5l20.5 9.5l22.5 9.5l19.5 8.5c18 8 31.333 17.833 40 29.5s13 32.5 13 62.5c0 36 -6.66699 60 -20 72s-37.666 18 -72.999 18l-15 1
c-38.667 -0.666992 -66 -6.33398 -82 -17.001s-24 -35.334 -24 -74.001v-23h-111v11c0 4 0.333008 8 1 12v20.5c0 7 0.333008 14.167 1 21.5c1.33301 18 4.5 35.667 9.5 53s14.5 32 28.5 44c14 12.667 30.5 22 49.5 28s38.5 10.333 58.5 13
c10.667 1.33301 21.167 2.16602 31.5 2.49902s20.5 0.5 30.5 0.5c69.333 0 124.166 -9 164.499 -27s60.5 -66.667 60.5 -146v-16v-16c-1.33301 -19.333 -4.16602 -38.166 -8.49902 -56.499s-12.833 -34.833 -25.5 -49.5c-8.66699 -10 -18.334 -18.167 -29.001 -24.5
s-21.667 -11.833 -33 -16.5c-3.33301 -1.33301 -6.5 -2.66602 -9.5 -3.99902s-6.16699 -2.33301 -9.5 -3c-19.333 -8 -36.333 -17.5 -51 -28.5s-22 -29.5 -22 -55.5v-4v-4c-0.666992 -1.33301 -1 -2.66602 -1 -3.99902v-4v1z" />
    <glyph glyph-name="at" unicode="@" horiz-adv-x="700" 
d="M422 491l81.9961 -0.0078125v-211v-5.5c0 -1.66699 0.333008 -3.16699 1 -4.5v-1.5v-0.5c0.666992 -13.333 2.83398 -25.333 6.50098 -36s14.167 -16 31.5 -16c14.667 0 24.667 4 30 12s9.33301 18.333 12 31s4.33398 25.334 5.00098 38.001l2 38v19v19v26
c0 59.333 -6.33301 100.333 -19 123s-47.334 36 -104.001 40c-16 1.33301 -32 2 -48 2h-48c-21.333 0 -42.833 -0.333008 -64.5 -1s-43.167 -2 -64.5 -4c-28 -2 -52.5 -7.66699 -73.5 -17s-36.167 -28.666 -45.5 -57.999c-4 -13.333 -7 -27.5 -9 -42.5
s-3.33301 -29.833 -4 -44.5c-0.666992 -10.667 -1 -21 -1 -31v-29v-18c0 -94.667 9.16699 -160 27.5 -196s78.166 -54 179.499 -54l59 1c6 -0.666992 11.833 -1 17.5 -1h17.5c16 0.666992 31.833 1.83398 47.5 3.50098s30.167 4.83398 43.5 9.50098
c6.66699 2 12.334 5.16699 17.001 9.5s8.33398 9.5 11.001 15.5l59 -26c-5.33301 -10.667 -11.666 -20.167 -18.999 -28.5s-16.333 -15.166 -27 -20.499c-16 -8 -33.833 -13.667 -53.5 -17s-40.167 -5.33301 -61.5 -6c-8 -0.666992 -16.167 -1 -24.5 -1h-24.5l-45 1
c-68 -0.666992 -129 6.66602 -183 21.999s-86 64.333 -96 147c-2.66699 22.667 -4.66699 45.334 -6 68.001s-2 45.334 -2 68.001c0 126.667 18.333 210 55 250s118 60 244 60l25 1c110.667 -0.666992 185.334 -13.5 224.001 -38.5s58 -95.833 58 -212.5
c0 -12 -0.166992 -25 -0.5 -39s-0.833008 -28 -1.5 -42c-2 -18 -4.83301 -35.667 -8.5 -53s-9.5 -32.666 -17.5 -45.999c-9.33301 -16 -21.833 -26.5 -37.5 -31.5s-31.834 -7.83301 -48.501 -8.5h-5.5h-5.5c-22 0 -42.333 3.16699 -61 9.5s-30.667 22.5 -36 48.5
c-10 -24.667 -24.667 -40.834 -44 -48.501s-41.666 -11.5 -66.999 -11.5c-56.667 0 -91.667 15.333 -105 46s-20 70.334 -20 119.001c0 47.333 6.66699 88.5 20 123.5s48.333 52.5 105 52.5c23.333 0 43 -2.66699 59 -8s30 -18.666 42 -39.999v46v0zM423.996 350.992
c0 27.333 -5.50098 47.666 -16.501 60.999s-30.833 20 -59.5 20c-34 0 -54.667 -8.16699 -62 -24.5s-11 -37.166 -11 -62.499v-42c0 -27.333 3.33301 -49 10 -65s26 -24 58 -24c38.667 0 61.834 8.33301 69.501 25s11.5 41 11.5 73v39v0z" />
    <glyph glyph-name="A" unicode="A" horiz-adv-x="630" 
d="M460 128h-289l-41 -128h-133l222 667h188l226 -667h-130l-43 128v0zM431 223l-116 346l-114 -346h230v0z" />
    <glyph glyph-name="B" unicode="B" horiz-adv-x="636" 
d="M59 0v667h341c60 -0.666992 105.833 -12.334 137.5 -35.001s47.5 -67 47.5 -133c0 -38.667 -5.33301 -71.667 -16 -99s-36.667 -45.666 -78 -54.999v-3c43.333 -7.33301 72.5 -23.5 87.5 -48.5s22.5 -59.167 22.5 -102.5c0 -66.667 -13.833 -115.167 -41.5 -145.5
s-77.167 -45.5 -148.5 -45.5h-352v0zM185 104l163 0.000976562c42 -0.666992 73.333 4.16602 94 14.499s31 37.5 31 81.5c0 39.333 -7.83301 64.5 -23.5 75.5s-42.167 16.5 -79.5 16.5l-185 1v-189v0zM185 388.001l161.999 -0.000976562
c40.667 -0.666992 69.334 4.33301 86.001 15s25 36.334 25 77.001c0 31.333 -6 52.5 -18 63.5s-33.333 16.5 -64 16.5l-191 1v-173v0z" />
    <glyph glyph-name="C" unicode="C" horiz-adv-x="619" 
d="M473 239l125.001 0.00390625c0 -5.33301 0.166992 -10.333 0.5 -15s0.5 -9 0.5 -13c0 -4.66699 0.166992 -9.33398 0.5 -14.001s0.5 -9.33398 0.5 -14.001c0 -78.667 -22.5 -129.5 -67.5 -152.5s-102.167 -34.5 -171.5 -34.5h-89c-94 0 -156 23.167 -186 69.5
s-45 112.5 -45 198.5c0 8 -0.166992 16.167 -0.5 24.5s-0.5 16.5 -0.5 24.5c0 4 -0.166992 8 -0.5 12s-0.5 8 -0.5 12c0 12 -0.166992 24.167 -0.5 36.5s-0.5 24.5 -0.5 36.5c0 112 25 183.333 75 214s125.333 46 226 46l43 1c4.66699 -0.666992 9.16699 -1 13.5 -1h13.5
c30 -1.33301 58.833 -6 86.5 -14s50.167 -25.333 67.5 -52c12 -17.333 19.833 -36.166 23.5 -56.499s5.83398 -40.5 6.50098 -60.5c0 -3.33301 0.166992 -6.83301 0.5 -10.5s0.5 -7.16699 0.5 -10.5c0 -4 0.166992 -8 0.5 -12s0.5 -8 0.5 -12l-127 1
c-1.33301 4 -2.16602 8.66699 -2.49902 14s-0.833008 10.666 -1.5 15.999v3.5v3.5c-0.666992 18.667 -4.16699 35.834 -10.5 51.501s-26.833 24.5 -61.5 26.5c-9.33301 1.33301 -18.833 2 -28.5 2h-28.5l-22 1c-6 -0.666992 -12.333 -1 -19 -1s-13.334 -0.333008 -20.001 -1
c-14.667 -1.33301 -28.834 -3.83301 -42.501 -7.5s-24.5 -9.5 -32.5 -17.5c-8 -8.66699 -13.833 -18.5 -17.5 -29.5s-5.83398 -22.167 -6.50098 -33.5c-0.666992 -4.66699 -1.16699 -9.33398 -1.5 -14.001s-0.5 -9.33398 -0.5 -14.001
c-0.666992 -10.667 -1.16699 -21.167 -1.5 -31.5s-0.5 -20.833 -0.5 -31.5c0 -21.333 0.166992 -42.833 0.5 -64.5s0.833008 -43.167 1.5 -64.5c0.666992 -66.667 12 -107.834 34 -123.501s64.667 -23.5 128 -23.5c37.333 0 69.833 4 97.5 12s41.5 34.667 41.5 80v10.5v10.5
c-0.666992 3.33301 -1 6.83301 -1 10.5v10.5v1z" />
    <glyph glyph-name="D" unicode="D" horiz-adv-x="670" 
d="M59 0v667.001h328c85.333 -0.666992 148.5 -20.167 189.5 -58.5s61.5 -101.5 61.5 -189.5v-28.5c0 -9.66699 0.333008 -19.167 1 -28.5v-28v-28c0 -82.667 -13 -154.334 -39 -215.001s-89.667 -91 -191 -91h-350v0zM186 108.001l180.999 0.000976562
c66.667 -0.666992 106.834 16.166 120.501 50.499s20.5 79.5 20.5 135.5v37c0 21.333 -0.166992 43 -0.5 65s-1.83301 43.667 -4.5 65c-4.66699 39.333 -18.5 65 -41.5 77s-51.833 18 -86.5 18l-189 1v-449v0z" />
    <glyph glyph-name="E" unicode="E" horiz-adv-x="550" 
d="M169 561v-174h313v-93h-313v-189h332v-105h-456v667h453v-106h-329v0z" />
    <glyph glyph-name="F" unicode="F" horiz-adv-x="518" 
d="M187 560v-181h297v-104h-297v-275h-128v667h441v-107h-313v0z" />
    <glyph glyph-name="G" unicode="G" horiz-adv-x="646" 
d="M324 354l293.998 -0.00195312v-18l2 -106c0 -59.333 -8.5 -110.5 -25.5 -153.5s-60.167 -68.5 -129.5 -76.5c-22 -2 -44 -3.33301 -66 -4s-44 -1 -66 -1c-100.667 0 -175.167 15.833 -223.5 47.5s-72.5 102.834 -72.5 213.501v23.5c0 7.66699 0.333008 15.167 1 22.5
v22.5v23.5v15.5v15.5v28.5c0 9.66699 0.333008 19.5 1 29.5c0.666992 27.333 3.83398 54.5 9.50098 81.5s16.5 51.833 32.5 74.5c20 28.667 45.5 48.167 76.5 58.5s63.167 16.5 96.5 18.5c10 0.666992 19.833 1 29.5 1h28.5l59 1c84 -0.666992 145.833 -12.5 185.5 -35.5
s60.167 -80.167 61.5 -171.5l-128 1c0 29.333 -5.83301 52.333 -17.5 69s-33.167 25.667 -64.5 27c-12 0.666992 -24 1.16699 -36 1.5s-24 0.5 -36 0.5c-82 0 -130.333 -11.833 -145 -35.5s-22.667 -75.167 -24 -154.5v-16v-17l1 -86
c0.666992 -69.333 11.834 -112.166 33.501 -128.499s65.5 -24.5 131.5 -24.5c61.333 0 103.333 7.16699 126 21.5s34 52.833 34 115.5v4.5v5.5c-0.666992 1.33301 -1 2.83301 -1 4.5v4.5l-168 1v95v0z" />
    <glyph glyph-name="H" unicode="H" horiz-adv-x="684" 
d="M625 667v-667h-128v285h-311v-285h-127v667h127v-273h311v273h128v0z" />
    <glyph glyph-name="I" unicode="I" horiz-adv-x="245" 
d="M186 667v-667h-128v667h128v0z" />
    <glyph glyph-name="J" unicode="J" horiz-adv-x="519" 
d="M461 667l0.000976562 -466.999c0 -77.333 -15.333 -130.833 -46 -160.5s-85.334 -44.5 -164.001 -44.5c-68 0 -123 9.66699 -165 29s-63 69 -63 149v88h121c0 -5.33301 -0.166992 -10.333 -0.5 -15s-0.5 -9 -0.5 -13v-14v-14c0 -38.667 4.5 -65.334 13.5 -80.001
s34.5 -22 76.5 -22c37.333 0 63.333 6.33301 78 19s22 38 22 76v17v452h128v0z" />
    <glyph glyph-name="K" unicode="K" horiz-adv-x="635" 
d="M186 667v-272h60l222 272h157l-270 -325l298 -342h-162l-245 286h-60v-286h-128v667h128v0z" />
    <glyph glyph-name="L" unicode="L" horiz-adv-x="503" 
d="M189 667v-555h309v-112h-439v667h130v0z" />
    <glyph glyph-name="M" unicode="M" horiz-adv-x="895" 
d="M837 667v-667h-125l4 562l-210 -562h-115l-213 559l6 -559h-125v667h206l180 -495h4l178 495h210v0z" />
    <glyph glyph-name="N" unicode="N" horiz-adv-x="735" 
d="M676 667v-667h-212l-282 558h-4l4 -558h-124v667h211l282 -558h4l-4 558h125v0z" />
    <glyph glyph-name="O" unicode="O" horiz-adv-x="636" 
d="M39 325c0 110.667 12.5 196.001 37.5 256.001s101.5 90 229.5 90c77.333 0 145.833 -10.167 205.5 -30.5s91.834 -77.833 96.501 -172.5c1.33301 -14.667 2.16602 -29.334 2.49902 -44.001s0.5 -29.667 0.5 -45v-44c0 -124 -13.5 -211.833 -40.5 -263.5
s-112.167 -77.5 -255.5 -77.5c-100.667 0 -172 17 -214 51s-63 104.333 -63 211v18c0 6 0.333008 12 1 18v16.5v15.5v1zM169 328.001v-30.502v-29.5c0 -10 0.166992 -19.833 0.5 -29.5s0.833008 -19.5 1.5 -29.5c4 -50 17.5 -80.333 40.5 -91s56.833 -16 101.5 -16
c58.667 0 100.667 7.5 126 22.5s39 53.5 41 115.5c1.33301 27.333 2 54.5 2 81.5v80.5c0 62 -7.5 104.333 -22.5 127s-54.167 34 -117.5 34c-86 0 -136.167 -12.167 -150.5 -36.5s-21.5 -71.166 -21.5 -140.499v-4.5v-4.5c-0.666992 -7.33301 -1 -15.166 -1 -23.499v-26.5v1
z" />
    <glyph glyph-name="P" unicode="P" horiz-adv-x="610" 
d="M59 0v667h267c89.333 -0.666992 155.333 -13.834 198 -39.501s64 -88.5 64 -188.5c0 -8.66699 -0.166992 -17.667 -0.5 -27s-0.833008 -18.666 -1.5 -27.999c-1.33301 -23.333 -5.5 -46 -12.5 -68s-19.5 -41 -37.5 -57c-20 -18.667 -42.5 -30.5 -67.5 -35.5
s-50.833 -7.5 -77.5 -7.5c-3.33301 -0.666992 -6.83301 -1 -10.5 -1h-11.5h-5h-6h-6h-6h-7h-6l-150 1v-216h-124v0zM183 326l144.999 0.00195312c47.333 -0.666992 80.833 4.16602 100.5 14.499s29.5 42.166 29.5 95.499c0 49.333 -6.66699 82 -20 98s-45.666 24 -96.999 24
l-158 1v-233v0z" />
    <glyph glyph-name="Q" unicode="Q" horiz-adv-x="681" 
d="M683 90l-52 -74.999l-58 43c-22 -23.333 -48 -38.833 -78 -46.5s-60.333 -12.167 -91 -13.5c-9.33301 -0.666992 -18.666 -1 -27.999 -1h-28c-106.667 0 -185 15.5 -235 46.5s-75 105.833 -75 224.5v26.5c0 9 0.333008 17.833 1 26.5v26.5v26.5v28.5
c0 9.66699 0.333008 19.5 1 29.5c0 9.33301 0.333008 18.833 1 28.5s1.66699 19.167 3 28.5c10.667 84.667 45 136 103 154s122.333 27 193 27c109.333 0 184.833 -17 226.5 -51s63.5 -108.333 65.5 -223v-141v-23.5c0 -7.66699 -0.333008 -15.5 -1 -23.5
c-0.666992 -12.667 -1.83398 -25.334 -3.50098 -38.001s-4.5 -25 -8.5 -37l64 -43v0zM357 314.001l141.999 -97.999c1.33301 7.33301 2.16602 15 2.49902 23s0.5 16 0.5 24v20c0 6.66699 0.333008 13.667 1 21v20v20v24c0 8 -0.333008 16 -1 24
c0 7.33301 -0.166992 15 -0.5 23s-0.833008 16 -1.5 24c-1.33301 43.333 -10.5 74.833 -27.5 94.5s-48.167 29.5 -93.5 29.5h-10.5h-10.5c-3.33301 -0.666992 -6.66602 -1 -9.99902 -1h-10c-64 0 -108.167 -7.5 -132.5 -22.5s-36.5 -57.167 -36.5 -126.5v-82v-24.5v-22.5
c0 -68 6.83301 -115 20.5 -141s61.834 -39 144.501 -39l17 1c2 -0.666992 4 -1 6 -1h6c18.667 0 37 1.66699 55 5s34.333 10.666 49 21.999l-163 107l53 76v0z" />
    <glyph glyph-name="R" unicode="R" horiz-adv-x="641" 
d="M58 0v667.001h324c76.667 -0.666992 132 -15.5 166 -44.5s51 -83.167 51 -162.5v-25c0 -8.66699 -0.666992 -17.334 -2 -26.001c-1.33301 -18.667 -4.83301 -37 -10.5 -55s-15.5 -33 -29.5 -45c-8 -6.66699 -16.833 -12 -26.5 -16s-19.5 -7.33301 -29.5 -10
c-4 -0.666992 -7.83301 -1.5 -11.5 -2.5s-7.5 -1.83301 -11.5 -2.5v-3c39.333 -3.33301 68 -16 86 -38s27 -52.667 27 -92v-145h-129v121l1 15c-0.666992 33.333 -10.167 56 -28.5 68s-42.5 18 -72.5 18l-180 1v-223h-124v0zM182 330.001l180 0.000976562
c39.333 -0.666992 66.833 6.83301 82.5 22.5s23.5 42.167 23.5 79.5c0 41.333 -4.5 72.166 -13.5 92.499s-37.167 30.5 -84.5 30.5l-188 1v-226v0z" />
    <glyph glyph-name="S" unicode="S" horiz-adv-x="598" 
d="M553 472l-121.998 -0.00195312c0 38.667 -8 64.667 -24 78s-43.667 20 -83 20l-35 1c-6 -0.666992 -12.5 -1 -19.5 -1s-13.833 -0.333008 -20.5 -1c-10.667 -0.666992 -21.334 -2.16699 -32.001 -4.5s-20 -5.83301 -28 -10.5c-8 -5.33301 -14 -12.333 -18 -21
s-7 -18 -9 -28c0 -4 -0.166992 -7.83301 -0.5 -11.5s-0.5 -7.16699 -0.5 -10.5c0 -33.333 6.5 -56.166 19.5 -68.499s36.833 -19.5 71.5 -21.5c3.33301 0 6.5 -0.166992 9.5 -0.5s6.16699 -0.5 9.5 -0.5c8.66699 -0.666992 17.167 -1.16699 25.5 -1.5s16.5 -0.5 24.5 -0.5
c65.333 -2 123 -11.167 173 -27.5s75 -68.833 75 -157.5c0 -56.667 -9 -103.167 -27 -139.5s-59.667 -57.833 -125 -64.5c-10.667 -0.666992 -21.167 -1.16699 -31.5 -1.5s-20.5 -0.833008 -30.5 -1.5c-10.667 -0.666992 -21.167 -1 -31.5 -1h-31.5
c-76.667 0 -139.167 8.5 -187.5 25.5s-72.5 71.5 -72.5 163.5v6.5c0 2.33301 0.333008 4.5 1 6.5v6.5v6.5l121 1c0 -31.333 4.16699 -58 12.5 -80s31.166 -33.333 68.499 -34c16 -0.666992 32 -1 48 -1h48c39.333 0 68 5.83301 86 17.5s27 37.834 27 78.501
c0 44 -11.5 70 -34.5 78s-52.5 12.333 -88.5 13h-20c-6.66699 0 -13.667 0.333008 -21 1c-3.33301 0 -6.83301 0.166992 -10.5 0.5s-7.16699 0.833008 -10.5 1.5c-70.667 4.66699 -125.834 16.5 -165.501 35.5s-59.5 72.5 -59.5 160.5c0 56 12 99 36 129s65 47.333 123 52
c17.333 1.33301 34.833 2.33301 52.5 3s35.167 1 52.5 1c68.667 0 128.334 -7.33301 179.001 -22s76 -64.667 76 -150v-25v0z" />
    <glyph glyph-name="T" unicode="T" horiz-adv-x="522" 
d="M324 554v-554h-129v554h-193v113h518v-113h-196v0z" />
    <glyph glyph-name="U" unicode="U" horiz-adv-x="670" 
d="M487 666h126v-444c0 -72 -12.833 -126.833 -38.5 -164.5s-78.5 -57.834 -158.5 -60.501c-6 0 -12 -0.166992 -18 -0.5s-12 -0.5 -18 -0.5c-6.66699 -0.666992 -13 -1 -19 -1h-18c-88.667 0 -158 10.333 -208 31s-75 83.334 -75 188.001v452h128v-451
c0 -48.667 10.167 -79.667 30.5 -93s52.5 -20 96.5 -20l44 1c42 -0.666992 73.833 4.5 95.5 15.5s32.5 39.167 32.5 84.5v17v446v0z" />
    <glyph glyph-name="V" unicode="V" horiz-adv-x="602" 
d="M480 667h132l-215 -667h-193l-213 667h131l179 -560l179 560v0z" />
    <glyph glyph-name="W" unicode="W" horiz-adv-x="990" 
d="M993 667l-179 -667h-186l-133 509h-3l-138 -509h-183l-174 667h128l139 -562h4l153 562h147l151 -562l145 562h129v0z" />
    <glyph glyph-name="X" unicode="X" horiz-adv-x="616" 
d="M610 667l-198 -323l213 -344h-148l-167 281l-169 -281h-151l219 344l-203 323h149l155 -265l154 265h146v0z" />
    <glyph glyph-name="Y" unicode="Y" horiz-adv-x="595" 
d="M605 667l-247 -411v-256h-128v256l-240 411h145l161 -285l161 285h148v0z" />
    <glyph glyph-name="Z" unicode="Z" horiz-adv-x="576" 
d="M550 667v-110l-369 -447l373 -2v-108h-532v108l366 448l-350 1v110h512v0z" />
    <glyph glyph-name="bracketleft" unicode="[" horiz-adv-x="309" 
d="M54 667h205v-95h-85v-577h85v-95h-205v767v0z" />
    <glyph glyph-name="backslash" unicode="\" horiz-adv-x="606" 
d="M65 667h84l452 -767h-84l-452 767v0z" />
    <glyph glyph-name="bracketright" unicode="]" horiz-adv-x="309" 
d="M255 -100h-205v95h85v576h-85v96h205v-767v0z" />
    <glyph glyph-name="asciicircum" unicode="^" horiz-adv-x="500" 
d="M250 659l158 -96l-22 -44l-136 56l-137 -56l-21 44l158 96v0z" />
    <glyph glyph-name="underscore" unicode="_" horiz-adv-x="500" 
d="M0 -63h500v-74h-500v74v0z" />
    <glyph glyph-name="grave" unicode="`" horiz-adv-x="207" 
d="M41 447l-0.000976562 116c0 42 6.66699 71.833 20 89.5s43 26.5 89 26.5h3.5h2.5c1.33301 -0.666992 2.5 -1 3.5 -1h2.5v-51c-17.333 -1.33301 -30.666 -5 -39.999 -11s-14 -18 -14 -36v-3.5c0 -1 0.333008 -2.16699 1 -3.5v-3.5v-3.5l44 1v-120h-112v0z" />
    <glyph glyph-name="a" unicode="a" horiz-adv-x="524" 
d="M171 330h-113c0 66 18.833 105.667 56.5 119s83.834 20 138.501 20c64 0 116.333 -8.66699 157 -26s61 -64 61 -140v-303h-110l3 58c-17.333 -31.333 -38.833 -50 -64.5 -56s-55.167 -9 -88.5 -9c-49.333 0 -90 9 -122 27s-48 55.333 -48 112c0 60 15.5 100 46.5 120
s73.5 30 127.5 30c7.33301 0 15 -0.166992 23 -0.5s16 -0.5 24 -0.5c10.667 -1.33301 21 -2.83301 31 -4.5s19.333 -4.5 28 -8.5c7.33301 -3.33301 13.5 -7.83301 18.5 -13.5s9.5 -11.5 13.5 -17.5c0.666992 -0.666992 1.16699 -1.5 1.5 -2.5s0.833008 -1.83301 1.5 -2.5
l2 72c0 38 -7.16699 63 -21.5 75s-40.5 18 -78.5 18h-15.5c-5.66699 0 -11.5 -0.333008 -17.5 -1c-10 -1.33301 -19.333 -3.83301 -28 -7.5s-15.334 -9.5 -20.001 -17.5c-2 -4 -3.33301 -8.5 -4 -13.5l-2 -14.5v-6.5v-7.5v1zM153 146
c0 -35.333 7.83398 -56.834 23.501 -64.501s38.834 -11.5 69.501 -11.5h10h10c23.333 1.33301 44.666 6.16602 63.999 14.499s29 26.833 29 55.5v8.5c0 3 -0.333008 5.83301 -1 8.5c-0.666992 6 -2 12 -4 18s-5.33301 11 -10 15
c-6.66699 5.33301 -14.834 9.33301 -24.501 12s-19.5 4.66699 -29.5 6c-7.33301 0.666992 -14.5 1 -21.5 1h-19.5h-15c-5.33301 0 -10.666 -0.333008 -15.999 -1c-8.66699 -0.666992 -17.334 -2.16699 -26.001 -4.5s-16.334 -6.16602 -23.001 -11.499
c-5.33301 -4.66699 -9.16602 -10.167 -11.499 -16.5s-3.83301 -13.166 -4.5 -20.499v-4.5v-5.5v1z" />
    <glyph glyph-name="b" unicode="b" horiz-adv-x="528" 
d="M55 0l0.000976562 667.001h111v-263h4c14 27.333 32.667 45.666 56 54.999s49.666 14 78.999 14c82.667 0 134 -20 154 -60s30 -97.333 30 -172c0 -72.667 -9 -131.667 -27 -177s-69.667 -68 -155 -68c-34 0 -62 4.83301 -84 14.5s-42 29.167 -60 58.5l3 -69h-111v0z
M168.001 244.001v-19.001c0 -45.333 4.83301 -80.5 14.5 -105.5s40.834 -37.5 93.501 -37.5c48 0 77 11.833 87 35.5s15 55.834 15 96.501v41c0 42 -5.33301 74.333 -16 97s-40.334 34 -89.001 34c-50 0 -80 -12.833 -90 -38.5s-15 -60.5 -15 -104.5v1z" />
    <glyph glyph-name="c" unicode="c" horiz-adv-x="490" 
d="M359 177l108.999 -0.000976562c0 -73.333 -14.167 -122.166 -42.5 -146.499s-79.166 -36.5 -152.499 -36.5c-84.667 0 -144.167 14.667 -178.5 44s-51.5 88 -51.5 176c0 85.333 11.667 149.5 35 192.5s82.333 64.5 177 64.5c58.667 0 108.167 -8.16699 148.5 -24.5
s60.5 -58.833 60.5 -127.5v-8.5c0 -3 -0.333008 -5.83301 -1 -8.5l-107 1c0 38 -8.33301 61.167 -25 69.5s-42.667 12.5 -78 12.5h-12c-4 0 -8 -0.333008 -12 -1c-10.667 -0.666992 -20.834 -2.66699 -30.501 -6s-17.167 -9.33301 -22.5 -18
c-5.33301 -8 -9.16602 -17.5 -11.499 -28.5s-3.83301 -22.167 -4.5 -33.5c-1.33301 -9.33301 -2 -18.333 -2 -27v-24v-9.5v-11.5c-0.666992 -4 -1 -8 -1 -12v-13c0 -40 4.83301 -70.333 14.5 -91s37.5 -31 83.5 -31c43.333 0 71.5 5.66699 84.5 17s19.5 38 19.5 80v1z" />
    <glyph glyph-name="d" unicode="d" horiz-adv-x="527" 
d="M474 667v-666.999h-110l2 71c-18 -33.333 -38.167 -54.333 -60.5 -63s-51.833 -13 -88.5 -13c-86.667 0 -137.667 24.333 -153 73s-23 109 -23 181c0 65.333 10.333 118.666 31 159.999s68.334 62 143.001 62c33.333 0 61.666 -3.66699 84.999 -11s43.333 -26 60 -56
l1 263h113v0zM150 243.001l-0.00292969 -26.001c0 -8.66699 0.333008 -17 1 -25l2 -26c0.666992 -8.66699 2 -17 4 -25c6 -26.667 17.667 -43.667 35 -51s38 -11 62 -11h14c4.66699 0 9.33398 0.333008 14.001 1c12 1.33301 23.5 4 34.5 8s19.833 11 26.5 21
c5.33301 8.66699 9.33301 18.667 12 30s4.33398 23 5.00098 35c1.33301 10.667 2 20.834 2 30.501v26.5c0 47.333 -4.66699 85 -14 113s-41.666 42 -96.999 42c-46 0 -74.333 -12.5 -85 -37.5s-16 -57.833 -16 -98.5v-7v0z" />
    <glyph glyph-name="e" unicode="e" horiz-adv-x="506" 
d="M356 149l110 -0.000976562c0.666992 -3.33301 1 -6.5 1 -9.5v-9.5c0 -63.333 -21.167 -101.833 -63.5 -115.5s-89.5 -20.5 -141.5 -20.5c-98.667 0 -160.667 18.5 -186 55.5s-38 101.167 -38 192.5c0 82 13.333 140.833 40 176.5s83.667 53.5 171 53.5
s145.5 -15.667 174.5 -47s43.5 -90.666 43.5 -177.999l-1 -33h-317c0 -50 5.16699 -85.833 15.5 -107.5s43.5 -32.5 99.5 -32.5c23.333 0 44.5 3.66699 63.5 11s28.5 25.333 28.5 54v10v0zM358 282.999c0 44 -6.16797 72.999 -18.501 86.999s-41.166 21 -86.499 21
c-38.667 0 -65 -5.66699 -79 -17s-21.667 -37 -23 -77v-4v-3c-0.666992 -1.33301 -1 -2.66602 -1 -3.99902v-4l208 1v0z" />
    <glyph glyph-name="f" unicode="f" horiz-adv-x="309" 
d="M304 467l-0.00195312 -82.998h-114v-384h-112v384h-66v83h66v51c0 6 0.166992 12.667 0.5 20s0.833008 14.666 1.5 21.999c0.666992 11.333 2.66699 22.5 6 33.5s8 20.5 14 28.5c12 16 27.833 27.5 47.5 34.5s39.834 11.5 60.501 13.5
c12.667 1.33301 25.167 2.16602 37.5 2.49902s23.833 0.5 34.5 0.5h5.5h5.5c1.33301 -0.666992 2.83301 -1 4.5 -1h5.5v-84c-5.33301 0.666992 -10.833 1.16699 -16.5 1.5s-11.167 0.5 -16.5 0.5h-8.5c-3 0 -6.16699 -0.333008 -9.5 -1
c-25.333 -2 -41.666 -8.5 -48.999 -19.5s-11 -28.5 -11 -52.5v-50h114v0z" />
    <glyph glyph-name="g" unicode="g" horiz-adv-x="528" 
d="M473 466l-0.000976562 -476.998c0 -79.333 -16.667 -132 -50 -158s-88.333 -39 -165 -39c-10 0 -20.667 0.166992 -32 0.5s-22.666 0.833008 -33.999 1.5c-24.667 2.66699 -48 8.5 -70 17.5s-38.667 24.5 -50 46.5c-4.66699 9.33301 -8 19.333 -10 30
s-3.33301 21.334 -4 32.001c0 3.33301 -0.166992 6.66602 -0.5 9.99902s-0.5 7 -0.5 11v4.5v5.5h106c0 -32.667 7.66699 -53.334 23 -62.001s37.333 -13 66 -13c35.333 0 63 5.16699 83 15.5s30 35.166 30 74.499v100h-3c-12.667 -28.667 -31.5 -47.5 -56.5 -56.5
s-51.833 -13.5 -80.5 -13.5c-44.667 0 -84.167 9.5 -118.5 28.5s-54.833 52.833 -61.5 101.5c-2.66699 18.667 -4.33398 37.167 -5.00098 55.5s-1 36.833 -1 55.5c0 69.333 10.333 125.666 31 168.999s71.334 65 152.001 65c32 0 57.5 -3.16699 76.5 -9.5
s36.5 -20.166 52.5 -41.499l8.5 -12.5c3 -4.33301 5.83301 -8.83301 8.5 -13.5l-3 72h108v0zM153.999 238.002v-30.001c0 -42 5.5 -73.333 16.5 -94s39.833 -31 86.5 -31c52 0 82.667 13.167 92 39.5s14 60.833 14 103.5v11c0 42.667 -4.83301 77.834 -14.5 105.501
s-40.5 41.5 -92.5 41.5c-42 0 -69.5 -8.16699 -82.5 -24.5s-19.5 -46.833 -19.5 -91.5v-30v0z" />
    <glyph glyph-name="h" unicode="h" horiz-adv-x="532" 
d="M166 667l2 -270c0.666992 0 1.16699 0.5 1.5 1.5s0.833008 1.83301 1.5 2.5c17.333 30.667 36.166 50.5 56.499 59.5s47.833 13.5 82.5 13.5c56.667 0 98.5 -11.667 125.5 -35s40.5 -64 40.5 -122v-317h-112v290c0 32.667 -5.16699 57 -15.5 73s-34.166 24 -71.499 24
c-44 0 -73.5 -10 -88.5 -30s-22.5 -50.333 -22.5 -91v-266h-111v667h111v0z" />
    <glyph glyph-name="i" unicode="i" horiz-adv-x="210" 
d="M160 467v-467h-111v467h111v0zM160 667v-97h-111v97h111v0z" />
    <glyph glyph-name="j" unicode="j" horiz-adv-x="200" 
d="M150 467l-0.000976562 -488.999c0 -42.667 -8.66699 -76.834 -26 -102.501s-49.666 -38.5 -96.999 -38.5c-6.66699 0 -13.5 0.5 -20.5 1.5s-13.833 2.16699 -20.5 3.5l-1 77c23.333 0 38.333 6 45 18s10 28.667 10 50v480h110v0zM150.999 665.001v-96h-112v96h112v0z" />
    <glyph glyph-name="k" unicode="k" horiz-adv-x="479" 
d="M166 667v-382h27l131 182h127l-166 -220l199 -247h-135l-156 208h-27v-208h-111v667h111v0z" />
    <glyph glyph-name="l" unicode="l" horiz-adv-x="224" 
d="M169 667v-667h-113v667h113v0z" />
    <glyph glyph-name="m" unicode="m" horiz-adv-x="821" 
d="M55 467l107.998 -0.00195312l1 -68c16.667 28 36.834 47 60.501 57s51.167 15 82.5 15h12c4 0 8 -0.333008 12 -1c26.667 -1.33301 51.834 -7.66602 75.501 -18.999s38.834 -32.333 45.501 -63l3 1c13.333 32.667 33 54.5 59 65.5s55.333 16.5 88 16.5
c58 0 99.833 -12.667 125.5 -38s38.5 -66.666 38.5 -123.999v-309h-114v288c0 32 -4.5 55.833 -13.5 71.5s-31.833 23.5 -68.5 23.5h-13c-4.66699 0 -9.33398 -0.333008 -14.001 -1c-19.333 -1.33301 -37 -8.83301 -53 -22.5s-24 -42.5 -24 -86.5v-273h-114v291
c-1.33301 32 -6 55.333 -14 70s-30.667 22 -68 22c-39.333 0 -66.5 -9.5 -81.5 -28.5s-22.5 -47.167 -22.5 -84.5v-270h-111v467v0z" />
    <glyph glyph-name="n" unicode="n" horiz-adv-x="531" 
d="M55 467l105.999 -0.000976562l1 -72c18 28.667 38.333 48.834 61 60.501s51.334 17.5 86.001 17.5c56.667 0 98.5 -11.167 125.5 -33.5s40.5 -62.833 40.5 -121.5v-318h-111v288c0 34.667 -5 59.5 -15 74.5s-34.333 22.5 -73 22.5c-34.667 0 -61.667 -8.66699 -81 -26
s-29 -44 -29 -80v-279h-111v467v0z" />
    <glyph glyph-name="o" unicode="o" horiz-adv-x="517" 
d="M45 253c0 83.333 14.333 140.669 43 172.002s85.334 47 170.001 47c88.667 0 148.667 -14.333 180 -43s47 -88.667 47 -180c0 -82.667 -9.5 -145.834 -28.5 -189.501s-78.167 -65.5 -177.5 -65.5c-82.667 0 -142.334 13.167 -179.001 39.5s-55 84.166 -55 173.499v46v0z
M159 241.003l-0.00488281 -32.002c0 -39.333 4 -71.166 12 -95.499s35.667 -36.5 83 -36.5l13 1c4.66699 -0.666992 9.83398 -1 15.501 -1s11.5 0.333008 17.5 1c10 1.33301 19.833 3.66602 29.5 6.99902s17.5 9 23.5 17c6.66699 9.33301 11.334 20.666 14.001 33.999
s4.33398 27.333 5.00098 42c0.666992 6.66699 1 13.5 1 20.5v20.5v37v19.5c0 7 -0.333008 14.5 -1 22.5c-1.33301 14 -3.5 27.333 -6.5 40s-8.16699 22.667 -15.5 30c-6 6 -13.167 10.333 -21.5 13s-17.166 4 -26.499 4c-4 0.666992 -7.66699 1 -11 1h-10l-28 1
c-3.33301 -0.666992 -6.83301 -1 -10.5 -1s-7.16699 -0.333008 -10.5 -1c-8.66699 0 -17.167 -1.16699 -25.5 -3.5s-15.166 -6.16602 -20.499 -11.499c-6 -5.33301 -10.5 -11.666 -13.5 -18.999s-5.5 -14.666 -7.5 -21.999c-0.666992 -2 -1.16699 -4 -1.5 -6
s-0.5 -4 -0.5 -6l-2 -19.5c-0.666992 -6.33301 -1 -12.5 -1 -18.5c-0.666992 -6.66699 -1 -13.167 -1 -19.5v-19.5v1z" />
    <glyph glyph-name="p" unicode="p" horiz-adv-x="529" 
d="M55 466h107.997v-65c18.667 28 38.834 46.667 60.501 56s48.834 14 81.501 14c83.333 0 135 -20.667 155 -62s30 -99 30 -173c0 -66.667 -9 -123.667 -27 -171s-68.333 -71 -151 -71c-32.667 0 -60.667 3.83301 -84 11.5s-43.666 26.5 -60.999 56.5l-2 -259h-110v663v0z
M165.997 246v-30c0 -40.667 6 -73.5 18 -98.5s41.333 -37.5 88 -37.5c50 0 79.833 11.833 89.5 35.5s14.5 56.834 14.5 99.501v28v22c0 8 -0.333008 16.333 -1 25c-1.33301 13.333 -3.33301 26.333 -6 39s-7 23 -13 31s-13.667 13.667 -23 17s-19 5.66602 -29 6.99902
c-4.66699 0.666992 -9.5 1 -14.5 1h-14.5l-6 1c-24.667 -0.666992 -46.167 -4 -64.5 -10s-29.833 -27.333 -34.5 -64l-2 -16.5c-0.666992 -5.66699 -1 -11.167 -1 -16.5c-0.666992 -6 -1 -11.833 -1 -17.5v-16.5v1z" />
    <glyph glyph-name="q" unicode="q" horiz-adv-x="531" 
d="M479 467l-0.00195312 -664.001h-111v260h-3c-12.667 -30 -31.5 -49 -56.5 -57s-52.167 -12 -81.5 -12c-80.667 0 -131.667 20.833 -153 62.5s-32 97.834 -32 168.501c0 71.333 9.33301 130 28 176s70 69 154 69c34.667 0 62.834 -4 84.501 -12s41.834 -27 60.501 -57
l-1 66h111v0zM156.998 242.999l-0.000976562 -24c0 -44 5 -78.167 15 -102.5s40.333 -36.5 91 -36.5s80.667 13.5 90 40.5s14 61.833 14 104.5v10c0 7.33301 -0.166992 15.5 -0.5 24.5s-0.833008 18.5 -1.5 28.5c-1.33301 14 -3.66602 27.833 -6.99902 41.5
s-8.33301 24.5 -15 32.5c-6 7.33301 -13.5 12.5 -22.5 15.5s-18.5 5.16699 -28.5 6.5c-6 0.666992 -11.833 1 -17.5 1h-16.5c-44 0 -71.833 -10.833 -83.5 -32.5s-17.5 -53.167 -17.5 -94.5v-15v0z" />
    <glyph glyph-name="r" unicode="r" horiz-adv-x="419" 
d="M55 467l107 0.000976562l-2 -62h4c12 22.667 28.5 39.667 49.5 51s44.5 17 70.5 17c52 0 86.5 -14 103.5 -42s25.5 -65.333 25.5 -112v-31h-103v21c0 23.333 -2.83301 42.166 -8.5 56.499s-23.5 21.5 -53.5 21.5c-28.667 0 -49.5 -8.5 -62.5 -25.5
s-19.5 -38.833 -19.5 -65.5v-4.5c0 -1.66699 0.333008 -3.16699 1 -4.5v-5.5v-4.5v-277h-112v467v0z" />
    <glyph glyph-name="s" unicode="s" horiz-adv-x="495" 
d="M444 340l-107.002 0.00390625c0 21.333 -6.5 36.166 -19.5 44.499s-29.5 12.5 -49.5 12.5h-12h-12c-4.66699 -0.666992 -9 -1 -13 -1h-12c-18.667 0 -35.667 -2.5 -51 -7.5s-23 -19.833 -23 -44.5s4.83301 -40.5 14.5 -47.5s25.834 -11.167 48.501 -12.5
c7.33301 -0.666992 14.833 -1 22.5 -1h23.5c3.33301 -0.666992 6.66602 -1 9.99902 -1h10c46.667 -1.33301 89.667 -8.83301 129 -22.5s59 -51.167 59 -112.5c0 -68.667 -19.833 -111.5 -59.5 -128.5s-89.167 -25.5 -148.5 -25.5h-24.5c-8.33301 0 -16.833 0.333008 -25.5 1
c-42.667 1.33301 -81.667 9.5 -117 24.5s-53 49.167 -53 102.5v26h113c0 -31.333 6.16699 -52 18.5 -62s33.166 -15 62.499 -15l34 1c28 -0.666992 50 2.16602 66 8.49902s24 25.166 24 56.499c0 24 -5.66699 39.167 -17 45.5s-27.666 9.83301 -48.999 10.5h-12h-11
c-4 0 -8 0.166992 -12 0.5s-8 0.5 -12 0.5c-53.333 0.666992 -100.333 7.5 -141 20.5s-61 54.5 -61 124.5c0 64 20.833 102.667 62.5 116s87.834 20 138.501 20h31c10.667 0 21.334 -0.333008 32.001 -1c36 -2.66699 69 -11.334 99 -26.001s45 -44 45 -88v-5.5v-4.5
c0 -1.33301 -0.166992 -2.83301 -0.5 -4.5s-0.5 -3.5 -0.5 -5.5v1z" />
    <glyph glyph-name="t" unicode="t" horiz-adv-x="378" 
d="M353 467l-0.000976562 -84.001h-178v-237c0 -21.333 2 -38 6 -50s18.333 -18 43 -18c25.333 0 40.833 7.5 46.5 22.5s8.5 33.167 8.5 54.5v23h93c0.666992 -4.66699 1 -9 1 -13v-12c0 -55.333 -10.667 -95.666 -32 -120.999s-61.666 -38 -120.999 -38
c-54 0 -93.5 8.66699 -118.5 26s-37.5 54 -37.5 110v253h-60v84h60v105h111v-105h178v0z" />
    <glyph glyph-name="u" unicode="u" horiz-adv-x="527" 
d="M472 466l0.000976562 -466h-106l2 76h-4c-14.667 -34 -34.334 -56.333 -59.001 -67s-54.667 -16 -90 -16c-54 0 -94 13 -120 39s-39 66 -39 120v314h112v-288c0 -34 4.5 -58.833 13.5 -74.5s32.167 -23.5 69.5 -23.5c47.333 0 77.5 10.5 90.5 31.5s19.5 52.5 19.5 94.5
v260h111v0z" />
    <glyph glyph-name="v" unicode="v" horiz-adv-x="437" 
d="M441 467l-135 -467h-169l-142 467h115l111 -390l103 390h117v0z" />
    <glyph glyph-name="w" unicode="w" horiz-adv-x="708" 
d="M706 467l-106 -467h-161l-85 375l-84 -375h-162l-106 467h110l79 -391h3l90 391h140l89 -391h4l80 391h109v0z" />
    <glyph glyph-name="x" unicode="x" horiz-adv-x="444" 
d="M433 467l-136 -222l151 -245h-132l-94 171l-93 -171h-134l154 245l-136 222h128l81 -150l81 150h130v0z" />
    <glyph glyph-name="y" unicode="y" horiz-adv-x="431" 
d="M436 467l-123.998 -496c-12.667 -52.667 -29.834 -95.667 -51.501 -129s-63.834 -50 -126.501 -50h-11.5h-11.5c-4 0.666992 -7.83301 1.16699 -11.5 1.5s-7.5 0.833008 -11.5 1.5v81c2 -0.666992 4 -1.16699 6 -1.5s4.33301 -0.5 7 -0.5c2 -0.666992 4 -1 6 -1h6
c27.333 0 47 10 59 30s20.667 42.333 26 67c0.666992 4.66699 1.5 9.66699 2.5 15s1.83301 10.333 2.5 15h-54l-154 467h116l119 -397l91 397h115v0z" />
    <glyph glyph-name="z" unicode="z" horiz-adv-x="422" 
d="M40 467h362v-93l-253 -291h253v-83h-382v96l249 289h-229v82v0z" />
    <glyph glyph-name="braceleft" unicode="{" horiz-adv-x="500" 
d="M232 244c24 -14.667 39.498 -31.832 46.498 -51.499s10.5 -42.5 10.5 -68.5v-121c0 -37.333 7.5 -61.166 22.5 -71.499s39.5 -15.5 73.5 -15.5v-104h-5.5c-1.66699 0 -3.16699 -0.333008 -4.5 -1h-5.5h-5.5c-58 0 -105 6.66699 -141 20s-54 55.666 -54 126.999v149
c0 21.333 -3.66699 40.333 -11 57s-22.666 28 -45.999 34v97c22 4.66699 37 14.834 45 30.501s12 34.167 12 55.5v159c0 32.667 7.83301 62.5 23.5 89.5s41.834 41.833 78.501 44.5c15.333 1.33301 30.833 2.16602 46.5 2.49902s31.167 0.5 46.5 0.5l21 1v-111
c-4.66699 -0.666992 -9.33398 -1 -14.001 -1s-9.66699 -0.333008 -15 -1c-7.33301 -0.666992 -14.666 -1.83398 -21.999 -3.50098s-14 -4.16699 -20 -7.5c-8.66699 -4.66699 -14.667 -11.5 -18 -20.5s-5.33301 -18.167 -6 -27.5c-0.666992 -4 -1 -8 -1 -12v-12v-120
c0 -27.333 -3.5 -50.5 -10.5 -69.5s-22.5 -35.5 -46.5 -49.5v1z" />
    <glyph glyph-name="bar" unicode="|" horiz-adv-x="500" 
d="M189 666h122v-833h-122v833v0z" />
    <glyph glyph-name="braceright" unicode="}" horiz-adv-x="500" 
d="M268 244c-24 14 -39.501 30.6611 -46.501 49.9941s-10.5 42.333 -10.5 69v122c0 36.667 -7.16699 60.167 -21.5 70.5s-39.166 15.5 -74.499 15.5v106h59c53.333 -0.666992 92.833 -10.667 118.5 -30s38.5 -58.666 38.5 -117.999v-147c0 -23.333 3.5 -43.166 10.5 -59.499
s22.5 -27.833 46.5 -34.5v-94c-22 -6.66699 -37 -17.667 -45 -33s-12 -33.666 -12 -54.999v-158c0 -34 -7.33301 -64.167 -22 -90.5s-41.334 -41.166 -80.001 -44.499c-15.333 -1.33301 -30.833 -2.16602 -46.5 -2.49902s-31.167 -0.5 -46.5 -0.5h-5.5h-4.5
c-2 0.666992 -3.83301 1 -5.5 1h-5.5v110c34.667 0 59.334 5.33301 74.001 16s22 33.334 22 68.001v122c0 26.667 3.5 49.167 10.5 67.5s22.5 34.5 46.5 48.5v1z" />
    <glyph glyph-name="asciitilde" unicode="~" horiz-adv-x="500" 
d="M367 626l54.998 -31c-10.667 -20.667 -24.334 -38.834 -41.001 -54.501s-37.334 -23.5 -62.001 -23.5c-13.333 0 -25.666 2.5 -36.999 7.5s-22.666 10.833 -33.999 17.5c-2 0.666992 -4 1.66699 -6 3s-4 2.33301 -6 3c-8.66699 4.66699 -17.5 8.83398 -26.5 12.501
s-18.5 5.5 -28.5 5.5c-10.667 0 -19.334 -3.5 -26.001 -10.5s-12.334 -14.5 -17.001 -22.5c-0.666992 -0.666992 -1.16699 -1.5 -1.5 -2.5s-0.833008 -1.83301 -1.5 -2.5l-57 32l0.5 0.5l1.5 1.5c10.667 17.333 23.334 33.5 38.001 48.5s33.334 23.167 56.001 24.5
c13.333 0 25.833 -2.66699 37.5 -8s23.167 -11 34.5 -17c10.667 -6 21.834 -11.667 33.501 -17s24.167 -8 37.5 -8c10.667 0 19.834 3.66699 27.501 11s14.167 15.333 19.5 24c0.666992 0.666992 1.16699 1.5 1.5 2.5s0.833008 1.83301 1.5 2.5v1z" />
    <glyph glyph-name="endash" unicode="&#xa1;" horiz-adv-x="224" 
d="M166 120l0.000976562 -117.002c0 -42 -6.66699 -71.833 -20 -89.5s-43 -26.5 -89 -26.5h-6c-2 0 -4 0.333008 -6 1v52c17.333 0.666992 30.666 3.83398 39.999 9.50098s14 17.834 14 36.501v3.5v3.5c-0.666992 1.33301 -1 2.5 -1 3.5v3.5h-44v120h112v0z" />
    <glyph glyph-name="cent" unicode="&#xa2;" horiz-adv-x="529" 
d="M233 458l114.002 -0.00292969c0 -42 -2.66699 -73 -8 -93s-21.666 -38 -48.999 -54c-5.33301 -3.33301 -11.333 -6.66602 -18 -9.99902s-14 -6.66602 -22 -9.99902l-23 -9.5l-20 -8.5c-17.333 -8 -30.333 -17.833 -39 -29.5s-13 -32.167 -13 -61.5
c0 -36 6.5 -60 19.5 -72s37.167 -18 72.5 -18c39.333 0 69.5 3.66699 90.5 11s31.5 33.333 31.5 78v6v7c0 2 -0.166992 4 -0.5 6s-0.5 4 -0.5 6l112 1c-0.666992 -8 -1.16699 -15.667 -1.5 -23s-0.5 -14.666 -0.5 -21.999c-0.666992 -2 -1 -3.83301 -1 -5.5v-4.5
c-0.666992 -20 -2.83398 -39.5 -6.50098 -58.5s-13.834 -35.833 -30.501 -50.5c-14 -12.667 -30.5 -22 -49.5 -28s-38.167 -10.333 -57.5 -13c-11.333 -1.33301 -22.333 -2 -33 -2h-31c-68.667 -0 -123.167 8.83301 -163.5 26.5s-60.5 66.167 -60.5 145.5v16v16
c0.666992 19.333 3.16699 38.166 7.5 56.499s13.166 34.833 26.499 49.5c8 9.33301 16.5 17 25.5 23s18.167 11 27.5 15c4.66699 2.66699 9.66699 4.83398 15 6.50098s10.333 3.5 15 5.5c19.333 7.33301 36 16.833 50 28.5s21 34.5 21 68.5v1zM236.002 548.997v122h111v-122
h-111v0z" />
    <glyph glyph-name="sterling" unicode="&#xa3;" horiz-adv-x="470" 
d="M308 483l117 -235l-127 -233l-72 46l101 187l-95 193l76 42v0zM126 486l117 -235l-127 -233l-71 45l101 188l-95 192l75 43v0z" />
    <glyph glyph-name="Idieresis" unicode="&#xa4;" horiz-adv-x="377" 
d="M166 667l0.000976562 -117c0 -42.667 -6.66699 -72.834 -20 -90.501s-43 -26.5 -89 -26.5h-6c-2 0 -4 0.333008 -6 1v53c17.333 0 30.666 2.83301 39.999 8.5s14 17.834 14 36.501v3.5v3.5c-0.666992 1.33301 -1 2.5 -1 3.5v3.5l-44 1v120h112v0zM336.001 667
l0.000976562 -117c0 -42.667 -6.66699 -72.834 -20 -90.501s-43 -26.5 -89 -26.5h-6c-2 0 -4 0.333008 -6 1v53c17.333 0 30.666 2.83301 39.999 8.5s14 17.834 14 36.501v3.5v3.5c-0.666992 1.33301 -1 2.5 -1 3.5v3.5l-44 1v120h112v0z" />
    <glyph glyph-name="ae" unicode="&#xa5;" horiz-adv-x="634" 
d="M161 122v-122h-111v122h111v0zM373 122v-122h-112v122h112v0zM584 122v-122h-111v122h111v0z" />
    <glyph glyph-name="brokenbar" unicode="&#xa6;" 
 />
    <glyph glyph-name="section" unicode="&#xa7;" horiz-adv-x="1149" 
d="M503 174c0 52.667 7.00098 92.501 21.001 119.501s50 40.5 108 40.5c53.333 0 92.666 -6.83301 117.999 -20.5s38 -49.834 38 -108.501v-71c0 -10.667 -0.166992 -21 -0.5 -31s-1.5 -19.667 -3.5 -29c-8 -34.667 -24.5 -56 -49.5 -64s-53.167 -12 -84.5 -12
c-48.667 0 -85.5 7.66699 -110.5 23s-37.5 51.333 -37.5 108v11.5c0 3.66699 0.333008 7.16699 1 10.5v11.5v10.5v1zM569.001 171.001l1 -54c0 -31.333 5.83301 -49.666 17.5 -54.999s29.834 -8 54.501 -8c29.333 0 50 3.16699 62 9.5s18 24.166 18 53.499v99
c0 30.667 -6 48.834 -18 54.501s-31.667 8.5 -59 8.5l-21 1c-0.666992 -0.666992 -1.66699 -1 -3 -1h-3c-7.33301 0 -14.166 -0.833008 -20.499 -2.5s-11.833 -5.16699 -16.5 -10.5c-2.66699 -3.33301 -4.83398 -7.33301 -6.50098 -12s-2.83398 -9.33398 -3.50098 -14.001
c0 -2 -0.166992 -4.16699 -0.5 -6.5s-0.5 -4.5 -0.5 -6.5c-0.666992 -9.33301 -1 -18.833 -1 -28.5v-28.5v1zM847.001 174.001c0 54.667 7.33105 94.999 21.998 120.999s50.334 39 107.001 39c54 0 93.5 -7.16699 118.5 -21.5s37.5 -50.166 37.5 -107.499v-71
c0 -10.667 -0.166992 -21 -0.5 -31s-1.5 -19.667 -3.5 -29c-8 -34.667 -24.333 -56 -49 -64s-53 -12 -85 -12h-19c-45.333 0 -78.166 9 -98.499 27s-30.5 52.667 -30.5 104v11.5c0 3.66699 0.333008 7.16699 1 10.5v11.5v10.5v1zM912.999 171l-0.00195312 -54.002
c0.666992 -31.333 6.83398 -49.666 18.501 -54.999s29.834 -8 54.501 -8l5 1c27.333 -0.666992 46.666 2 57.999 8s17 24 17 54v99c0 30.667 -6 48.834 -18 54.501s-31.667 8.5 -59 8.5l-21 1c-17.333 -0.666992 -30.666 -4.16699 -39.999 -10.5s-14 -20.5 -14 -42.5
c-0.666992 -9.33301 -1 -18.833 -1 -28.5v-28.5v1zM655.997 666.998l-423 -667h-69l422 667h70v0zM31.9971 507.998c0 52 6.99902 91.667 20.999 119s50 41 108 41l14 1c50.667 -0.666992 87 -8.5 109 -23.5s33 -52.5 33 -112.5v-62c0 -46 -7.16699 -80.833 -21.5 -104.5
s-48.5 -35.5 -102.5 -35.5c-51.333 0 -91.166 7.33301 -119.499 22s-42.5 51 -42.5 109v11.5c0 3.66699 0.333008 7.5 1 11.5v10.5v11.5v1zM97.9961 503.998l0.000976562 -53.999c0.666992 -31.333 6.66699 -49.666 18 -54.999s29.333 -8 54 -8
c28.667 0 49.167 3.16699 61.5 9.5s18.5 24.166 18.5 53.499v24.5c0 8.33301 0.333008 16.5 1 24.5v24.5v24.5c0 32 -6 50.667 -18 56s-31.667 8 -59 8l-21 1c-0.666992 -0.666992 -1.66699 -1 -3 -1h-3c-7.33301 0 -14.166 -0.833008 -20.499 -2.5
s-11.833 -5.16699 -16.5 -10.5c-2.66699 -3.33301 -4.83398 -7.33301 -6.50098 -12s-2.83398 -9.33398 -3.50098 -14.001c-0.666992 -2 -1.16699 -4.16699 -1.5 -6.5s-0.5 -4.5 -0.5 -6.5v-56v0z" />
    <glyph glyph-name="dieresis" unicode="&#xa8;" 
 />
    <glyph glyph-name="copyright" unicode="&#xa9;" horiz-adv-x="703" 
d="M53 108l96.002 98c-12.667 19.333 -22.667 40.5 -30 63.5s-11 46.5 -11 70.5c0 25.333 4.16699 49 12.5 71s18.833 43.333 31.5 64l-100 100l64 64l100 -100l16.5 8l16.5 8c16.667 8 33.5 14.167 50.5 18.5s35.5 6.5 55.5 6.5c24 0 46.5 -4.16699 67.5 -12.5
s41.833 -18.166 62.5 -29.499l100 100l63 -63l-98 -98c13.333 -21.333 24.166 -43.333 32.499 -66s12.5 -46.667 12.5 -72c0 -24.667 -4 -47.834 -12 -69.501s-18 -43.167 -30 -64.5l98 -96l-63 -64l-97 97c-20.667 -15.333 -42.834 -26.833 -66.501 -34.5
s-48.5 -11.5 -74.5 -11.5c-24 0 -47.667 4.5 -71 13.5s-45.333 19.5 -66 31.5l-97 -96l-63 63v0zM352.002 479c-38 -0.666992 -70.499 -14.667 -97.499 -42s-40.5 -59.666 -40.5 -96.999s13.667 -69.666 41 -96.999s59.666 -41 96.999 -41s69.5 13.667 96.5 41
s40.5 59.666 40.5 96.999s-13.5 69.666 -40.5 96.999s-59.167 41 -96.5 41v1z" />
    <glyph glyph-name="ellipsis" unicode="&#xaa;" horiz-adv-x="515" 
d="M515 480l0.00195312 -71.998l-45 -38c3.33301 -10.667 5.66602 -21.167 6.99902 -31.5s2 -20.833 2 -31.5c0.666992 -5.33301 1 -10.5 1 -15.5v-15.5v-48c0 -16 -0.333008 -31.667 -1 -47c-3.33301 -80.667 -22.5 -132 -57.5 -154s-89.5 -33 -163.5 -33
c-9.33301 0 -18.833 0.166992 -28.5 0.5s-19.5 0.833008 -29.5 1.5c-22.667 2 -44.834 6.33301 -66.501 13s-39.834 18.667 -54.501 36l-79 -63v70l52 43c-4 11.333 -6.83301 23.666 -8.5 36.999s-2.5 26.666 -2.5 39.999c-0.666992 6 -1 11.833 -1 17.5v17.5
c0 98.667 11.833 167.5 35.5 206.5s87.834 58.5 192.501 58.5h26c8.66699 0 17.667 -0.333008 27 -1c23.333 -2 45.833 -6.5 67.5 -13.5s40.167 -19.5 55.5 -37.5l71 60v0zM167.002 114.002c5.33301 -14 14 -23.166 26 -27.499s24.667 -7.16602 38 -8.49902h9.5h9.5l10 1
c53.333 -0.666992 84.5 11.166 93.5 35.499s13.5 62.166 13.5 113.499v62l-200 -176v0zM356.002 351.003c-4.66699 12.667 -12.999 21.499 -24.999 26.499s-24.667 7.83301 -38 8.5c-4 0.666992 -8 1 -12 1h-12l-10 1c-26.667 -0.666992 -49.334 -4.33398 -68.001 -11.001
s-30 -25.667 -34 -57c-1.33301 -9.33301 -2.33301 -18.666 -3 -27.999s-1 -18.666 -1 -27.999c-0.666992 -10 -1 -19.667 -1 -29v-28v-16.5c0 -5.66699 0.333008 -11.167 1 -16.5l203 177v0z" />
    <glyph glyph-name="ydieresis" unicode="&#xab;" horiz-adv-x="539" 
d="M177 0h-112.004v466c0 80.667 13.5 134.834 40.5 162.501s80.5 41.5 160.5 41.5c52.667 0 100.334 -7.33301 143.001 -22s64 -54.667 64 -120c0 -16.667 -3.16699 -32.834 -9.5 -48.501s-16.166 -28.834 -29.499 -39.501c-7.33301 -6 -15.166 -10.5 -23.499 -13.5
s-16.5 -5.5 -24.5 -7.5c-3.33301 -0.666992 -6.66602 -1.5 -9.99902 -2.5s-6.66602 -2.16699 -9.99902 -3.5c58 -8.66699 95.5 -30.334 112.5 -65.001s25.5 -78.667 25.5 -132c0 -61.333 -10.833 -114 -32.5 -158s-69.167 -66 -142.5 -66c-17.333 0 -34.333 1.66699 -51 5
s-33 8 -49 14v92c2 -2 4 -3.5 6 -4.5s4 -2.16699 6 -3.5c10.667 -5.33301 21.334 -9.66602 32.001 -12.999s22 -5 34 -5c32 0 53.333 11.167 64 33.5s16.667 46.833 18 73.5c0.666992 6 1 11.833 1 17.5v16.5v8v8c-0.666992 36 -6.16699 69 -16.5 99s-38.833 45 -85.5 45
h-19.5c-6.33301 0 -12.833 -0.666992 -19.5 -2v71c2 -0.666992 4 -1 6 -1s3.66699 -0.333008 5 -1c29.333 0 54.166 4.83301 74.499 14.5s30.5 31.167 30.5 64.5c0 29.333 -10 48.333 -30 57s-42.667 13 -68 13c-44.667 0 -70.834 -9.16699 -78.501 -27.5
s-11.5 -46.166 -11.5 -83.499v-483v0z" />
    <glyph glyph-name="emdash" unicode="&#xac;" 
 />
    <glyph glyph-name="uni00AD" unicode="&#xad;" 
 />
    <glyph glyph-name="registered" unicode="&#xae;" horiz-adv-x="208" 
d="M149 400h-91l-22 267h135l-22 -267v0z" />
    <glyph glyph-name="glyph263" unicode="&#xaf;" 
 />
    <glyph glyph-name="glyph264" unicode="&#xb0;" 
 />
    <glyph glyph-name="mu" unicode="&#xb1;" 
 />
    <glyph glyph-name="uni00B2" unicode="&#xb2;" 
 />
    <glyph glyph-name="uni00B3" unicode="&#xb3;" 
 />
    <glyph glyph-name="acute" unicode="&#xb4;" 
 />
    <glyph glyph-name="oslash" unicode="&#xb5;" 
 />
    <glyph glyph-name="paragraph" unicode="&#xb6;" 
 />
    <glyph glyph-name="glyph265" unicode="&#xb7;" 
 />
    <glyph glyph-name="bullet" unicode="&#xb8;" 
 />
    <glyph glyph-name="uni00B9" unicode="&#xb9;" 
 />
    <glyph glyph-name="Agrave" unicode="&#xba;" horiz-adv-x="827" 
d="M792 218l-314 0.00195312c0 -50 4.66699 -86.167 14 -108.5s41.666 -33.5 96.999 -33.5c32.667 0 55.834 4 69.501 12s22.167 28 25.5 60l108 1c0 -68.667 -16.667 -111.5 -50 -128.5s-81.666 -25.5 -144.999 -25.5h-19.5c-6.33301 0 -12.833 0.333008 -19.5 1
c-26.667 1.33301 -52.334 6 -77.001 14s-44 25 -58 51c-18 -30.667 -39.167 -49.5 -63.5 -56.5s-53.166 -10.5 -86.499 -10.5c-81.333 0 -140 13.333 -176 40s-54 83.667 -54 171c0 95.333 11.667 163.666 35 204.999s86.666 62 189.999 62h2.5h2.5
c30.667 0 59.667 -3 87 -9s48.333 -24.667 63 -56c17.333 31.333 40.5 50.166 69.5 56.499s59.5 9.5 91.5 9.5c81.333 0 136.333 -16 165 -48s43 -87.667 43 -167v-40v0zM157 242.002l0.000976562 -37c0 -42.667 4.83301 -74.667 14.5 -96s38.5 -32 86.5 -32
c47.333 0 77.666 8.83301 90.999 26.5s20 48.5 20 92.5v68c0 37.333 -4 66.833 -12 88.5s-34.333 32.5 -79 32.5l-29 1c-4 -0.666992 -8 -1 -12 -1s-8 -0.333008 -12 -1c-10 -0.666992 -19.5 -2.5 -28.5 -5.5s-16.5 -8.16699 -22.5 -15.5
c-4 -4.66699 -6.83301 -10.167 -8.5 -16.5s-3.16699 -12.833 -4.5 -19.5c0 -2 -0.166992 -4.16699 -0.5 -6.5s-0.5 -4.5 -0.5 -6.5l-2 -36c-0.666992 -12 -1 -24.333 -1 -37v1zM685.001 288.002c-2 41.333 -8.49902 69.001 -19.499 83.001s-39.167 21 -84.5 21
c-42.667 0 -70.334 -7.33301 -83.001 -22s-19.667 -42.334 -21 -83.001l208 1v0z" />
    <glyph glyph-name="Ydieresis" unicode="&#xbb;" 
 />
    <glyph glyph-name="onequarter" unicode="&#xbc;" 
 />
    <glyph glyph-name="glyph243" unicode="&#xbd;" 
 />
    <glyph glyph-name="threequarters" unicode="&#xbe;" 
 />
    <glyph glyph-name="oe" unicode="&#xbf;" horiz-adv-x="377" 
d="M166 120l0.000976562 -117.002c0 -42 -6.66699 -71.833 -20 -89.5s-43 -26.5 -89 -26.5h-6c-2 0 -4 0.333008 -6 1v52c17.333 0.666992 30.666 3.83398 39.999 9.50098s14 17.834 14 36.501v3.5v3.5c-0.666992 1.33301 -1 2.5 -1 3.5v3.5h-44v120h112v0zM336.001 119.998
l0.000976562 -117.002c0 -42 -6.66699 -71.833 -20 -89.5s-43 -26.5 -89 -26.5h-6c-2 0 -4 0.333008 -6 1v52c17.333 0.666992 30.666 3.83398 39.999 9.50098s14 17.834 14 36.501v3.5v3.5c-0.666992 1.33301 -1 2.5 -1 3.5v3.5h-44v120h112v0z" />
    <glyph glyph-name="currency" unicode="&#xc0;" horiz-adv-x="275" 
d="M80 0l9 444h108l8 -444h-125v0zM86 543v122h112v-122h-112v0z" />
    <glyph glyph-name="breve" unicode="&#xc1;" 
 />
    <glyph glyph-name="tilde" unicode="&#xc2;" horiz-adv-x="627" 
d="M347 462l0.000976562 -304.002c33.333 4 53.833 13.5 61.5 28.5s11.5 37.5 11.5 67.5l106 1c0 -67.333 -12 -114.666 -36 -141.999s-71.667 -42 -143 -44v-72h-62v73c-84.667 2 -136.334 24.667 -155.001 68s-28 103.333 -28 180c0 69.333 11.333 124.5 34 165.5
s72.334 62.5 149.001 64.5v62h62v-61c61.333 -0.666992 105.666 -13.5 132.999 -38.5s41 -68.833 41 -131.5l-106 1c0 26.667 -4.33301 45.834 -13 57.501s-27 19.5 -55 23.5v1zM285.001 462.998c-30.667 -7.33301 -49.668 -20.6699 -57.001 -40.0029
s-11 -43.666 -11 -72.999v-54v-22c0 -7.33301 0.333008 -14.666 1 -21.999c1.33301 -15.333 3.33301 -30 6 -44s7.33398 -24.667 14.001 -32c4 -4.66699 8.83301 -8.16699 14.5 -10.5s11.5 -4.16602 17.5 -5.49902c2.66699 -0.666992 5.16699 -1.16699 7.5 -1.5
s4.83301 -0.5 7.5 -0.5v305v0z" />
    <glyph glyph-name="guilsinglleft" unicode="&#xc3;" horiz-adv-x="941" 
d="M580 558v-173h306v-93h-306v-188h326v-104h-451v128h-268l-62 -128h-140l314 667h607v-109h-326v0zM455 223v335h-69l-159 -335h228v0z" />
    <glyph glyph-name="Adieresis" unicode="&#xc4;" 
 />
    <glyph glyph-name="Aring" unicode="&#xc5;" horiz-adv-x="687" 
d="M0 303h687v-114h-687v114v0z" />
    <glyph glyph-name="Oslash" unicode="&#xc6;" 
 />
    <glyph glyph-name="Ccedilla" unicode="&#xc7;" horiz-adv-x="627" 
d="M369 404v-122h-111v122h111v0z" />
    <glyph glyph-name="ring" unicode="&#xc8;" horiz-adv-x="627" 
d="M430 347l-0.00195312 -93.001h-179v-15.5v-14.5c0 -4.66699 0.166992 -9.5 0.5 -14.5s0.5 -9.83301 0.5 -14.5c0 -20 -2.5 -36.333 -7.5 -49s-14.167 -24.334 -27.5 -35.001c-2 -2 -4.16699 -3.83301 -6.5 -5.5l-7.5 -5.5l399 2v-102h-539v100
c26 2.66699 42.833 13.334 50.5 32.001s11.834 39.334 12.501 62.001v8v8v44h-82v93h82v97c0 92 16.833 153 50.5 183s94.834 45 183.501 45s150.167 -12.833 184.5 -38.5s51.5 -85.167 51.5 -178.5l-123 1c0 38.667 -6 66.5 -18 83.5s-39.333 25.5 -82 25.5l-13 1
c-44.667 -0.666992 -74 -8 -88 -22s-21 -43.333 -21 -88v-109h179v0z" />
    <glyph glyph-name="Eacute" unicode="&#xc9;" 
 />
    <glyph glyph-name="macron" unicode="&#xca;" horiz-adv-x="501" 
d="M501 667l-422 -667h-79l422 667h79v0z" />
    <glyph glyph-name="dotaccent" unicode="&#xcb;" horiz-adv-x="627" 
d="M496 477h84v-94h-138l-47 -80h185v-93h-213v-210h-115v210h-205v93h178l-45 80h-133v94h80l-108 190h139l153 -285l155 285h141l-111 -190v0z" />
    <glyph glyph-name="caron" unicode="&#xcc;" 
 />
    <glyph glyph-name="cedilla" unicode="&#xcd;" 
 />
    <glyph glyph-name="hungarumlaut" unicode="&#xce;" horiz-adv-x="627" 
d="M395 417l-71.002 -402c-9.33301 -63.333 -27.666 -105.166 -54.999 -125.499s-72.666 -30.5 -135.999 -30.5h-16h-16c-5.33301 0 -10.666 0.166992 -15.999 0.5s-10.666 0.5 -15.999 0.5l15 85c2 0 3.66699 -0.166992 5 -0.5s3 -0.5 5 -0.5
c3.33301 -0.666992 6.66602 -1.16699 9.99902 -1.5s6.66602 -0.5 9.99902 -0.5c31.333 0 53.333 4.5 66 13.5s21.667 28.5 27 58.5l71 403h-80l15 83h79c2 9.33301 3.66699 18.5 5 27.5s3 17.833 5 26.5c10.667 61.333 27.167 107.666 49.5 138.999s73.166 47 152.499 47h27
c8.66699 0 17.334 -0.333008 26.001 -1l-15 -85c-2 -0.666992 -3.83301 -0.833984 -5.5 -0.500977s-3.5 0.5 -5.5 0.5c-3.33301 0.666992 -6.83301 1.16699 -10.5 1.5s-7.5 0.5 -11.5 0.5c-37.333 0 -61 -10.667 -71 -32s-17 -47.666 -21 -78.999
c-1.33301 -7.33301 -2.5 -14.833 -3.5 -22.5s-2.16699 -15.5 -3.5 -23.5l105 1l-15 -83h-105v0z" />
    <glyph glyph-name="ogonek" unicode="&#xcf;" horiz-adv-x="627" 
d="M554 476l-118 0.000976562c0 40.667 -7.16699 66.5 -21.5 77.5s-42.166 16.5 -83.499 16.5l-47 1c-40 -0.666992 -65.167 -6.16699 -75.5 -16.5s-15.5 -27.5 -15.5 -51.5c0 -25.333 4.16699 -42.166 12.5 -50.499s22.166 -15.166 41.499 -20.499
c3.33301 -0.666992 6.83301 -1.5 10.5 -2.5s7.5 -1.83301 11.5 -2.5l169 -39c4 -1.33301 7.83301 -2.5 11.5 -3.5s7.16699 -1.83301 10.5 -2.5c43.333 -11.333 73.5 -25.833 90.5 -43.5s25.5 -53.5 25.5 -107.5v-6.5v-6.5c-0.666992 -23.333 -5 -45.333 -13 -66
s-23.333 -36 -46 -46c29.333 -14.667 46.833 -32.167 52.5 -52.5s8.5 -45.5 8.5 -75.5c0 -89.333 -25.5 -142.333 -76.5 -159s-113.5 -25 -187.5 -25c-84.667 0 -148.167 10 -190.5 30s-63.5 78.667 -63.5 176h116c0 -30.667 4.5 -54.167 13.5 -70.5
s29.833 -26.166 62.5 -29.499c7.33301 -0.666992 14.5 -1.16699 21.5 -1.5s14.167 -0.833008 21.5 -1.5h21.5h21.5c30.667 0 57.667 3.5 81 10.5s35 29.167 35 66.5c0 27.333 -5.16699 45.5 -15.5 54.5s-26.833 16.167 -49.5 21.5c-2 0.666992 -4.16699 1.16699 -6.5 1.5
s-4.5 0.833008 -6.5 1.5l-219 49c-47.333 9.33301 -77.166 25.166 -89.499 47.499s-18.5 56.166 -18.5 101.499c0 29.333 4 55 12 77s27.333 37.333 58 46c-24 16.667 -38.167 36 -42.5 58s-6.5 46.333 -6.5 73c0 79.333 24.167 126.666 72.5 141.999s104.166 23 167.499 23
l14 1c60 -0.666992 113.333 -7.83398 160 -21.501s70 -59.167 70 -136.5v-37v0zM226 187.001l155.003 -36.001c3.33301 -1.33301 6.66602 -2.33301 9.99902 -3l10 -2c3.33301 -0.666992 6.66602 -1.16699 9.99902 -1.5s6.66602 -0.5 9.99902 -0.5
c19.333 0 32.666 7.16699 39.999 21.5s11.333 30.833 12 49.5c0 28 -5.16699 47 -15.5 57s-28.166 18 -53.499 24c-1.33301 0 -2.83301 0.166992 -4.5 0.5s-3.16699 0.833008 -4.5 1.5l-136 35c-6.66699 1.33301 -13.667 2.83301 -21 4.5s-14.666 2.5 -21.999 2.5
c-20.667 0 -34.834 -7.66699 -42.501 -23s-11.5 -32.666 -11.5 -51.999c0 -27.333 4 -45.833 12 -55.5s25.333 -17.5 52 -23.5v1z" />
    <glyph glyph-name="glyph232" unicode="&#xd0;" 
 />
    <glyph glyph-name="Ntilde" unicode="&#xd1;" horiz-adv-x="627" 
d="M616 -200h-94.001v766h-80v-766h-94v416h-93h-21h-22h-16.5h-16.5c-23.333 1.33301 -46.166 4.66602 -68.499 9.99902s-41.833 16.333 -58.5 33c-18.667 18 -31.5 38.833 -38.5 62.5s-11.167 47.834 -12.5 72.501c-0.666992 7.33301 -1 14.833 -1 22.5v22.5
c0 83.333 15.667 142 47 176s88.333 51 171 51l44 1h354v-867v0zM347.999 318l0.000976562 244.999h-114c-50.667 -0.666992 -82.834 -8.66699 -96.501 -24s-20.5 -49.666 -20.5 -102.999c0 -54.667 9.16699 -88.167 27.5 -100.5s52.5 -18.5 102.5 -18.5l101 1v0z" />
    <glyph glyph-name="scaron" unicode="&#xd2;" horiz-adv-x="503" 
d="M189 361v-249h309v-112h-439v255l-71 -67v102l71 66v311h130v-207l141 132v-99l-141 -132v0z" />
    <glyph glyph-name="Lslash" unicode="&#xd3;" 
 />
    <glyph glyph-name="lslash" unicode="&#xd4;" 
 />
    <glyph glyph-name="guilsinglright" unicode="&#xd5;" horiz-adv-x="670" 
d="M670 688l0.00390625 -101.001l-53 -46c5.33301 -16 9.16602 -33.333 11.499 -52s3.83301 -37.667 4.5 -57c0.666992 -5.33301 1 -10.833 1 -16.5v-16.5v-20v-19c-0.666992 -6.66699 -1 -13 -1 -19v-17c0 -114.667 -13.833 -198.167 -41.5 -250.5
s-108.5 -78.5 -242.5 -78.5h-42h-26c-8.66699 0 -17.334 0.333008 -26.001 1c-30.667 1.33301 -60.334 6 -89.001 14s-53.334 23.667 -74.001 47l-92 -80v97l55 49c-4.66699 10 -7.66699 20.167 -9 30.5l-4 31.5l-2 39.5c-0.666992 13 -1 26.167 -1 39.5
c-0.666992 13.333 -1 26.5 -1 39.5v39.5c0 123.333 16.833 208.5 50.5 255.5s114.834 70.5 243.501 70.5l45 1c37.333 -0.666992 73.166 -4.16699 107.499 -10.5s65.833 -24.166 94.5 -53.499l91 82v0zM188.004 142.999c9.33301 -15.333 21 -25.333 35 -30
s29.333 -7.66699 46 -9c4 0 7.83301 -0.166992 11.5 -0.5s7.5 -0.5 11.5 -0.5c8 -0.666992 15.833 -1.16699 23.5 -1.5s15.167 -0.5 22.5 -0.5c80 0 127.167 13.667 141.5 41s21.833 70.333 22.5 129c0 6 0.166992 12 0.5 18s0.5 12.333 0.5 19v55v17v19
c0 6 -0.166992 12 -0.5 18s-0.833008 12 -1.5 18l-313 -292v0zM484.004 521.999c-12 16.667 -27.333 27.333 -46 32s-38 7 -58 7h-3.5h-3.5h-19.5c-6.33301 0 -12.5 0.333008 -18.5 1h-19.5h-19.5c-48.667 0 -82.167 -11.333 -100.5 -34s-27.5 -58.667 -27.5 -108v-35.5
v-35.5c0 -12 -0.166992 -23.833 -0.5 -35.5s-0.5 -23.5 -0.5 -35.5c0 -4.66699 0.166992 -9.16699 0.5 -13.5s0.5 -8.5 0.5 -12.5v-13.5v-13.5l316 297v0z" />
    <glyph glyph-name="Odieresis" unicode="&#xd6;" 
 />
    <glyph glyph-name="multiply" unicode="&#xd7;" 
 />
    <glyph glyph-name="plusminus" unicode="&#xd8;" 
 />
    <glyph glyph-name="Thorn" unicode="&#xd9;" horiz-adv-x="289" 
d="M127 486l117 -235l-127 -233l-71 46l101 187l-95 192l75 43v0z" />
    <glyph glyph-name="Eth" unicode="&#xda;" 
 />
    <glyph glyph-name="eth" unicode="&#xdb;" horiz-adv-x="519" 
d="M304 467l-0.00195312 -82.998h-114v-384h-112v384h-66v83h66v51c0 6 0.166992 12.667 0.5 20s0.833008 14.666 1.5 21.999c0.666992 11.333 2.66699 22.5 6 33.5s8 20.5 14 28.5c12 16 27.833 27.5 47.5 34.5s39.834 11.5 60.501 13.5
c12.667 1.33301 25.167 2.16602 37.5 2.49902s23.833 0.5 34.5 0.5h5.5h5.5c1.33301 -0.666992 2.83301 -1 4.5 -1h5.5v-84c-5.33301 0.666992 -10.833 1.16699 -16.5 1.5s-11.167 0.5 -16.5 0.5h-8.5c-3 0 -6.16699 -0.333008 -9.5 -1
c-25.333 -2 -41.666 -8.5 -48.999 -19.5s-11 -28.5 -11 -52.5v-50h114v0zM469.998 467.002v-467h-112v467h112v0zM469.998 667.002v-97h-112v97h112v0z" />
    <glyph glyph-name="Udieresis" unicode="&#xdc;" 
 />
    <glyph glyph-name="Yacute" unicode="&#xdd;" 
 />
    <glyph glyph-name="glyph236" unicode="&#xde;" 
 />
    <glyph glyph-name="germandbls" unicode="&#xdf;" 
 />
    <glyph glyph-name="agrave" unicode="&#xe0;" horiz-adv-x="500" 
d="M203 618v-79h-88v79h88v0zM385 618v-79h-88v79h88v0z" />
    <glyph glyph-name="aacute" unicode="&#xe1;" horiz-adv-x="500" 
d="M367 626l54.998 -31c-10.667 -20.667 -24.334 -38.834 -41.001 -54.501s-37.334 -23.5 -62.001 -23.5c-13.333 0 -25.666 2.5 -36.999 7.5s-22.666 10.833 -33.999 17.5c-2 0.666992 -4 1.66699 -6 3s-4 2.33301 -6 3c-8.66699 4.66699 -17.5 8.83398 -26.5 12.501
s-18.5 5.5 -28.5 5.5c-10.667 0 -19.334 -3.5 -26.001 -10.5s-12.334 -14.5 -17.001 -22.5c-0.666992 -0.666992 -1.16699 -1.5 -1.5 -2.5s-0.833008 -1.83301 -1.5 -2.5l-57 32l0.5 0.5l1.5 1.5c10.667 17.333 23.334 33.5 38.001 48.5s33.334 23.167 56.001 24.5
c13.333 0 25.833 -2.66699 37.5 -8s23.167 -11 34.5 -17c10.667 -6 21.834 -11.667 33.501 -17s24.167 -8 37.5 -8c10.667 0 19.834 3.66699 27.501 11s14.167 15.333 19.5 24c0.666992 0.666992 1.16699 1.5 1.5 2.5s0.833008 1.83301 1.5 2.5v1z" />
    <glyph glyph-name="acircumflex" unicode="&#xe2;" 
 />
    <glyph glyph-name="atilde" unicode="&#xe3;" 
 />
    <glyph glyph-name="adieresis" unicode="&#xe4;" 
 />
    <glyph glyph-name="aring" unicode="&#xe5;" 
 />
    <glyph glyph-name="Otilde" unicode="&#xe6;" 
 />
    <glyph glyph-name="ccedilla" unicode="&#xe7;" 
 />
    <glyph glyph-name="egrave" unicode="&#xe8;" 
 />
    <glyph glyph-name="eacute" unicode="&#xe9;" horiz-adv-x="500" 
d="M127 612h246v-67h-246v67v0z" />
    <glyph glyph-name="ecircumflex" unicode="&#xea;" horiz-adv-x="500" 
d="M191 660l157 -103l-25 -46l-172 76l40 73v0z" />
    <glyph glyph-name="edieresis" unicode="&#xeb;" horiz-adv-x="500" 
d="M190 676l63 -56l-136 -130l-39 35l112 151v0zM360 676l62 -56l-136 -130l-38 35l112 151v0z" />
    <glyph glyph-name="igrave" unicode="&#xec;" 
 />
    <glyph glyph-name="iacute" unicode="&#xed;" 
 />
    <glyph glyph-name="icircumflex" unicode="&#xee;" 
 />
    <glyph glyph-name="idieresis" unicode="&#xef;" 
 />
    <glyph glyph-name="glyph233" unicode="&#xf0;" 
 />
    <glyph glyph-name="ntilde" unicode="&#xf1;" horiz-adv-x="600" 
d="M198 286c0 26 9.33301 48.334 28 67.001s41.334 28 68.001 28c27.333 0 50.5 -9.33301 69.5 -28s28.5 -41.334 28.5 -68.001s-9.5 -49.334 -28.5 -68.001s-42.167 -28 -69.5 -28c-26.667 0 -49.334 9.33301 -68.001 28s-28 41.334 -28 68.001v1z" />
    <glyph glyph-name="ograve" unicode="&#xf2;" horiz-adv-x="500" 
d="M251 502c-22.667 -0.666992 -42 7 -58 23s-24 35.333 -24 58c0 22 8 41 24 57s35.333 24 58 24c22 0 41 -8 57 -24s24 -35 24 -57c0 -22.667 -8 -42 -24 -58s-35 -24 -57 -24v1zM251 542c11.333 -0.666992 21 3.16699 29 11.5s12 18.166 12 29.499s-4 21 -12 29
s-17.667 12 -29 12s-21.166 -4 -29.499 -12s-12.5 -17.667 -12.5 -29s4.16699 -21.166 12.5 -29.499s18.166 -12.5 29.499 -12.5v1z" />
    <glyph glyph-name="oacute" unicode="&#xf3;" horiz-adv-x="500" 
d="M99 648l58.9971 -0.00195312c4.66699 -23.333 15.334 -42.166 32.001 -56.499s36.667 -21.5 60 -21.5s43.333 7.16699 60 21.5s27.334 32.833 32.001 55.5l59 1c-6.66699 -39.333 -23.167 -73.166 -49.5 -101.499s-60.166 -42.5 -101.499 -42.5s-75.5 14.167 -102.5 42.5
s-43.167 61.833 -48.5 100.5v1z" />
    <glyph glyph-name="ocircumflex" unicode="&#xf4;" horiz-adv-x="500" 
d="M308 660l40 -73l-173 -76l-24 46l157 103v0z" />
    <glyph glyph-name="otilde" unicode="&#xf5;" horiz-adv-x="982" 
d="M628 557l0.00195312 -170.999h308v-93h-308v-187h328v-105h-448l1 70c-26 -36 -54 -57.667 -84 -65s-66.333 -11 -109 -11c-102.667 0 -174.167 18 -214.5 54s-60.5 106.667 -60.5 212v34v34c-0.666992 11.333 -1 22.666 -1 33.999v34c0 100 18.667 170.333 56 211
s106.333 61 207 61c41.333 0 80.166 -3.33301 116.499 -10s66.166 -29.667 89.499 -69l-1 75h445v-108h-325v0zM169.002 246.001c0 -69.333 12 -111.002 36 -125.002s67 -21 129 -21c62.667 0 106.167 7.16699 130.5 21.5s36.833 55.166 37.5 122.499
c0 14.667 0.166992 29.334 0.5 44.001s0.5 29.334 0.5 44.001s0.166992 29.334 0.5 44.001s0.5 29.334 0.5 44.001c-0.666992 70 -14.5 110.833 -41.5 122.5s-71.833 17.5 -134.5 17.5l-37 1c-50 -0.666992 -82.667 -11.834 -98 -33.501s-23 -58.167 -23 -109.5
c0 -14.667 -0.166992 -29.167 -0.5 -43.5s-0.5 -28.5 -0.5 -42.5v-43.5v-43.5v1z" />
    <glyph glyph-name="odieresis" unicode="&#xf6;" horiz-adv-x="500" 
d="M246 0l77.002 -0.00195312l-16.5 -9.5l-19.5 -11.5c-12.667 -8 -24.167 -17.333 -34.5 -28s-15.5 -22 -15.5 -34c0 -10.667 4 -18.5 12 -23.5s16.667 -8.16699 26 -9.5h3.5h3.5c7.33301 0 14.166 1 20.499 3s12.833 4.66699 19.5 8v-58
c-8.66699 -3.33301 -17.167 -5.83301 -25.5 -7.5s-16.833 -2.5 -25.5 -2.5h-1.5h-1.5c-22.667 0.666992 -43.334 7.83398 -62.001 21.501s-28 32.834 -28 57.501c0 22 6.83301 40.667 20.5 56s29.5 28 47.5 38v0z" />
    <glyph glyph-name="Aacute" unicode="&#xf7;" 
 />
    <glyph glyph-name="OE" unicode="&#xf8;" 
 />
    <glyph glyph-name="ugrave" unicode="&#xf9;" horiz-adv-x="500" 
d="M292 -10l37 -69l-134 -47l-24 47l121 69v0z" />
    <glyph glyph-name="uacute" unicode="&#xfa;" horiz-adv-x="500" 
d="M294 618v-79h-88v79h88v0z" />
    <glyph glyph-name="ucircumflex" unicode="&#xfb;" horiz-adv-x="500" 
d="M250 659l158 -96l-22 -44l-136 56l-137 -56l-21 44l158 96v0z" />
    <glyph glyph-name="udieresis" unicode="&#xfc;" horiz-adv-x="500" 
d="M250 519l-158 96l21 44l137 -55l136 55l22 -44l-158 -96v0z" />
    <glyph glyph-name="yacute" unicode="&#xfd;" 
 />
    <glyph glyph-name="glyph237" unicode="&#xfe;" 
 />
    <glyph glyph-name="Egrave" unicode="&#xff;" 
 />
    <glyph glyph-name="Abreve" unicode="&#x102;" 
 />
    <glyph glyph-name="abreve" unicode="&#x103;" 
 />
    <glyph glyph-name="Aogonek" unicode="&#x104;" 
 />
    <glyph glyph-name="aogonek" unicode="&#x105;" 
 />
    <glyph glyph-name="Cacute" unicode="&#x106;" 
 />
    <glyph glyph-name="cacute" unicode="&#x107;" 
 />
    <glyph glyph-name="Ccaron" unicode="&#x10c;" 
 />
    <glyph glyph-name="ccaron" unicode="&#x10d;" 
 />
    <glyph glyph-name="Dcaron" unicode="&#x10e;" 
 />
    <glyph glyph-name="dcaron" unicode="&#x10f;" 
 />
    <glyph glyph-name="Dcroat" unicode="&#x110;" 
 />
    <glyph glyph-name="dcroat" unicode="&#x111;" 
 />
    <glyph glyph-name="Eogonek" unicode="&#x118;" 
 />
    <glyph glyph-name="eogonek" unicode="&#x119;" 
 />
    <glyph glyph-name="Ecaron" unicode="&#x11a;" 
 />
    <glyph glyph-name="ecaron" unicode="&#x11b;" 
 />
    <glyph glyph-name="Gbreve" unicode="&#x11e;" 
 />
    <glyph glyph-name="gbreve" unicode="&#x11f;" 
 />
    <glyph glyph-name="Idotaccent" unicode="&#x130;" 
 />
    <glyph glyph-name="thorn" unicode="&#x131;" 
 />
    <glyph glyph-name="Lacute" unicode="&#x139;" 
 />
    <glyph glyph-name="lacute" unicode="&#x13a;" 
 />
    <glyph glyph-name="Lcaron" unicode="&#x13d;" 
 />
    <glyph glyph-name="lcaron" unicode="&#x13e;" 
 />
    <glyph glyph-name="Ldot" unicode="&#x13f;" 
 />
    <glyph glyph-name="ldot" unicode="&#x140;" 
 />
    <glyph glyph-name="glyph225" unicode="&#x141;" 
 />
    <glyph glyph-name="glyph226" unicode="&#x142;" 
 />
    <glyph glyph-name="Nacute" unicode="&#x143;" 
 />
    <glyph glyph-name="nacute" unicode="&#x144;" 
 />
    <glyph glyph-name="Ncaron" unicode="&#x147;" 
 />
    <glyph glyph-name="ncaron" unicode="&#x148;" 
 />
    <glyph glyph-name="Ohungarumlaut" unicode="&#x150;" 
 />
    <glyph glyph-name="ohungarumlaut" unicode="&#x151;" 
 />
    <glyph glyph-name="fi" unicode="&#x152;" 
 />
    <glyph glyph-name="fl" unicode="&#x153;" horiz-adv-x="818" 
d="M778 218l-313.005 -0.000976562v-22c1.33301 -48 7.5 -80 18.5 -96s41.167 -24 90.5 -24c30.667 0 54.334 3.83301 71.001 11.5s25 28.167 25 61.5l109 1c0 -67.333 -17.667 -110 -53 -128s-83.666 -27 -144.999 -27h-11.5h-11.5
c-32 0.666992 -62.5 4.83398 -91.5 12.501s-51.167 27.834 -66.5 60.501c-16.667 -34.667 -40.167 -55.667 -70.5 -63s-63.166 -11 -98.499 -11c-57.333 0 -103.666 8 -138.999 24s-53 56.667 -53 122c0 61.333 18.167 100.333 54.5 117s80.5 25 132.5 25h5.5h5.5
c22.667 0 44.5 -2.66699 65.5 -8s37.833 -19 50.5 -41l4 1v77c0 38.667 -7.66699 63 -23 73s-42 15 -80 15c-27.333 0 -48.166 -3.5 -62.499 -10.5s-21.833 -25.5 -22.5 -55.5l-113 1c2 64 19 103 51 117s75.667 21 131 21h26c8.66699 0 17.334 -0.333008 26.001 -1
c15.333 -0.666992 30.666 -2.5 45.999 -5.5s30 -7.83301 44 -14.5c8.66699 -4 15.667 -9.66699 21 -17s10 -15 14 -23c12 22.667 29.167 38.167 51.5 46.5s45.5 13.166 69.5 14.499c6.66699 0.666992 13.167 1 19.5 1h18.5c96 0 154 -21.667 174 -65s30 -107 30 -191v1z
M150.995 146.999c0 -36 9.16602 -57.499 27.499 -64.499s42.833 -10.5 73.5 -10.5c27.333 0 51.833 3.33301 73.5 10s32.5 26.667 32.5 60c0 27.333 -9 44.833 -27 52.5s-37.667 11.834 -59 12.501h-11.5h-11.5h-7.5h-6.5
c-21.333 -0.666992 -40.666 -4.33398 -57.999 -11.001s-26 -23.334 -26 -50.001v1zM671.994 289l0.00292969 12.999c0 4.66699 -0.333008 9.33398 -1 14.001c-0.666992 8.66699 -1.83398 17.167 -3.50098 25.5s-4.83398 15.833 -9.50098 22.5
c-6 9.33301 -14.167 16 -24.5 20s-21.5 6.33301 -33.5 7c-4.66699 0.666992 -9.66699 1 -15 1h-15c-46.667 0 -75.834 -8.33301 -87.501 -25s-17.5 -43 -17.5 -79l207 1v0z" />
    <glyph glyph-name="Racute" unicode="&#x154;" 
 />
    <glyph glyph-name="racute" unicode="&#x155;" 
 />
    <glyph glyph-name="Rcaron" unicode="&#x158;" 
 />
    <glyph glyph-name="rcaron" unicode="&#x159;" 
 />
    <glyph glyph-name="Sacute" unicode="&#x15a;" 
 />
    <glyph glyph-name="sacute" unicode="&#x15b;" 
 />
    <glyph glyph-name="Scedilla" unicode="&#x15e;" 
 />
    <glyph glyph-name="scedilla" unicode="&#x15f;" 
 />
    <glyph glyph-name="glyph227" unicode="&#x160;" horiz-adv-x="627" 
d="M147 326h332v-52h-332v52v0zM179 536c0 54 9.33203 89.666 27.999 106.999s54.334 26 107.001 26c51.333 0 86.5 -8.5 105.5 -25.5s28.5 -53.5 28.5 -109.5v-21c0 -51.333 -8.33301 -86.5 -25 -105.5s-49.667 -28.5 -99 -28.5c-64.667 0 -105 10.833 -121 32.5
s-24 62.834 -24 123.501v1zM250.999 528.999l-0.00195312 -21.998c0 -32.667 3.33301 -53.167 10 -61.5s20.334 -12.5 41.001 -12.5l12 1c29.333 -0.666992 47 5.16602 53 17.499s9 30.166 9 53.499v39c0 22.667 -2.83301 40 -8.5 52s-21.167 18 -46.5 18l-15 1
c-2 -0.666992 -4.16699 -1 -6.5 -1s-4.83301 -0.333008 -7.5 -1c-4.66699 0 -9.16699 -0.666992 -13.5 -2s-8.16602 -3.33301 -11.499 -6c-4.66699 -4.66699 -8.16699 -10.667 -10.5 -18s-3.83301 -15.333 -4.5 -24c-0.666992 -4.66699 -1 -9.5 -1 -14.5v-13.5v-6v0z" />
    <glyph glyph-name="glyph228" unicode="&#x161;" 
 />
    <glyph glyph-name="Tcommaaccent" unicode="&#x162;" 
 />
    <glyph glyph-name="tcommaaccent" unicode="&#x163;" 
 />
    <glyph glyph-name="Tcaron" unicode="&#x164;" 
 />
    <glyph glyph-name="tcaron" unicode="&#x165;" 
 />
    <glyph glyph-name="Uring" unicode="&#x16e;" 
 />
    <glyph glyph-name="uring" unicode="&#x16f;" 
 />
    <glyph glyph-name="Uhungarumlaut" unicode="&#x170;" 
 />
    <glyph glyph-name="uhungarumlaut" unicode="&#x171;" 
 />
    <glyph glyph-name="Iacute" unicode="&#x178;" 
 />
    <glyph glyph-name="Zacute" unicode="&#x179;" 
 />
    <glyph glyph-name="zacute" unicode="&#x17a;" 
 />
    <glyph glyph-name="Zdotaccent" unicode="&#x17b;" 
 />
    <glyph glyph-name="zdotaccent" unicode="&#x17c;" 
 />
    <glyph glyph-name="Zcaron" unicode="&#x17d;" 
 />
    <glyph glyph-name="zcaron" unicode="&#x17e;" 
 />
    <glyph glyph-name="quotedblright" unicode="&#x192;" 
 />
    <glyph glyph-name="uni02BA" unicode="&#x2ba;" 
 />
    <glyph glyph-name="arrowright" unicode="&#x2c6;" 
 />
    <glyph glyph-name="glyph224" unicode="&#x2c7;" 
 />
    <glyph glyph-name="house" unicode="&#x2c9;" 
 />
    <glyph glyph-name="endash" unicode="&#x2d8;" 
 />
    <glyph glyph-name="sfthyphen" unicode="&#x2d9;" 
 />
    <glyph glyph-name="filledbox" unicode="&#x2da;" 
 />
    <glyph glyph-name="glyph223" unicode="&#x2db;" 
 />
    <glyph glyph-name="onehalf" unicode="&#x2dc;" 
 />
    <glyph glyph-name="Gamma" unicode="&#x393;" 
 />
    <glyph glyph-name="Theta" unicode="&#x398;" 
 />
    <glyph glyph-name="exclamdown" unicode="&#x3a3;" 
 />
    <glyph glyph-name="Phi" unicode="&#x3a6;" 
 />
    <glyph glyph-name="Atilde" unicode="&#x3a9;" 
 />
    <glyph glyph-name="alpha" unicode="&#x3b1;" 
 />
    <glyph glyph-name="delta" unicode="&#x3b4;" 
 />
    <glyph glyph-name="epsilon" unicode="&#x3b5;" 
 />
    <glyph glyph-name="guillemotleft" unicode="&#x3c0;" 
 />
    <glyph glyph-name="sigma" unicode="&#x3c3;" 
 />
    <glyph glyph-name="tau" unicode="&#x3c4;" 
 />
    <glyph glyph-name="phi" unicode="&#x3c6;" 
 />
    <glyph glyph-name="glyph259" unicode="&#x2013;" 
 />
    <glyph glyph-name="periodcentered" unicode="&#x2014;" horiz-adv-x="210" 
d="M160 467v-467h-111v467h111v0z" />
    <glyph glyph-name="underscoredbl" unicode="&#x2017;" 
 />
    <glyph glyph-name="Acircumflex" unicode="&#x2018;" 
 />
    <glyph glyph-name="Ecircumflex" unicode="&#x2019;" 
 />
    <glyph glyph-name="Ugrave" unicode="&#x201a;" 
 />
    <glyph glyph-name="quotedblbase" unicode="&#x201c;" horiz-adv-x="627" 
d="M57 303h512v-114h-512v114v0z" />
    <glyph glyph-name="perthousand" unicode="&#x201d;" horiz-adv-x="627" 
d="M373 667v-197h171v-95h-171v-575h-120v575h-171v95h171v197h120v0z" />
    <glyph glyph-name="dotlessi" unicode="&#x201e;" 
 />
    <glyph glyph-name="dagger" unicode="&#x2020;" 
 />
    <glyph glyph-name="Uacute" unicode="&#x2021;" 
 />
    <glyph glyph-name="glyph262" unicode="&#x2022;" 
 />
    <glyph glyph-name="fraction" unicode="&#x2026;" 
 />
    <glyph glyph-name="circumflex" unicode="&#x2030;" 
 />
    <glyph glyph-name="Igrave" unicode="&#x2039;" horiz-adv-x="470" 
d="M162 483l75 -42l-94 -193l100 -187l-71 -46l-127 233l117 235v0zM343 486l76 -43l-95 -192l101 -188l-72 -45l-127 233l117 235v0z" />
    <glyph glyph-name="Oacute" unicode="&#x203a;" horiz-adv-x="289" 
d="M163 486l75 -43l-94 -192l100 -187l-71 -46l-127 233l117 235v0z" />
    <glyph glyph-name="exclamdbl" unicode="&#x203c;" 
 />
    <glyph glyph-name="uni207F" unicode="&#x207f;" 
 />
    <glyph glyph-name="franc" unicode="&#x20a3;" 
 />
    <glyph glyph-name="peseta" unicode="&#x20a7;" 
 />
    <glyph glyph-name="trademark" unicode="&#x2122;" horiz-adv-x="377" 
d="M41 447l-0.000976562 116c0 42 6.66699 71.833 20 89.5s43 26.5 89 26.5h3.5h2.5c1.33301 -0.666992 2.5 -1 3.5 -1h2.5v-51c-17.333 -1.33301 -30.666 -5 -39.999 -11s-14 -18 -14 -36v-3.5c0 -1 0.333008 -2.16699 1 -3.5v-3.5v-3.5l44 1v-120h-112v0zM210.999 447
l-0.000976562 116c0 42 6.66699 71.833 20 89.5s43 26.5 89 26.5h3.5h2.5c1.33301 -0.666992 2.5 -1 3.5 -1h2.5v-51c-17.333 -1.33301 -30.666 -5 -39.999 -11s-14 -18 -14 -36v-3.5c0 -1 0.333008 -2.16699 1 -3.5v-3.5v-3.5l44 1v-120h-112v0z" />
    <glyph glyph-name="arrowleft" unicode="&#x2190;" 
 />
    <glyph glyph-name="arrowup" unicode="&#x2191;" 
 />
    <glyph glyph-name="glyph257" unicode="&#x2192;" horiz-adv-x="627" 
d="M147 326h332v-52h-332v52v0zM254 581h-72.0029c0 40.667 11.5 65.167 34.5 73.5s51.167 12.5 84.5 12.5c42 0 74.833 -5.16699 98.5 -15.5s35.5 -38.833 35.5 -85.5v-183h-71l2 29c-1.33301 -2.66699 -2.66602 -4.66699 -3.99902 -6l-5 -5
c-11.333 -11.333 -23.166 -18 -35.499 -20s-27.5 -3 -45.5 -3c-31.333 0 -56.5 6 -75.5 18s-28.5 34.333 -28.5 67c0 37.333 9.5 62.166 28.5 74.499s44.833 18.5 77.5 18.5h13c4.66699 0 9.33398 -0.333008 14.001 -1c10.667 -0.666992 21.167 -2.66699 31.5 -6
s18.833 -9.66602 25.5 -18.999l1 37c0 22 -4.33301 36.333 -13 43s-24 10 -46 10c-17.333 0 -30 -2.16699 -38 -6.5s-12 -15.5 -12 -33.5v1zM242.997 473c0 -22 5.33301 -34.832 16 -38.499s25.334 -5.5 44.001 -5.5c15.333 0 29.166 2 41.499 6s18.5 15.333 18.5 34
c0 17.333 -5.5 28.166 -16.5 32.499s-24.167 6.5 -39.5 6.5c-31.333 0 -49.833 -3 -55.5 -9s-8.5 -15 -8.5 -27v1z" />
    <glyph glyph-name="arrowdown" unicode="&#x2193;" 
 />
    <glyph glyph-name="arrowboth" unicode="&#x2194;" 
 />
    <glyph glyph-name="arrowupdn" unicode="&#x2195;" 
 />
    <glyph glyph-name="arrowupdnbse" unicode="&#x21a8;" 
 />
    <glyph glyph-name="questiondown" unicode="&#x2202;" 
 />
    <glyph glyph-name="quoteright" unicode="&#x2206;" 
 />
    <glyph glyph-name="florin" unicode="&#x220f;" 
 />
    <glyph glyph-name="minus" unicode="&#x2212;" 
 />
    <glyph glyph-name="Icircumflex" unicode="&#x2215;" 
 />
    <glyph glyph-name="Ucircumflex" unicode="&#x2219;" 
 />
    <glyph glyph-name="quotedblleft" unicode="&#x221a;" 
 />
    <glyph glyph-name="yen" unicode="&#x221e;" 
 />
    <glyph glyph-name="orthogonal" unicode="&#x221f;" 
 />
    <glyph glyph-name="intersection" unicode="&#x2229;" 
 />
    <glyph glyph-name="guillemotright" unicode="&#x222b;" 
 />
    <glyph glyph-name="quoteleft" unicode="&#x2248;" 
 />
    <glyph glyph-name="AE" unicode="&#x2260;" 
 />
    <glyph glyph-name="equivalence" unicode="&#x2261;" 
 />
    <glyph glyph-name="ordfeminine" unicode="&#x2264;" 
 />
    <glyph glyph-name="ordmasculine" unicode="&#x2265;" 
 />
    <glyph glyph-name="glyph258" unicode="&#x2302;" 
 />
    <glyph glyph-name="revlogicalnot" unicode="&#x2310;" 
 />
    <glyph glyph-name="integraltp" unicode="&#x2320;" 
 />
    <glyph glyph-name="integralbt" unicode="&#x2321;" 
 />
    <glyph glyph-name="SF100000" unicode="&#x2500;" 
 />
    <glyph glyph-name="SF110000" unicode="&#x2502;" 
 />
    <glyph glyph-name="SF010000" unicode="&#x250c;" 
 />
    <glyph glyph-name="SF030000" unicode="&#x2510;" 
 />
    <glyph glyph-name="SF020000" unicode="&#x2514;" 
 />
    <glyph glyph-name="SF040000" unicode="&#x2518;" 
 />
    <glyph glyph-name="SF080000" unicode="&#x251c;" 
 />
    <glyph glyph-name="SF090000" unicode="&#x2524;" 
 />
    <glyph glyph-name="SF060000" unicode="&#x252c;" 
 />
    <glyph glyph-name="SF070000" unicode="&#x2534;" 
 />
    <glyph glyph-name="SF050000" unicode="&#x253c;" 
 />
    <glyph glyph-name="SF430000" unicode="&#x2550;" 
 />
    <glyph glyph-name="SF240000" unicode="&#x2551;" 
 />
    <glyph glyph-name="SF510000" unicode="&#x2552;" 
 />
    <glyph glyph-name="SF520000" unicode="&#x2553;" 
 />
    <glyph glyph-name="SF390000" unicode="&#x2554;" 
 />
    <glyph glyph-name="SF220000" unicode="&#x2555;" 
 />
    <glyph glyph-name="SF210000" unicode="&#x2556;" 
 />
    <glyph glyph-name="SF250000" unicode="&#x2557;" 
 />
    <glyph glyph-name="SF500000" unicode="&#x2558;" 
 />
    <glyph glyph-name="SF490000" unicode="&#x2559;" 
 />
    <glyph glyph-name="SF380000" unicode="&#x255a;" 
 />
    <glyph glyph-name="SF280000" unicode="&#x255b;" 
 />
    <glyph glyph-name="SF270000" unicode="&#x255c;" 
 />
    <glyph glyph-name="SF260000" unicode="&#x255d;" 
 />
    <glyph glyph-name="SF360000" unicode="&#x255e;" 
 />
    <glyph glyph-name="SF370000" unicode="&#x255f;" 
 />
    <glyph glyph-name="SF420000" unicode="&#x2560;" 
 />
    <glyph glyph-name="SF190000" unicode="&#x2561;" 
 />
    <glyph glyph-name="SF200000" unicode="&#x2562;" 
 />
    <glyph glyph-name="SF230000" unicode="&#x2563;" 
 />
    <glyph glyph-name="SF470000" unicode="&#x2564;" 
 />
    <glyph glyph-name="SF480000" unicode="&#x2565;" 
 />
    <glyph glyph-name="SF410000" unicode="&#x2566;" 
 />
    <glyph glyph-name="SF450000" unicode="&#x2567;" 
 />
    <glyph glyph-name="SF460000" unicode="&#x2568;" 
 />
    <glyph glyph-name="SF400000" unicode="&#x2569;" 
 />
    <glyph glyph-name="SF540000" unicode="&#x256a;" 
 />
    <glyph glyph-name="SF530000" unicode="&#x256b;" 
 />
    <glyph glyph-name="SF440000" unicode="&#x256c;" 
 />
    <glyph glyph-name="upblock" unicode="&#x2580;" 
 />
    <glyph glyph-name="dnblock" unicode="&#x2584;" 
 />
    <glyph glyph-name="block" unicode="&#x2588;" 
 />
    <glyph glyph-name="lfblock" unicode="&#x258c;" 
 />
    <glyph glyph-name="rtblock" unicode="&#x2590;" 
 />
    <glyph glyph-name="ltshade" unicode="&#x2591;" 
 />
    <glyph glyph-name="shade" unicode="&#x2592;" 
 />
    <glyph glyph-name="dkshade" unicode="&#x2593;" 
 />
    <glyph glyph-name="glyph261" unicode="&#x25a0;" horiz-adv-x="242" 
d="M178 376v-376h-114v283l-64 -60v77l64 61v306h114v-213l64 60v-79l-64 -59v0z" />
    <glyph glyph-name="filledrect" unicode="&#x25ac;" 
 />
    <glyph glyph-name="triagup" unicode="&#x25b2;" 
 />
    <glyph glyph-name="triagrt" unicode="&#x25ba;" 
 />
    <glyph glyph-name="triagdn" unicode="&#x25bc;" 
 />
    <glyph glyph-name="triaglf" unicode="&#x25c4;" 
 />
    <glyph glyph-name="Edieresis" unicode="&#x25ca;" 
 />
    <glyph glyph-name="circle" unicode="&#x25cb;" 
 />
    <glyph glyph-name="invbullet" unicode="&#x25d8;" 
 />
    <glyph glyph-name="invcircle" unicode="&#x25d9;" 
 />
    <glyph glyph-name="smileface" unicode="&#x263a;" 
 />
    <glyph glyph-name="invsmileface" unicode="&#x263b;" 
 />
    <glyph glyph-name="sun" unicode="&#x263c;" 
 />
    <glyph glyph-name="female" unicode="&#x2640;" 
 />
    <glyph glyph-name="male" unicode="&#x2642;" 
 />
    <glyph glyph-name="spade" unicode="&#x2660;" 
 />
    <glyph glyph-name="club" unicode="&#x2663;" 
 />
    <glyph glyph-name="heart" unicode="&#x2665;" 
 />
    <glyph glyph-name="diamond" unicode="&#x2666;" 
 />
    <glyph glyph-name="musicalnote" unicode="&#x266a;" 
 />
    <glyph glyph-name="musicalnotedbl" unicode="&#x266b;" 
 />
    <glyph glyph-name="Scaron" unicode="&#xf000;" 
 />
    <glyph glyph-name="Ocircumflex" unicode="&#xf001;" 
 />
    <glyph glyph-name="Ograve" unicode="&#xf002;" 
 />
    <glyph glyph-name="glyph1" 
 />
    <glyph glyph-name="glyph2" horiz-adv-x="278" 
 />
    <glyph glyph-name="degree" horiz-adv-x="627" 
d="M373 667v-210h171v-95h-171v-247h171v-95h-171v-220h-120v220h-171v95h171v247h-171v95h171v210h120v0z" />
    <glyph glyph-name="bullet" 
 />
    <glyph glyph-name="daggerdbl" 
 />
    </font>
</defs>
</svg>
